<ttFont>
    <TTGlyph name="A" xMin="-140" yMin="-18" xMax="1476" yMax="1434">
      <contour>
        <pt x="1214" y="534" on="1"/>
        <pt x="1315" y="534" on="1"/>
        <pt x="1272" y="442" on="1"/>
        <pt x="1176" y="442" on="1"/>
        <pt x="990" y="0" on="1"/>
        <pt x="857" y="0" on="1"/>
        <pt x="1042" y="442" on="1"/>
        <pt x="607" y="442" on="1"/>
        <pt x="603" y="434" on="0"/>
        <pt x="596" y="421" on="0"/>
        <pt x="592" y="414" on="1"/>
        <pt x="515" y="275" on="0"/>
        <pt x="367" y="106" on="0"/>
        <pt x="231" y="13" on="0"/>
        <pt x="111" y="-18" on="0"/>
        <pt x="61" y="-18" on="1"/>
        <pt x="18" y="-18" on="0"/>
        <pt x="-55" y="9" on="0"/>
        <pt x="-109" y="58" on="0"/>
        <pt x="-140" y="130" on="0"/>
        <pt x="-140" y="175" on="1"/>
        <pt x="-140" y="260" on="0"/>
        <pt x="-51" y="394" on="0"/>
        <pt x="107" y="486" on="0"/>
        <pt x="326" y="534" on="0"/>
        <pt x="456" y="534" on="1"/>
        <pt x="521" y="534" on="1"/>
        <pt x="629" y="718" on="0"/>
        <pt x="807" y="994" on="0"/>
        <pt x="957" y="1194" on="0"/>
        <pt x="1082" y="1326" on="0"/>
        <pt x="1192" y="1403" on="0"/>
        <pt x="1291" y="1434" on="0"/>
        <pt x="1339" y="1434" on="1"/>
        <pt x="1402" y="1434" on="0"/>
        <pt x="1476" y="1359" on="0"/>
        <pt x="1476" y="1277" on="1"/>
        <pt x="1476" y="1219" on="0"/>
        <pt x="1436" y="1061" on="0"/>
        <pt x="1392" y="956" on="1"/>
      </contour>
      <contour>
        <pt x="1328" y="1397" on="1"/>
        <pt x="1295" y="1397" on="0"/>
        <pt x="1233" y="1380" on="0"/>
        <pt x="1159" y="1322" on="0"/>
        <pt x="1066" y="1209" on="0"/>
        <pt x="939" y="1017" on="0"/>
        <pt x="771" y="734" on="0"/>
        <pt x="659" y="534" on="1"/>
        <pt x="1080" y="534" on="1"/>
        <pt x="1257" y="956" on="1"/>
        <pt x="1315" y="1096" on="0"/>
        <pt x="1384" y="1281" on="0"/>
        <pt x="1384" y="1334" on="1"/>
        <pt x="1384" y="1366" on="0"/>
        <pt x="1358" y="1397" on="0"/>
      </contour>
      <contour>
        <pt x="69" y="32" on="1"/>
        <pt x="135" y="32" on="0"/>
        <pt x="240" y="97" on="0"/>
        <pt x="329" y="203" on="0"/>
        <pt x="408" y="337" on="0"/>
        <pt x="447" y="406" on="1"/>
        <pt x="468" y="442" on="1"/>
        <pt x="409" y="442" on="1"/>
        <pt x="266" y="442" on="0"/>
        <pt x="74" y="397" on="0"/>
        <pt x="-42" y="323" on="0"/>
        <pt x="-91" y="228" on="0"/>
        <pt x="-91" y="179" on="1"/>
        <pt x="-91" y="151" on="0"/>
        <pt x="-74" y="98" on="0"/>
        <pt x="-36" y="57" on="0"/>
        <pt x="25" y="32" on="0"/>
      </contour>
    </TTGlyph>
    <TTGlyph name="AE" xMin="-140" yMin="-18" xMax="1910" yMax="1435">
      <contour>
        <pt x="-140" y="175" on="1"/>
        <pt x="-140" y="260" on="0"/>
        <pt x="-51" y="394" on="0"/>
        <pt x="107" y="486" on="0"/>
        <pt x="326" y="534" on="0"/>
        <pt x="456" y="534" on="1"/>
        <pt x="521" y="534" on="1"/>
        <pt x="629" y="718" on="0"/>
        <pt x="807" y="994" on="0"/>
        <pt x="957" y="1194" on="0"/>
        <pt x="1082" y="1326" on="0"/>
        <pt x="1192" y="1403" on="0"/>
        <pt x="1291" y="1434" on="0"/>
        <pt x="1339" y="1434" on="1"/>
        <pt x="1402" y="1434" on="0"/>
        <pt x="1476" y="1359" on="0"/>
        <pt x="1476" y="1277" on="1"/>
        <pt x="1476" y="1263" on="0"/>
        <pt x="1473" y="1234" on="0"/>
        <pt x="1471" y="1218" on="1"/>
        <pt x="1498" y="1263" on="0"/>
        <pt x="1567" y="1342" on="0"/>
        <pt x="1649" y="1401" on="0"/>
        <pt x="1741" y="1435" on="0"/>
        <pt x="1791" y="1435" on="1"/>
        <pt x="1843" y="1435" on="0"/>
        <pt x="1910" y="1366" on="0"/>
        <pt x="1910" y="1312" on="1"/>
        <pt x="1910" y="1267" on="0"/>
        <pt x="1854" y="1184" on="0"/>
        <pt x="1749" y="1111" on="0"/>
        <pt x="1600" y="1048" on="0"/>
        <pt x="1507" y="1024" on="1"/>
        <pt x="1512" y="999" on="0"/>
        <pt x="1527" y="957" on="0"/>
        <pt x="1542" y="917" on="0"/>
        <pt x="1553" y="878" on="0"/>
        <pt x="1553" y="856" on="1"/>
        <pt x="1553" y="794" on="0"/>
        <pt x="1493" y="710" on="0"/>
        <pt x="1403" y="643" on="0"/>
        <pt x="1298" y="581" on="0"/>
        <pt x="1208" y="500" on="0"/>
        <pt x="1148" y="387" on="0"/>
        <pt x="1148" y="303" on="1"/>
        <pt x="1148" y="237" on="0"/>
        <pt x="1197" y="139" on="0"/>
        <pt x="1275" y="73" on="0"/>
        <pt x="1370" y="41" on="0"/>
        <pt x="1415" y="41" on="1"/>
        <pt x="1445" y="41" on="0"/>
        <pt x="1516" y="48" on="0"/>
        <pt x="1604" y="79" on="0"/>
        <pt x="1710" y="141" on="0"/>
        <pt x="1773" y="196" on="1"/>
        <pt x="1799" y="164" on="1"/>
        <pt x="1731" y="107" on="0"/>
        <pt x="1615" y="36" on="0"/>
        <pt x="1510" y="-4" on="0"/>
        <pt x="1411" y="-18" on="0"/>
        <pt x="1360" y="-18" on="1"/>
        <pt x="1308" y="-18" on="0"/>
        <pt x="1213" y="1" on="0"/>
        <pt x="1132" y="40" on="0"/>
        <pt x="1068" y="97" on="0"/>
        <pt x="1047" y="135" on="1"/>
        <pt x="990" y="0" on="1"/>
        <pt x="857" y="0" on="1"/>
        <pt x="1042" y="442" on="1"/>
        <pt x="607" y="442" on="1"/>
        <pt x="603" y="434" on="0"/>
        <pt x="596" y="421" on="0"/>
        <pt x="592" y="414" on="1"/>
        <pt x="515" y="275" on="0"/>
        <pt x="367" y="106" on="0"/>
        <pt x="231" y="13" on="0"/>
        <pt x="111" y="-18" on="0"/>
        <pt x="61" y="-18" on="1"/>
        <pt x="18" y="-18" on="0"/>
        <pt x="-55" y="9" on="0"/>
        <pt x="-109" y="58" on="0"/>
        <pt x="-140" y="130" on="0"/>
      </contour>
      <contour>
        <pt x="1328" y="1397" on="1"/>
        <pt x="1295" y="1397" on="0"/>
        <pt x="1233" y="1380" on="0"/>
        <pt x="1159" y="1322" on="0"/>
        <pt x="1066" y="1209" on="0"/>
        <pt x="939" y="1017" on="0"/>
        <pt x="771" y="734" on="0"/>
        <pt x="659" y="534" on="1"/>
        <pt x="1080" y="534" on="1"/>
        <pt x="1257" y="956" on="1"/>
        <pt x="1315" y="1096" on="0"/>
        <pt x="1384" y="1281" on="0"/>
        <pt x="1384" y="1334" on="1"/>
        <pt x="1384" y="1366" on="0"/>
        <pt x="1358" y="1397" on="0"/>
      </contour>
      <contour>
        <pt x="69" y="32" on="1"/>
        <pt x="135" y="32" on="0"/>
        <pt x="240" y="97" on="0"/>
        <pt x="329" y="203" on="0"/>
        <pt x="408" y="337" on="0"/>
        <pt x="447" y="406" on="1"/>
        <pt x="468" y="442" on="1"/>
        <pt x="409" y="442" on="1"/>
        <pt x="266" y="442" on="0"/>
        <pt x="74" y="397" on="0"/>
        <pt x="-42" y="323" on="0"/>
        <pt x="-91" y="228" on="0"/>
        <pt x="-91" y="179" on="1"/>
        <pt x="-91" y="151" on="0"/>
        <pt x="-74" y="98" on="0"/>
        <pt x="-36" y="57" on="0"/>
        <pt x="25" y="32" on="0"/>
      </contour>
      <contour>
        <pt x="1503" y="1066" on="1"/>
        <pt x="1651" y="1105" on="0"/>
        <pt x="1813" y="1231" on="0"/>
        <pt x="1813" y="1317" on="1"/>
        <pt x="1813" y="1355" on="0"/>
        <pt x="1777" y="1390" on="0"/>
        <pt x="1744" y="1390" on="1"/>
        <pt x="1714" y="1390" on="0"/>
        <pt x="1632" y="1345" on="0"/>
        <pt x="1556" y="1263" on="0"/>
        <pt x="1503" y="1145" on="0"/>
        <pt x="1503" y="1072" on="1"/>
      </contour>
      <contour>
        <pt x="1250" y="618" on="1"/>
        <pt x="1286" y="641" on="0"/>
        <pt x="1353" y="682" on="0"/>
        <pt x="1404" y="724" on="0"/>
        <pt x="1435" y="768" on="0"/>
        <pt x="1435" y="794" on="1"/>
        <pt x="1435" y="807" on="0"/>
        <pt x="1424" y="840" on="0"/>
        <pt x="1411" y="883" on="0"/>
        <pt x="1399" y="937" on="0"/>
        <pt x="1399" y="973" on="1"/>
        <pt x="1397" y="968" on="0"/>
        <pt x="1394" y="960" on="0"/>
        <pt x="1392" y="956" on="1"/>
      </contour>
    </TTGlyph>
    <TTGlyph name="AEacute" xMin="-140" yMin="-18" xMax="1910" yMax="1728">
      <component glyphName="AE" x="0" y="0" flags="0x204"/>
      <component glyphName="acute" x="1284" y="690" flags="0x4"/>
    </TTGlyph>
    <TTGlyph name="Aacute" xMin="-140" yMin="-18" xMax="1547" yMax="1730">
      <component glyphName="A" x="0" y="0" flags="0x204"/>
      <component glyphName="acute" x="1083" y="692" flags="0x4"/>
    </TTGlyph>
    <TTGlyph name="Abreve" xMin="-140" yMin="-18" xMax="1617" yMax="1728">
      <component glyphName="A" x="0" y="0" flags="0x204"/>
      <component glyphName="breve" x="1083" y="692" flags="0x4"/>
    </TTGlyph>
    <TTGlyph name="Acircumflex" xMin="-140" yMin="-18" xMax="1540" yMax="1728">
      <component glyphName="A" x="0" y="0" flags="0x204"/>
      <component glyphName="circumflex" x="1083" y="692" flags="0x4"/>
    </TTGlyph>
    <TTGlyph name="Adieresis" xMin="-140" yMin="-18" xMax="1562" yMax="1705">
      <component glyphName="A" x="0" y="0" flags="0x204"/>
      <component glyphName="dieresis" x="1083" y="692" flags="0x4"/>
    </TTGlyph>
    <TTGlyph name="Agrave" xMin="-140" yMin="-18" xMax="1476" yMax="1730">
      <component glyphName="A" x="0" y="0" flags="0x204"/>
      <component glyphName="grave" x="1083" y="692" flags="0x4"/>
    </TTGlyph>
    <TTGlyph name="Amacron" xMin="-140" yMin="-18" xMax="1582" yMax="1668">
      <component glyphName="A" x="0" y="0" flags="0x204"/>
      <component glyphName="macron" x="1083" y="692" flags="0x4"/>
    </TTGlyph>
    <TTGlyph name="Aogonek" xMin="-140" yMin="-316" xMax="1476" yMax="1434">
      <contour>
        <pt x="894" y="-285" on="1"/>
        <pt x="868" y="-297" on="0"/>
        <pt x="801" y="-316" on="0"/>
        <pt x="769" y="-316" on="1"/>
        <pt x="720" y="-316" on="0"/>
        <pt x="682" y="-273" on="0"/>
        <pt x="682" y="-245" on="1"/>
        <pt x="682" y="-201" on="0"/>
        <pt x="738" y="-124" on="0"/>
        <pt x="819" y="-61" on="0"/>
        <pt x="912" y="-14" on="0"/>
        <pt x="949" y="0" on="1"/>
        <pt x="857" y="0" on="1"/>
        <pt x="1042" y="442" on="1"/>
        <pt x="607" y="442" on="1"/>
        <pt x="603" y="434" on="0"/>
        <pt x="596" y="421" on="0"/>
        <pt x="592" y="414" on="1"/>
        <pt x="515" y="275" on="0"/>
        <pt x="367" y="106" on="0"/>
        <pt x="231" y="13" on="0"/>
        <pt x="111" y="-18" on="0"/>
        <pt x="61" y="-18" on="1"/>
        <pt x="18" y="-18" on="0"/>
        <pt x="-55" y="9" on="0"/>
        <pt x="-109" y="58" on="0"/>
        <pt x="-140" y="130" on="0"/>
        <pt x="-140" y="175" on="1"/>
        <pt x="-140" y="260" on="0"/>
        <pt x="-51" y="394" on="0"/>
        <pt x="107" y="486" on="0"/>
        <pt x="326" y="534" on="0"/>
        <pt x="456" y="534" on="1"/>
        <pt x="521" y="534" on="1"/>
        <pt x="629" y="718" on="0"/>
        <pt x="807" y="994" on="0"/>
        <pt x="957" y="1194" on="0"/>
        <pt x="1082" y="1326" on="0"/>
        <pt x="1192" y="1403" on="0"/>
        <pt x="1291" y="1434" on="0"/>
        <pt x="1339" y="1434" on="1"/>
        <pt x="1402" y="1434" on="0"/>
        <pt x="1476" y="1359" on="0"/>
        <pt x="1476" y="1277" on="1"/>
        <pt x="1476" y="1219" on="0"/>
        <pt x="1436" y="1061" on="0"/>
        <pt x="1392" y="956" on="1"/>
        <pt x="1214" y="534" on="1"/>
        <pt x="1315" y="534" on="1"/>
        <pt x="1272" y="442" on="1"/>
        <pt x="1176" y="442" on="1"/>
        <pt x="990" y="0" on="1"/>
        <pt x="870" y="-57" on="0"/>
        <pt x="763" y="-173" on="0"/>
        <pt x="763" y="-225" on="1"/>
        <pt x="763" y="-253" on="0"/>
        <pt x="793" y="-276" on="0"/>
        <pt x="815" y="-276" on="1"/>
        <pt x="836" y="-276" on="0"/>
        <pt x="876" y="-263" on="0"/>
        <pt x="884" y="-260" on="1"/>
      </contour>
      <contour>
        <pt x="1328" y="1397" on="1"/>
        <pt x="1295" y="1397" on="0"/>
        <pt x="1233" y="1380" on="0"/>
        <pt x="1159" y="1322" on="0"/>
        <pt x="1066" y="1209" on="0"/>
        <pt x="939" y="1017" on="0"/>
        <pt x="771" y="734" on="0"/>
        <pt x="659" y="534" on="1"/>
        <pt x="1080" y="534" on="1"/>
        <pt x="1257" y="956" on="1"/>
        <pt x="1315" y="1096" on="0"/>
        <pt x="1384" y="1281" on="0"/>
        <pt x="1384" y="1334" on="1"/>
        <pt x="1384" y="1366" on="0"/>
        <pt x="1358" y="1397" on="0"/>
      </contour>
      <contour>
        <pt x="69" y="32" on="1"/>
        <pt x="135" y="32" on="0"/>
        <pt x="240" y="97" on="0"/>
        <pt x="329" y="203" on="0"/>
        <pt x="408" y="337" on="0"/>
        <pt x="447" y="406" on="1"/>
        <pt x="468" y="442" on="1"/>
        <pt x="409" y="442" on="1"/>
        <pt x="266" y="442" on="0"/>
        <pt x="74" y="397" on="0"/>
        <pt x="-42" y="323" on="0"/>
        <pt x="-91" y="228" on="0"/>
        <pt x="-91" y="179" on="1"/>
        <pt x="-91" y="151" on="0"/>
        <pt x="-74" y="98" on="0"/>
        <pt x="-36" y="57" on="0"/>
        <pt x="25" y="32" on="0"/>
      </contour>
    </TTGlyph>
    <TTGlyph name="Aring" xMin="-140" yMin="-18" xMax="1568" yMax="1840">
      <component glyphName="A" x="0" y="0" flags="0x204"/>
      <component glyphName="ring" x="1069" y="692" flags="0x4"/>
    </TTGlyph>
    <TTGlyph name="Atilde" xMin="-140" yMin="-18" xMax="1610" yMax="1719">
      <component glyphName="A" x="0" y="0" flags="0x204"/>
      <component glyphName="tilde" x="1083" y="692" flags="0x4"/>
    </TTGlyph>
    <TTGlyph name="B" xMin="-190" yMin="-18" xMax="1274" yMax="1441">
      <contour>
        <pt x="606" y="-18" on="1"/>
        <pt x="549" y="-18" on="0"/>
        <pt x="446" y="12" on="0"/>
        <pt x="352" y="60" on="0"/>
        <pt x="267" y="119" on="0"/>
        <pt x="228" y="149" on="1"/>
        <pt x="174" y="74" on="0"/>
        <pt x="48" y="-15" on="0"/>
        <pt x="-30" y="-15" on="1"/>
        <pt x="-58" y="-15" on="0"/>
        <pt x="-115" y="3" on="0"/>
        <pt x="-161" y="40" on="0"/>
        <pt x="-190" y="98" on="0"/>
        <pt x="-190" y="139" on="1"/>
        <pt x="-190" y="177" on="0"/>
        <pt x="-161" y="245" on="0"/>
        <pt x="-107" y="297" on="0"/>
        <pt x="-31" y="328" on="0"/>
        <pt x="16" y="328" on="1"/>
        <pt x="54" y="328" on="0"/>
        <pt x="133" y="293" on="0"/>
        <pt x="175" y="266" on="1"/>
        <pt x="201" y="326" on="0"/>
        <pt x="258" y="478" on="0"/>
        <pt x="295" y="573" on="1"/>
        <pt x="323" y="648" on="0"/>
        <pt x="384" y="806" on="0"/>
        <pt x="449" y="957" on="0"/>
        <pt x="516" y="1091" on="0"/>
        <pt x="551" y="1141" on="1"/>
        <pt x="605" y="1220" on="0"/>
        <pt x="700" y="1322" on="0"/>
        <pt x="792" y="1386" on="0"/>
        <pt x="884" y="1422" on="0"/>
        <pt x="937" y="1434" on="1"/>
        <pt x="953" y="1438" on="0"/>
        <pt x="988" y="1441" on="0"/>
        <pt x="1005" y="1441" on="1"/>
        <pt x="1054" y="1441" on="0"/>
        <pt x="1151" y="1409" on="0"/>
        <pt x="1227" y="1346" on="0"/>
        <pt x="1274" y="1254" on="0"/>
        <pt x="1274" y="1193" on="1"/>
        <pt x="1274" y="1141" on="0"/>
        <pt x="1239" y="1061" on="0"/>
        <pt x="1182" y="997" on="0"/>
        <pt x="1109" y="943" on="0"/>
        <pt x="1070" y="918" on="1"/>
        <pt x="1032" y="893" on="0"/>
        <pt x="967" y="856" on="0"/>
        <pt x="919" y="825" on="0"/>
        <pt x="892" y="796" on="0"/>
        <pt x="892" y="779" on="1"/>
        <pt x="892" y="759" on="0"/>
        <pt x="933" y="676" on="0"/>
        <pt x="982" y="562" on="0"/>
        <pt x="1023" y="424" on="0"/>
        <pt x="1023" y="351" on="1"/>
        <pt x="1023" y="268" on="0"/>
        <pt x="958" y="133" on="0"/>
        <pt x="846" y="35" on="0"/>
        <pt x="693" y="-18" on="0"/>
      </contour>
      <contour>
        <pt x="592" y="41" on="1"/>
        <pt x="657" y="41" on="0"/>
        <pt x="766" y="91" on="0"/>
        <pt x="845" y="175" on="0"/>
        <pt x="889" y="283" on="0"/>
        <pt x="889" y="342" on="1"/>
        <pt x="889" y="399" on="0"/>
        <pt x="854" y="515" on="0"/>
        <pt x="811" y="618" on="0"/>
        <pt x="776" y="702" on="0"/>
        <pt x="776" y="727" on="1"/>
        <pt x="776" y="748" on="0"/>
        <pt x="800" y="783" on="0"/>
        <pt x="845" y="819" on="0"/>
        <pt x="911" y="863" on="0"/>
        <pt x="953" y="893" on="1"/>
        <pt x="993" y="921" on="0"/>
        <pt x="1062" y="986" on="0"/>
        <pt x="1113" y="1060" on="0"/>
        <pt x="1142" y="1143" on="0"/>
        <pt x="1142" y="1191" on="1"/>
        <pt x="1142" y="1240" on="0"/>
        <pt x="1113" y="1313" on="0"/>
        <pt x="1059" y="1361" on="0"/>
        <pt x="984" y="1385" on="0"/>
        <pt x="938" y="1385" on="1"/>
        <pt x="911" y="1385" on="0"/>
        <pt x="862" y="1371" on="0"/>
        <pt x="846" y="1361" on="1"/>
        <pt x="808" y="1337" on="0"/>
        <pt x="733" y="1244" on="0"/>
        <pt x="662" y="1120" on="0"/>
        <pt x="593" y="971" on="0"/>
        <pt x="528" y="814" on="0"/>
        <pt x="467" y="655" on="0"/>
        <pt x="439" y="582" on="1"/>
        <pt x="399" y="479" on="0"/>
        <pt x="314" y="283" on="0"/>
        <pt x="263" y="202" on="1"/>
        <pt x="302" y="173" on="0"/>
        <pt x="382" y="116" on="0"/>
        <pt x="464" y="70" on="0"/>
        <pt x="548" y="41" on="0"/>
      </contour>
      <contour>
        <pt x="-41" y="35" on="1"/>
        <pt x="-10" y="35" on="0"/>
        <pt x="41" y="56" on="0"/>
        <pt x="86" y="98" on="0"/>
        <pt x="128" y="164" on="0"/>
        <pt x="149" y="209" on="1"/>
        <pt x="111" y="237" on="0"/>
        <pt x="39" y="272" on="0"/>
        <pt x="6" y="272" on="1"/>
        <pt x="-31" y="272" on="0"/>
        <pt x="-86" y="247" on="0"/>
        <pt x="-123" y="208" on="0"/>
        <pt x="-142" y="159" on="0"/>
        <pt x="-142" y="136" on="1"/>
        <pt x="-142" y="89" on="0"/>
        <pt x="-87" y="35" on="0"/>
      </contour>
    </TTGlyph>
    <TTGlyph name="C" xMin="16" yMin="-18" xMax="1144" yMax="1434">
      <contour>
        <pt x="791" y="764" on="1"/>
        <pt x="904" y="818" on="0"/>
        <pt x="1032" y="1034" on="0"/>
        <pt x="1032" y="1179" on="1"/>
        <pt x="1032" y="1226" on="0"/>
        <pt x="1011" y="1306" on="0"/>
        <pt x="969" y="1364" on="0"/>
        <pt x="907" y="1397" on="0"/>
        <pt x="867" y="1397" on="1"/>
        <pt x="803" y="1397" on="0"/>
        <pt x="675" y="1343" on="0"/>
        <pt x="551" y="1247" on="0"/>
        <pt x="436" y="1116" on="0"/>
        <pt x="335" y="962" on="0"/>
        <pt x="251" y="792" on="0"/>
        <pt x="191" y="618" on="0"/>
        <pt x="158" y="448" on="0"/>
        <pt x="158" y="370" on="1"/>
        <pt x="158" y="284" on="0"/>
        <pt x="194" y="162" on="0"/>
        <pt x="258" y="82" on="0"/>
        <pt x="346" y="45" on="0"/>
        <pt x="399" y="45" on="1"/>
        <pt x="409" y="45" on="0"/>
        <pt x="472" y="50" on="0"/>
        <pt x="563" y="78" on="0"/>
        <pt x="675" y="136" on="0"/>
        <pt x="734" y="190" on="1"/>
        <pt x="759" y="154" on="1"/>
        <pt x="695" y="92" on="0"/>
        <pt x="568" y="22" on="0"/>
        <pt x="461" y="-11" on="0"/>
        <pt x="382" y="-18" on="0"/>
        <pt x="367" y="-18" on="1"/>
        <pt x="312" y="-18" on="0"/>
        <pt x="189" y="18" on="0"/>
        <pt x="85" y="105" on="0"/>
        <pt x="16" y="252" on="0"/>
        <pt x="16" y="363" on="1"/>
        <pt x="16" y="468" on="0"/>
        <pt x="61" y="672" on="0"/>
        <pt x="142" y="862" on="0"/>
        <pt x="251" y="1035" on="0"/>
        <pt x="378" y="1183" on="0"/>
        <pt x="518" y="1303" on="0"/>
        <pt x="658" y="1388" on="0"/>
        <pt x="794" y="1434" on="0"/>
        <pt x="854" y="1434" on="1"/>
        <pt x="918" y="1434" on="0"/>
        <pt x="1024" y="1396" on="0"/>
        <pt x="1101" y="1326" on="0"/>
        <pt x="1144" y="1229" on="0"/>
        <pt x="1144" y="1170" on="1"/>
        <pt x="1144" y="1104" on="0"/>
        <pt x="1090" y="969" on="0"/>
        <pt x="998" y="852" on="0"/>
        <pt x="877" y="760" on="0"/>
        <pt x="811" y="737" on="1"/>
      </contour>
    </TTGlyph>
    <TTGlyph name="Cacute" xMin="16" yMin="-18" xMax="1144" yMax="1728">
      <component glyphName="C" x="0" y="0" flags="0x204"/>
      <component glyphName="acute" x="615" y="690" flags="0x4"/>
    </TTGlyph>
    <TTGlyph name="Ccaron" xMin="16" yMin="-18" xMax="1144" yMax="1726">
      <component glyphName="C" x="0" y="0" flags="0x204"/>
      <component glyphName="caron" x="615" y="690" flags="0x4"/>
    </TTGlyph>
    <TTGlyph name="Ccedilla" xMin="16" yMin="-294" xMax="1144" yMax="1434">
      <contour>
        <pt x="791" y="764" on="1"/>
        <pt x="904" y="818" on="0"/>
        <pt x="1032" y="1034" on="0"/>
        <pt x="1032" y="1179" on="1"/>
        <pt x="1032" y="1226" on="0"/>
        <pt x="1011" y="1306" on="0"/>
        <pt x="969" y="1364" on="0"/>
        <pt x="907" y="1397" on="0"/>
        <pt x="867" y="1397" on="1"/>
        <pt x="803" y="1397" on="0"/>
        <pt x="675" y="1343" on="0"/>
        <pt x="551" y="1247" on="0"/>
        <pt x="436" y="1116" on="0"/>
        <pt x="335" y="962" on="0"/>
        <pt x="251" y="792" on="0"/>
        <pt x="191" y="618" on="0"/>
        <pt x="158" y="448" on="0"/>
        <pt x="158" y="370" on="1"/>
        <pt x="158" y="284" on="0"/>
        <pt x="194" y="162" on="0"/>
        <pt x="258" y="82" on="0"/>
        <pt x="346" y="45" on="0"/>
        <pt x="399" y="45" on="1"/>
        <pt x="409" y="45" on="0"/>
        <pt x="472" y="50" on="0"/>
        <pt x="563" y="78" on="0"/>
        <pt x="675" y="136" on="0"/>
        <pt x="734" y="190" on="1"/>
        <pt x="759" y="154" on="1"/>
        <pt x="695" y="92" on="0"/>
        <pt x="568" y="22" on="0"/>
        <pt x="461" y="-11" on="0"/>
        <pt x="382" y="-18" on="0"/>
        <pt x="367" y="-18" on="1"/>
        <pt x="358" y="-18" on="0"/>
        <pt x="339" y="-17" on="0"/>
        <pt x="330" y="-16" on="1"/>
        <pt x="278" y="-91" on="1"/>
        <pt x="295" y="-81" on="0"/>
        <pt x="343" y="-74" on="0"/>
        <pt x="366" y="-74" on="1"/>
        <pt x="405" y="-74" on="0"/>
        <pt x="456" y="-116" on="0"/>
        <pt x="456" y="-148" on="1"/>
        <pt x="456" y="-177" on="0"/>
        <pt x="422" y="-230" on="0"/>
        <pt x="365" y="-270" on="0"/>
        <pt x="289" y="-294" on="0"/>
        <pt x="247" y="-294" on="1"/>
        <pt x="203" y="-294" on="0"/>
        <pt x="151" y="-274" on="0"/>
        <pt x="137" y="-265" on="1"/>
        <pt x="153" y="-241" on="1"/>
        <pt x="162" y="-247" on="0"/>
        <pt x="206" y="-265" on="0"/>
        <pt x="241" y="-265" on="1"/>
        <pt x="268" y="-265" on="0"/>
        <pt x="314" y="-250" on="0"/>
        <pt x="348" y="-222" on="0"/>
        <pt x="368" y="-183" on="0"/>
        <pt x="368" y="-160" on="1"/>
        <pt x="368" y="-131" on="0"/>
        <pt x="337" y="-104" on="0"/>
        <pt x="317" y="-104" on="1"/>
        <pt x="295" y="-104" on="0"/>
        <pt x="262" y="-120" on="0"/>
        <pt x="244" y="-137" on="1"/>
        <pt x="217" y="-137" on="1"/>
        <pt x="304" y="-13" on="1"/>
        <pt x="253" y="-5" on="0"/>
        <pt x="151" y="43" on="0"/>
        <pt x="68" y="132" on="0"/>
        <pt x="16" y="267" on="0"/>
        <pt x="16" y="363" on="1"/>
        <pt x="16" y="468" on="0"/>
        <pt x="61" y="672" on="0"/>
        <pt x="142" y="862" on="0"/>
        <pt x="251" y="1035" on="0"/>
        <pt x="378" y="1183" on="0"/>
        <pt x="518" y="1303" on="0"/>
        <pt x="658" y="1388" on="0"/>
        <pt x="794" y="1434" on="0"/>
        <pt x="854" y="1434" on="1"/>
        <pt x="918" y="1434" on="0"/>
        <pt x="1024" y="1396" on="0"/>
        <pt x="1101" y="1326" on="0"/>
        <pt x="1144" y="1229" on="0"/>
        <pt x="1144" y="1170" on="1"/>
        <pt x="1144" y="1104" on="0"/>
        <pt x="1090" y="969" on="0"/>
        <pt x="998" y="852" on="0"/>
        <pt x="877" y="760" on="0"/>
        <pt x="811" y="737" on="1"/>
      </contour>
    </TTGlyph>
    <TTGlyph name="Ccircumflex" xMin="16" yMin="-18" xMax="1144" yMax="1726">
      <component glyphName="C" x="0" y="0" flags="0x204"/>
      <component glyphName="circumflex" x="615" y="690" flags="0x4"/>
    </TTGlyph>
    <TTGlyph name="Cdotaccent" xMin="16" yMin="-18" xMax="1144" yMax="1702">
      <component glyphName="C" x="0" y="0" flags="0x204"/>
      <component glyphName="dotaccent" x="615" y="690" flags="0x4"/>
    </TTGlyph>
    <TTGlyph name="D" xMin="-151" yMin="-18" xMax="1310" yMax="1434">
      <contour>
        <pt x="575" y="-18" on="1"/>
        <pt x="523" y="-18" on="0"/>
        <pt x="435" y="7" on="0"/>
        <pt x="359" y="48" on="0"/>
        <pt x="293" y="101" on="0"/>
        <pt x="264" y="128" on="1"/>
        <pt x="205" y="54" on="0"/>
        <pt x="78" y="-15" on="0"/>
        <pt x="4" y="-15" on="1"/>
        <pt x="-23" y="-15" on="0"/>
        <pt x="-78" y="2" on="0"/>
        <pt x="-123" y="37" on="0"/>
        <pt x="-151" y="92" on="0"/>
        <pt x="-151" y="130" on="1"/>
        <pt x="-151" y="169" on="0"/>
        <pt x="-118" y="241" on="0"/>
        <pt x="-59" y="296" on="0"/>
        <pt x="22" y="328" on="0"/>
        <pt x="70" y="328" on="1"/>
        <pt x="112" y="328" on="0"/>
        <pt x="187" y="288" on="0"/>
        <pt x="224" y="257" on="1"/>
        <pt x="254" y="317" on="0"/>
        <pt x="320" y="474" on="0"/>
        <pt x="362" y="573" on="1"/>
        <pt x="492" y="883" on="1"/>
        <pt x="373" y="883" on="1"/>
        <pt x="323" y="883" on="0"/>
        <pt x="225" y="904" on="0"/>
        <pt x="149" y="949" on="0"/>
        <pt x="102" y="1017" on="0"/>
        <pt x="102" y="1065" on="1"/>
        <pt x="102" y="1133" on="0"/>
        <pt x="192" y="1266" on="0"/>
        <pt x="357" y="1370" on="0"/>
        <pt x="592" y="1434" on="0"/>
        <pt x="737" y="1434" on="1"/>
        <pt x="846" y="1434" on="0"/>
        <pt x="1052" y="1356" on="0"/>
        <pt x="1213" y="1206" on="0"/>
        <pt x="1310" y="989" on="0"/>
        <pt x="1310" y="850" on="1"/>
        <pt x="1310" y="753" on="0"/>
        <pt x="1258" y="549" on="0"/>
        <pt x="1164" y="357" on="0"/>
        <pt x="1030" y="185" on="0"/>
        <pt x="867" y="57" on="0"/>
        <pt x="678" y="-18" on="0"/>
      </contour>
      <contour>
        <pt x="620" y="883" on="1"/>
        <pt x="426" y="420" on="1"/>
        <pt x="366" y="277" on="0"/>
        <pt x="305" y="185" on="1"/>
        <pt x="334" y="158" on="0"/>
        <pt x="394" y="107" on="0"/>
        <pt x="460" y="67" on="0"/>
        <pt x="532" y="43" on="0"/>
        <pt x="572" y="43" on="1"/>
        <pt x="658" y="43" on="0"/>
        <pt x="813" y="116" on="0"/>
        <pt x="946" y="242" on="0"/>
        <pt x="1054" y="409" on="0"/>
        <pt x="1129" y="596" on="0"/>
        <pt x="1170" y="794" on="0"/>
        <pt x="1170" y="887" on="1"/>
        <pt x="1170" y="993" on="0"/>
        <pt x="1117" y="1179" on="0"/>
        <pt x="1007" y="1317" on="0"/>
        <pt x="838" y="1397" on="0"/>
        <pt x="721" y="1397" on="1"/>
        <pt x="606" y="1397" on="0"/>
        <pt x="418" y="1344" on="0"/>
        <pt x="285" y="1260" on="0"/>
        <pt x="213" y="1154" on="0"/>
        <pt x="213" y="1100" on="1"/>
        <pt x="213" y="1072" on="0"/>
        <pt x="231" y="1025" on="0"/>
        <pt x="276" y="992" on="0"/>
        <pt x="350" y="973" on="0"/>
        <pt x="407" y="973" on="1"/>
        <pt x="529" y="973" on="1"/>
        <pt x="676" y="1323" on="1"/>
        <pt x="804" y="1323" on="1"/>
        <pt x="657" y="973" on="1"/>
        <pt x="979" y="973" on="1"/>
        <pt x="942" y="883" on="1"/>
      </contour>
      <contour>
        <pt x="-4" y="35" on="1"/>
        <pt x="26" y="35" on="0"/>
        <pt x="77" y="54" on="0"/>
        <pt x="124" y="94" on="0"/>
        <pt x="169" y="154" on="0"/>
        <pt x="192" y="196" on="1"/>
        <pt x="157" y="228" on="0"/>
        <pt x="90" y="272" on="0"/>
        <pt x="53" y="272" on="1"/>
        <pt x="15" y="272" on="0"/>
        <pt x="-42" y="246" on="0"/>
        <pt x="-82" y="205" on="0"/>
        <pt x="-102" y="156" on="0"/>
        <pt x="-102" y="133" on="1"/>
        <pt x="-102" y="88" on="0"/>
        <pt x="-50" y="35" on="0"/>
      </contour>
    </TTGlyph>
    <TTGlyph name="Dcaron" xMin="-151" yMin="-18" xMax="1310" yMax="1726">
      <component glyphName="D" x="0" y="0" flags="0x204"/>
      <component glyphName="caron" x="522" y="690" flags="0x4"/>
    </TTGlyph>
    <TTGlyph name="Dcroat" xMin="-151" yMin="-18" xMax="1310" yMax="1434">
      <contour>
        <pt x="575" y="-18" on="1"/>
        <pt x="523" y="-18" on="0"/>
        <pt x="435" y="7" on="0"/>
        <pt x="359" y="48" on="0"/>
        <pt x="293" y="101" on="0"/>
        <pt x="264" y="128" on="1"/>
        <pt x="205" y="54" on="0"/>
        <pt x="78" y="-15" on="0"/>
        <pt x="4" y="-15" on="1"/>
        <pt x="-23" y="-15" on="0"/>
        <pt x="-78" y="2" on="0"/>
        <pt x="-123" y="37" on="0"/>
        <pt x="-151" y="92" on="0"/>
        <pt x="-151" y="130" on="1"/>
        <pt x="-151" y="169" on="0"/>
        <pt x="-118" y="241" on="0"/>
        <pt x="-59" y="296" on="0"/>
        <pt x="22" y="328" on="0"/>
        <pt x="70" y="328" on="1"/>
        <pt x="112" y="328" on="0"/>
        <pt x="187" y="288" on="0"/>
        <pt x="224" y="257" on="1"/>
        <pt x="251" y="312" on="0"/>
        <pt x="312" y="452" on="0"/>
        <pt x="348" y="539" on="1"/>
        <pt x="153" y="539" on="1"/>
        <pt x="181" y="601" on="1"/>
        <pt x="373" y="601" on="1"/>
        <pt x="491" y="883" on="1"/>
        <pt x="373" y="883" on="1"/>
        <pt x="323" y="883" on="0"/>
        <pt x="225" y="904" on="0"/>
        <pt x="149" y="949" on="0"/>
        <pt x="102" y="1017" on="0"/>
        <pt x="102" y="1065" on="1"/>
        <pt x="102" y="1133" on="0"/>
        <pt x="192" y="1266" on="0"/>
        <pt x="357" y="1370" on="0"/>
        <pt x="592" y="1434" on="0"/>
        <pt x="737" y="1434" on="1"/>
        <pt x="846" y="1434" on="0"/>
        <pt x="1052" y="1356" on="0"/>
        <pt x="1213" y="1206" on="0"/>
        <pt x="1310" y="989" on="0"/>
        <pt x="1310" y="850" on="1"/>
        <pt x="1310" y="753" on="0"/>
        <pt x="1258" y="549" on="0"/>
        <pt x="1164" y="357" on="0"/>
        <pt x="1030" y="185" on="0"/>
        <pt x="867" y="57" on="0"/>
        <pt x="678" y="-18" on="0"/>
      </contour>
      <contour>
        <pt x="476" y="539" on="1"/>
        <pt x="426" y="420" on="1"/>
        <pt x="366" y="277" on="0"/>
        <pt x="305" y="185" on="1"/>
        <pt x="334" y="158" on="0"/>
        <pt x="394" y="107" on="0"/>
        <pt x="460" y="67" on="0"/>
        <pt x="532" y="43" on="0"/>
        <pt x="572" y="43" on="1"/>
        <pt x="658" y="43" on="0"/>
        <pt x="813" y="116" on="0"/>
        <pt x="946" y="242" on="0"/>
        <pt x="1054" y="409" on="0"/>
        <pt x="1129" y="596" on="0"/>
        <pt x="1170" y="794" on="0"/>
        <pt x="1170" y="887" on="1"/>
        <pt x="1170" y="993" on="0"/>
        <pt x="1117" y="1179" on="0"/>
        <pt x="1007" y="1317" on="0"/>
        <pt x="838" y="1397" on="0"/>
        <pt x="721" y="1397" on="1"/>
        <pt x="606" y="1397" on="0"/>
        <pt x="418" y="1344" on="0"/>
        <pt x="285" y="1260" on="0"/>
        <pt x="213" y="1154" on="0"/>
        <pt x="213" y="1100" on="1"/>
        <pt x="213" y="1072" on="0"/>
        <pt x="231" y="1025" on="0"/>
        <pt x="276" y="992" on="0"/>
        <pt x="350" y="973" on="0"/>
        <pt x="407" y="973" on="1"/>
        <pt x="529" y="973" on="1"/>
        <pt x="676" y="1323" on="1"/>
        <pt x="804" y="1323" on="1"/>
        <pt x="657" y="973" on="1"/>
        <pt x="979" y="973" on="1"/>
        <pt x="942" y="883" on="1"/>
        <pt x="620" y="883" on="1"/>
        <pt x="502" y="601" on="1"/>
        <pt x="727" y="601" on="1"/>
        <pt x="699" y="539" on="1"/>
      </contour>
      <contour>
        <pt x="-4" y="35" on="1"/>
        <pt x="26" y="35" on="0"/>
        <pt x="77" y="54" on="0"/>
        <pt x="124" y="94" on="0"/>
        <pt x="169" y="154" on="0"/>
        <pt x="192" y="196" on="1"/>
        <pt x="157" y="228" on="0"/>
        <pt x="90" y="272" on="0"/>
        <pt x="53" y="272" on="1"/>
        <pt x="15" y="272" on="0"/>
        <pt x="-42" y="246" on="0"/>
        <pt x="-82" y="205" on="0"/>
        <pt x="-102" y="156" on="0"/>
        <pt x="-102" y="133" on="1"/>
        <pt x="-102" y="88" on="0"/>
        <pt x="-50" y="35" on="0"/>
      </contour>
    </TTGlyph>
    <TTGlyph name="E" xMin="-51" yMin="-18" xMax="847" yMax="1435">
      <contour>
        <pt x="165" y="1020" on="1"/>
        <pt x="259" y="1029" on="0"/>
        <pt x="342" y="1044" on="1"/>
        <pt x="354" y="1112" on="0"/>
        <pt x="423" y="1251" on="0"/>
        <pt x="525" y="1364" on="0"/>
        <pt x="655" y="1435" on="0"/>
        <pt x="728" y="1435" on="1"/>
        <pt x="780" y="1435" on="0"/>
        <pt x="847" y="1366" on="0"/>
        <pt x="847" y="1312" on="1"/>
        <pt x="847" y="1267" on="0"/>
        <pt x="791" y="1184" on="0"/>
        <pt x="686" y="1111" on="0"/>
        <pt x="537" y="1048" on="0"/>
        <pt x="444" y="1024" on="1"/>
        <pt x="448" y="1000" on="0"/>
        <pt x="464" y="957" on="0"/>
        <pt x="479" y="917" on="0"/>
        <pt x="490" y="878" on="0"/>
        <pt x="490" y="856" on="1"/>
        <pt x="490" y="794" on="0"/>
        <pt x="430" y="710" on="0"/>
        <pt x="340" y="643" on="0"/>
        <pt x="235" y="581" on="0"/>
        <pt x="145" y="500" on="0"/>
        <pt x="85" y="387" on="0"/>
        <pt x="85" y="303" on="1"/>
        <pt x="85" y="237" on="0"/>
        <pt x="134" y="139" on="0"/>
        <pt x="212" y="73" on="0"/>
        <pt x="307" y="41" on="0"/>
        <pt x="352" y="41" on="1"/>
        <pt x="382" y="41" on="0"/>
        <pt x="453" y="48" on="0"/>
        <pt x="541" y="79" on="0"/>
        <pt x="647" y="141" on="0"/>
        <pt x="710" y="196" on="1"/>
        <pt x="736" y="164" on="1"/>
        <pt x="668" y="107" on="0"/>
        <pt x="552" y="36" on="0"/>
        <pt x="447" y="-4" on="0"/>
        <pt x="348" y="-18" on="0"/>
        <pt x="297" y="-18" on="1"/>
        <pt x="225" y="-18" on="0"/>
        <pt x="98" y="20" on="0"/>
        <pt x="4" y="94" on="0"/>
        <pt x="-51" y="204" on="0"/>
        <pt x="-51" y="276" on="1"/>
        <pt x="-51" y="358" on="0"/>
        <pt x="12" y="478" on="0"/>
        <pt x="106" y="567" on="0"/>
        <pt x="215" y="635" on="0"/>
        <pt x="309" y="696" on="0"/>
        <pt x="372" y="756" on="0"/>
        <pt x="372" y="794" on="1"/>
        <pt x="372" y="808" on="0"/>
        <pt x="361" y="841" on="0"/>
        <pt x="347" y="885" on="0"/>
        <pt x="336" y="941" on="0"/>
        <pt x="336" y="978" on="1"/>
        <pt x="336" y="983" on="0"/>
        <pt x="336" y="994" on="0"/>
        <pt x="337" y="1000" on="1"/>
        <pt x="302" y="993" on="0"/>
        <pt x="228" y="982" on="0"/>
        <pt x="190" y="977" on="1"/>
      </contour>
      <contour>
        <pt x="440" y="1066" on="1"/>
        <pt x="588" y="1105" on="0"/>
        <pt x="750" y="1231" on="0"/>
        <pt x="750" y="1317" on="1"/>
        <pt x="750" y="1355" on="0"/>
        <pt x="714" y="1390" on="0"/>
        <pt x="681" y="1390" on="1"/>
        <pt x="651" y="1390" on="0"/>
        <pt x="569" y="1345" on="0"/>
        <pt x="493" y="1263" on="0"/>
        <pt x="440" y="1145" on="0"/>
        <pt x="440" y="1072" on="1"/>
      </contour>
    </TTGlyph>
    <TTGlyph name="Eacute" xMin="-51" yMin="-18" xMax="884" yMax="1729">
      <component glyphName="E" x="0" y="0" flags="0x4"/>
      <component glyphName="acute" x="420" y="691" flags="0x4"/>
    </TTGlyph>
    <TTGlyph name="Ebreve" xMin="-51" yMin="-18" xMax="954" yMax="1727">
      <component glyphName="E" x="0" y="0" flags="0x4"/>
      <component glyphName="breve" x="420" y="691" flags="0x4"/>
    </TTGlyph>
    <TTGlyph name="Ecaron" xMin="-51" yMin="-18" xMax="937" yMax="1727">
      <component glyphName="E" x="0" y="0" flags="0x4"/>
      <component glyphName="caron" x="420" y="691" flags="0x4"/>
    </TTGlyph>
    <TTGlyph name="Ecircumflex" xMin="-51" yMin="-18" xMax="877" yMax="1727">
      <component glyphName="E" x="0" y="0" flags="0x4"/>
      <component glyphName="circumflex" x="420" y="691" flags="0x4"/>
    </TTGlyph>
    <TTGlyph name="Edieresis" xMin="-51" yMin="-18" xMax="899" yMax="1704">
      <component glyphName="E" x="0" y="0" flags="0x4"/>
      <component glyphName="dieresis" x="420" y="691" flags="0x4"/>
    </TTGlyph>
    <TTGlyph name="Edotaccent" xMin="-51" yMin="-18" xMax="847" yMax="1703">
      <component glyphName="E" x="0" y="0" flags="0x4"/>
      <component glyphName="dotaccent" x="420" y="691" flags="0x4"/>
    </TTGlyph>
    <TTGlyph name="Egrave" xMin="-51" yMin="-18" xMax="847" yMax="1729">
      <component glyphName="E" x="0" y="0" flags="0x4"/>
      <component glyphName="grave" x="420" y="691" flags="0x4"/>
    </TTGlyph>
    <TTGlyph name="Emacron" xMin="-51" yMin="-18" xMax="919" yMax="1667">
      <component glyphName="E" x="0" y="0" flags="0x4"/>
      <component glyphName="macron" x="420" y="691" flags="0x4"/>
    </TTGlyph>
    <TTGlyph name="Eng" xMin="50" yMin="-645" xMax="1309" yMax="1542">
      <contour>
        <pt x="1092" y="954" on="1"/>
        <pt x="1114" y="1007" on="0"/>
        <pt x="1161" y="1114" on="0"/>
        <pt x="1199" y="1212" on="0"/>
        <pt x="1223" y="1293" on="0"/>
        <pt x="1223" y="1320" on="1"/>
        <pt x="1223" y="1340" on="0"/>
        <pt x="1204" y="1362" on="0"/>
        <pt x="1184" y="1362" on="1"/>
        <pt x="1110" y="1362" on="0"/>
        <pt x="1005" y="1290" on="1"/>
        <pt x="959" y="1255" on="0"/>
        <pt x="855" y="1153" on="0"/>
        <pt x="736" y="1014" on="0"/>
        <pt x="605" y="827" on="0"/>
        <pt x="535" y="704" on="1"/>
        <pt x="235" y="0" on="1"/>
        <pt x="110" y="0" on="1"/>
        <pt x="576" y="1098" on="1"/>
        <pt x="598" y="1150" on="0"/>
        <pt x="641" y="1256" on="0"/>
        <pt x="674" y="1352" on="0"/>
        <pt x="695" y="1433" on="0"/>
        <pt x="695" y="1461" on="1"/>
        <pt x="695" y="1507" on="0"/>
        <pt x="663" y="1507" on="1"/>
        <pt x="595" y="1500" on="0"/>
        <pt x="505" y="1445" on="1"/>
        <pt x="467" y="1422" on="0"/>
        <pt x="373" y="1349" on="0"/>
        <pt x="263" y="1244" on="0"/>
        <pt x="139" y="1101" on="0"/>
        <pt x="70" y="1008" on="1"/>
        <pt x="50" y="1130" on="1"/>
        <pt x="147" y="1230" on="0"/>
        <pt x="333" y="1384" on="0"/>
        <pt x="498" y="1488" on="0"/>
        <pt x="634" y="1542" on="0"/>
        <pt x="681" y="1542" on="1"/>
        <pt x="740" y="1542" on="0"/>
        <pt x="789" y="1471" on="0"/>
        <pt x="789" y="1415" on="1"/>
        <pt x="789" y="1381" on="0"/>
        <pt x="775" y="1303" on="0"/>
        <pt x="751" y="1221" on="0"/>
        <pt x="720" y="1137" on="0"/>
        <pt x="703" y="1098" on="1"/>
        <pt x="624" y="914" on="1"/>
        <pt x="723" y="1058" on="0"/>
        <pt x="891" y="1245" on="0"/>
        <pt x="1033" y="1354" on="0"/>
        <pt x="1151" y="1397" on="0"/>
        <pt x="1201" y="1397" on="1"/>
        <pt x="1261" y="1397" on="0"/>
        <pt x="1309" y="1328" on="0"/>
        <pt x="1309" y="1271" on="1"/>
        <pt x="1309" y="1238" on="0"/>
        <pt x="1295" y="1160" on="0"/>
        <pt x="1271" y="1078" on="0"/>
        <pt x="1240" y="993" on="0"/>
        <pt x="1224" y="954" on="1"/>
        <pt x="1056" y="557" on="1"/>
        <pt x="1033" y="506" on="0"/>
        <pt x="984" y="392" on="0"/>
        <pt x="956" y="329" on="1"/>
        <pt x="984" y="341" on="0"/>
        <pt x="1040" y="366" on="0"/>
        <pt x="1070" y="379" on="1"/>
        <pt x="1086" y="337" on="1"/>
        <pt x="1045" y="320" on="0"/>
        <pt x="967" y="285" on="0"/>
        <pt x="928" y="266" on="1"/>
        <pt x="881" y="164" on="0"/>
        <pt x="776" y="-51" on="0"/>
        <pt x="661" y="-254" on="0"/>
        <pt x="538" y="-433" on="0"/>
        <pt x="409" y="-567" on="0"/>
        <pt x="276" y="-645" on="0"/>
        <pt x="208" y="-645" on="1"/>
        <pt x="178" y="-645" on="0"/>
        <pt x="133" y="-623" on="0"/>
        <pt x="103" y="-585" on="0"/>
        <pt x="87" y="-538" on="0"/>
        <pt x="87" y="-512" on="1"/>
        <pt x="87" y="-418" on="0"/>
        <pt x="168" y="-227" on="0"/>
        <pt x="341" y="-35" on="0"/>
        <pt x="611" y="158" on="0"/>
        <pt x="800" y="254" on="1"/>
        <pt x="845" y="358" on="0"/>
        <pt x="921" y="545" on="0"/>
        <pt x="949" y="616" on="1"/>
      </contour>
      <contour>
        <pt x="559" y="-248" on="1"/>
        <pt x="613" y="-151" on="0"/>
        <pt x="720" y="72" on="0"/>
        <pt x="770" y="185" on="1"/>
        <pt x="650" y="117" on="0"/>
        <pt x="443" y="-35" on="0"/>
        <pt x="291" y="-202" on="0"/>
        <pt x="204" y="-380" on="0"/>
        <pt x="204" y="-473" on="1"/>
        <pt x="204" y="-514" on="0"/>
        <pt x="240" y="-540" on="0"/>
        <pt x="259" y="-540" on="1"/>
        <pt x="287" y="-540" on="0"/>
        <pt x="354" y="-508" on="0"/>
        <pt x="431" y="-437" on="0"/>
        <pt x="515" y="-326" on="0"/>
      </contour>
    </TTGlyph>
    <TTGlyph name="Eogonek" xMin="-51" yMin="-297" xMax="847" yMax="1435">
      <contour>
        <pt x="411" y="-266" on="1"/>
        <pt x="385" y="-278" on="0"/>
        <pt x="318" y="-297" on="0"/>
        <pt x="286" y="-297" on="1"/>
        <pt x="237" y="-297" on="0"/>
        <pt x="199" y="-254" on="0"/>
        <pt x="199" y="-226" on="1"/>
        <pt x="199" y="-192" on="0"/>
        <pt x="234" y="-129" on="0"/>
        <pt x="291" y="-74" on="0"/>
        <pt x="361" y="-28" on="0"/>
        <pt x="396" y="-11" on="1"/>
        <pt x="371" y="-15" on="0"/>
        <pt x="322" y="-18" on="0"/>
        <pt x="297" y="-18" on="1"/>
        <pt x="225" y="-18" on="0"/>
        <pt x="98" y="20" on="0"/>
        <pt x="4" y="94" on="0"/>
        <pt x="-51" y="204" on="0"/>
        <pt x="-51" y="276" on="1"/>
        <pt x="-51" y="358" on="0"/>
        <pt x="12" y="478" on="0"/>
        <pt x="106" y="567" on="0"/>
        <pt x="215" y="635" on="0"/>
        <pt x="309" y="696" on="0"/>
        <pt x="372" y="756" on="0"/>
        <pt x="372" y="794" on="1"/>
        <pt x="372" y="808" on="0"/>
        <pt x="361" y="841" on="0"/>
        <pt x="347" y="885" on="0"/>
        <pt x="336" y="941" on="0"/>
        <pt x="336" y="978" on="1"/>
        <pt x="336" y="983" on="0"/>
        <pt x="336" y="994" on="0"/>
        <pt x="337" y="1000" on="1"/>
        <pt x="302" y="993" on="0"/>
        <pt x="228" y="982" on="0"/>
        <pt x="190" y="977" on="1"/>
        <pt x="165" y="1020" on="1"/>
        <pt x="259" y="1029" on="0"/>
        <pt x="342" y="1044" on="1"/>
        <pt x="354" y="1112" on="0"/>
        <pt x="423" y="1251" on="0"/>
        <pt x="525" y="1364" on="0"/>
        <pt x="655" y="1435" on="0"/>
        <pt x="728" y="1435" on="1"/>
        <pt x="780" y="1435" on="0"/>
        <pt x="847" y="1366" on="0"/>
        <pt x="847" y="1312" on="1"/>
        <pt x="847" y="1267" on="0"/>
        <pt x="791" y="1184" on="0"/>
        <pt x="686" y="1111" on="0"/>
        <pt x="537" y="1048" on="0"/>
        <pt x="444" y="1024" on="1"/>
        <pt x="448" y="1000" on="0"/>
        <pt x="464" y="957" on="0"/>
        <pt x="479" y="917" on="0"/>
        <pt x="490" y="878" on="0"/>
        <pt x="490" y="856" on="1"/>
        <pt x="490" y="794" on="0"/>
        <pt x="430" y="710" on="0"/>
        <pt x="340" y="643" on="0"/>
        <pt x="235" y="581" on="0"/>
        <pt x="145" y="500" on="0"/>
        <pt x="85" y="387" on="0"/>
        <pt x="85" y="303" on="1"/>
        <pt x="85" y="237" on="0"/>
        <pt x="134" y="139" on="0"/>
        <pt x="212" y="73" on="0"/>
        <pt x="307" y="41" on="0"/>
        <pt x="352" y="41" on="1"/>
        <pt x="382" y="41" on="0"/>
        <pt x="453" y="48" on="0"/>
        <pt x="541" y="79" on="0"/>
        <pt x="647" y="141" on="0"/>
        <pt x="710" y="196" on="1"/>
        <pt x="736" y="164" on="1"/>
        <pt x="668" y="108" on="0"/>
        <pt x="560" y="41" on="0"/>
        <pt x="508" y="18" on="1"/>
        <pt x="390" y="-35" on="0"/>
        <pt x="280" y="-155" on="0"/>
        <pt x="280" y="-206" on="1"/>
        <pt x="280" y="-234" on="0"/>
        <pt x="310" y="-257" on="0"/>
        <pt x="332" y="-257" on="1"/>
        <pt x="353" y="-257" on="0"/>
        <pt x="393" y="-244" on="0"/>
        <pt x="401" y="-241" on="1"/>
      </contour>
      <contour>
        <pt x="440" y="1066" on="1"/>
        <pt x="588" y="1105" on="0"/>
        <pt x="750" y="1231" on="0"/>
        <pt x="750" y="1317" on="1"/>
        <pt x="750" y="1355" on="0"/>
        <pt x="714" y="1390" on="0"/>
        <pt x="681" y="1390" on="1"/>
        <pt x="651" y="1390" on="0"/>
        <pt x="569" y="1345" on="0"/>
        <pt x="493" y="1263" on="0"/>
        <pt x="440" y="1145" on="0"/>
        <pt x="440" y="1072" on="1"/>
      </contour>
    </TTGlyph>
    <TTGlyph name="Eth" xMin="-151" yMin="-18" xMax="1310" yMax="1434">
      <contour>
        <pt x="575" y="-18" on="1"/>
        <pt x="523" y="-18" on="0"/>
        <pt x="435" y="7" on="0"/>
        <pt x="359" y="48" on="0"/>
        <pt x="293" y="101" on="0"/>
        <pt x="264" y="128" on="1"/>
        <pt x="205" y="54" on="0"/>
        <pt x="78" y="-15" on="0"/>
        <pt x="4" y="-15" on="1"/>
        <pt x="-23" y="-15" on="0"/>
        <pt x="-78" y="2" on="0"/>
        <pt x="-123" y="37" on="0"/>
        <pt x="-151" y="92" on="0"/>
        <pt x="-151" y="130" on="1"/>
        <pt x="-151" y="169" on="0"/>
        <pt x="-118" y="241" on="0"/>
        <pt x="-59" y="296" on="0"/>
        <pt x="22" y="328" on="0"/>
        <pt x="70" y="328" on="1"/>
        <pt x="112" y="328" on="0"/>
        <pt x="187" y="288" on="0"/>
        <pt x="224" y="257" on="1"/>
        <pt x="251" y="312" on="0"/>
        <pt x="312" y="452" on="0"/>
        <pt x="348" y="539" on="1"/>
        <pt x="153" y="539" on="1"/>
        <pt x="181" y="601" on="1"/>
        <pt x="373" y="601" on="1"/>
        <pt x="491" y="883" on="1"/>
        <pt x="373" y="883" on="1"/>
        <pt x="323" y="883" on="0"/>
        <pt x="225" y="904" on="0"/>
        <pt x="149" y="949" on="0"/>
        <pt x="102" y="1017" on="0"/>
        <pt x="102" y="1065" on="1"/>
        <pt x="102" y="1133" on="0"/>
        <pt x="192" y="1266" on="0"/>
        <pt x="357" y="1370" on="0"/>
        <pt x="592" y="1434" on="0"/>
        <pt x="737" y="1434" on="1"/>
        <pt x="846" y="1434" on="0"/>
        <pt x="1052" y="1356" on="0"/>
        <pt x="1213" y="1206" on="0"/>
        <pt x="1310" y="989" on="0"/>
        <pt x="1310" y="850" on="1"/>
        <pt x="1310" y="753" on="0"/>
        <pt x="1258" y="549" on="0"/>
        <pt x="1164" y="357" on="0"/>
        <pt x="1030" y="185" on="0"/>
        <pt x="867" y="57" on="0"/>
        <pt x="678" y="-18" on="0"/>
      </contour>
      <contour>
        <pt x="476" y="539" on="1"/>
        <pt x="426" y="420" on="1"/>
        <pt x="366" y="277" on="0"/>
        <pt x="305" y="185" on="1"/>
        <pt x="334" y="158" on="0"/>
        <pt x="394" y="107" on="0"/>
        <pt x="460" y="67" on="0"/>
        <pt x="532" y="43" on="0"/>
        <pt x="572" y="43" on="1"/>
        <pt x="658" y="43" on="0"/>
        <pt x="813" y="116" on="0"/>
        <pt x="946" y="242" on="0"/>
        <pt x="1054" y="409" on="0"/>
        <pt x="1129" y="596" on="0"/>
        <pt x="1170" y="794" on="0"/>
        <pt x="1170" y="887" on="1"/>
        <pt x="1170" y="993" on="0"/>
        <pt x="1117" y="1179" on="0"/>
        <pt x="1007" y="1317" on="0"/>
        <pt x="838" y="1397" on="0"/>
        <pt x="721" y="1397" on="1"/>
        <pt x="606" y="1397" on="0"/>
        <pt x="418" y="1344" on="0"/>
        <pt x="285" y="1260" on="0"/>
        <pt x="213" y="1154" on="0"/>
        <pt x="213" y="1100" on="1"/>
        <pt x="213" y="1072" on="0"/>
        <pt x="231" y="1025" on="0"/>
        <pt x="276" y="992" on="0"/>
        <pt x="350" y="973" on="0"/>
        <pt x="407" y="973" on="1"/>
        <pt x="529" y="973" on="1"/>
        <pt x="676" y="1323" on="1"/>
        <pt x="804" y="1323" on="1"/>
        <pt x="657" y="973" on="1"/>
        <pt x="979" y="973" on="1"/>
        <pt x="942" y="883" on="1"/>
        <pt x="620" y="883" on="1"/>
        <pt x="502" y="601" on="1"/>
        <pt x="727" y="601" on="1"/>
        <pt x="699" y="539" on="1"/>
      </contour>
      <contour>
        <pt x="-4" y="35" on="1"/>
        <pt x="26" y="35" on="0"/>
        <pt x="77" y="54" on="0"/>
        <pt x="124" y="94" on="0"/>
        <pt x="169" y="154" on="0"/>
        <pt x="192" y="196" on="1"/>
        <pt x="157" y="228" on="0"/>
        <pt x="90" y="272" on="0"/>
        <pt x="53" y="272" on="1"/>
        <pt x="15" y="272" on="0"/>
        <pt x="-42" y="246" on="0"/>
        <pt x="-82" y="205" on="0"/>
        <pt x="-102" y="156" on="0"/>
        <pt x="-102" y="133" on="1"/>
        <pt x="-102" y="88" on="0"/>
        <pt x="-50" y="35" on="0"/>
      </contour>
    </TTGlyph>
    <TTGlyph name="Euro" xMin="-77" yMin="-15" xMax="972" yMax="1219">
      <contour>
        <pt x="161" y="474" on="1"/>
        <pt x="140" y="388" on="0"/>
        <pt x="140" y="311" on="1"/>
        <pt x="140" y="239" on="0"/>
        <pt x="173" y="137" on="0"/>
        <pt x="231" y="73" on="0"/>
        <pt x="308" y="43" on="0"/>
        <pt x="352" y="43" on="1"/>
        <pt x="406" y="43" on="0"/>
        <pt x="537" y="95" on="0"/>
        <pt x="609" y="164" on="1"/>
        <pt x="635" y="129" on="1"/>
        <pt x="550" y="49" on="0"/>
        <pt x="390" y="-15" on="0"/>
        <pt x="305" y="-15" on="1"/>
        <pt x="259" y="-15" on="0"/>
        <pt x="155" y="15" on="0"/>
        <pt x="68" y="88" on="0"/>
        <pt x="10" y="212" on="0"/>
        <pt x="10" y="305" on="1"/>
        <pt x="10" y="390" on="0"/>
        <pt x="28" y="474" on="1"/>
        <pt x="-77" y="474" on="1"/>
        <pt x="-54" y="526" on="1"/>
        <pt x="41" y="526" on="1"/>
        <pt x="47" y="549" on="0"/>
        <pt x="62" y="592" on="0"/>
        <pt x="70" y="614" on="1"/>
        <pt x="-30" y="614" on="1"/>
        <pt x="-7" y="666" on="1"/>
        <pt x="92" y="666" on="1"/>
        <pt x="127" y="745" on="0"/>
        <pt x="220" y="887" on="0"/>
        <pt x="327" y="1010" on="0"/>
        <pt x="443" y="1110" on="0"/>
        <pt x="560" y="1181" on="0"/>
        <pt x="672" y="1219" on="0"/>
        <pt x="721" y="1219" on="1"/>
        <pt x="777" y="1219" on="0"/>
        <pt x="869" y="1187" on="0"/>
        <pt x="935" y="1128" on="0"/>
        <pt x="972" y="1046" on="0"/>
        <pt x="972" y="997" on="1"/>
        <pt x="972" y="944" on="0"/>
        <pt x="924" y="851" on="0"/>
        <pt x="845" y="773" on="0"/>
        <pt x="741" y="712" on="0"/>
        <pt x="685" y="693" on="1"/>
        <pt x="666" y="723" on="1"/>
        <pt x="767" y="766" on="0"/>
        <pt x="875" y="916" on="0"/>
        <pt x="875" y="1008" on="1"/>
        <pt x="875" y="1044" on="0"/>
        <pt x="857" y="1105" on="0"/>
        <pt x="822" y="1151" on="0"/>
        <pt x="770" y="1177" on="0"/>
        <pt x="737" y="1177" on="1"/>
        <pt x="670" y="1177" on="0"/>
        <pt x="526" y="1092" on="0"/>
        <pt x="390" y="950" on="0"/>
        <pt x="270" y="766" on="0"/>
        <pt x="226" y="666" on="1"/>
        <pt x="580" y="666" on="1"/>
        <pt x="557" y="614" on="1"/>
        <pt x="204" y="614" on="1"/>
        <pt x="196" y="591" on="0"/>
        <pt x="181" y="548" on="0"/>
        <pt x="174" y="526" on="1"/>
        <pt x="523" y="526" on="1"/>
        <pt x="500" y="474" on="1"/>
      </contour>
    </TTGlyph>
    <TTGlyph name="F" xMin="90" yMin="0" xMax="1511" yMax="1434">
      <contour>
        <pt x="439" y="0" on="1"/>
        <pt x="640" y="469" on="1"/>
        <pt x="603" y="468" on="0"/>
        <pt x="513" y="463" on="0"/>
        <pt x="426" y="455" on="0"/>
        <pt x="353" y="443" on="0"/>
        <pt x="332" y="434" on="1"/>
        <pt x="326" y="462" on="1"/>
        <pt x="367" y="486" on="0"/>
        <pt x="462" y="521" on="0"/>
        <pt x="556" y="544" on="0"/>
        <pt x="645" y="558" on="0"/>
        <pt x="680" y="561" on="1"/>
        <pt x="871" y="1006" on="1"/>
        <pt x="899" y="1073" on="0"/>
        <pt x="932" y="1128" on="1"/>
        <pt x="868" y="1142" on="0"/>
        <pt x="741" y="1178" on="0"/>
        <pt x="620" y="1216" on="0"/>
        <pt x="507" y="1253" on="0"/>
        <pt x="458" y="1268" on="1"/>
        <pt x="392" y="1287" on="0"/>
        <pt x="339" y="1287" on="1"/>
        <pt x="276" y="1287" on="0"/>
        <pt x="198" y="1251" on="0"/>
        <pt x="155" y="1201" on="0"/>
        <pt x="140" y="1148" on="0"/>
        <pt x="140" y="1130" on="1"/>
        <pt x="140" y="1103" on="0"/>
        <pt x="162" y="1054" on="0"/>
        <pt x="203" y="1018" on="0"/>
        <pt x="262" y="996" on="0"/>
        <pt x="300" y="996" on="1"/>
        <pt x="326" y="996" on="0"/>
        <pt x="404" y="1007" on="0"/>
        <pt x="449" y="1024" on="1"/>
        <pt x="408" y="928" on="1"/>
        <pt x="389" y="921" on="0"/>
        <pt x="337" y="911" on="0"/>
        <pt x="305" y="911" on="1"/>
        <pt x="262" y="911" on="0"/>
        <pt x="184" y="935" on="0"/>
        <pt x="125" y="983" on="0"/>
        <pt x="90" y="1055" on="0"/>
        <pt x="90" y="1103" on="1"/>
        <pt x="90" y="1172" on="0"/>
        <pt x="158" y="1273" on="0"/>
        <pt x="267" y="1340" on="0"/>
        <pt x="405" y="1373" on="0"/>
        <pt x="476" y="1373" on="1"/>
        <pt x="526" y="1373" on="0"/>
        <pt x="642" y="1335" on="0"/>
        <pt x="770" y="1280" on="0"/>
        <pt x="906" y="1218" on="0"/>
        <pt x="976" y="1194" on="1"/>
        <pt x="1025" y="1262" on="0"/>
        <pt x="1133" y="1354" on="0"/>
        <pt x="1237" y="1410" on="0"/>
        <pt x="1332" y="1434" on="0"/>
        <pt x="1369" y="1434" on="1"/>
        <pt x="1406" y="1434" on="0"/>
        <pt x="1460" y="1415" on="0"/>
        <pt x="1494" y="1382" on="0"/>
        <pt x="1511" y="1339" on="0"/>
        <pt x="1511" y="1315" on="1"/>
        <pt x="1511" y="1265" on="0"/>
        <pt x="1452" y="1185" on="0"/>
        <pt x="1358" y="1128" on="0"/>
        <pt x="1239" y="1098" on="0"/>
        <pt x="1179" y="1098" on="1"/>
        <pt x="1144" y="1098" on="0"/>
        <pt x="1073" y="1104" on="0"/>
        <pt x="1037" y="1109" on="1"/>
        <pt x="1025" y="1086" on="0"/>
        <pt x="1002" y="1039" on="0"/>
        <pt x="991" y="1013" on="1"/>
        <pt x="804" y="567" on="1"/>
        <pt x="1119" y="567" on="1"/>
        <pt x="1078" y="471" on="1"/>
        <pt x="763" y="471" on="1"/>
        <pt x="566" y="0" on="1"/>
      </contour>
      <contour>
        <pt x="1364" y="1400" on="1"/>
        <pt x="1331" y="1400" on="0"/>
        <pt x="1257" y="1369" on="0"/>
        <pt x="1181" y="1309" on="0"/>
        <pt x="1106" y="1223" on="0"/>
        <pt x="1071" y="1168" on="1"/>
        <pt x="1133" y="1154" on="0"/>
        <pt x="1192" y="1154" on="1"/>
        <pt x="1258" y="1154" on="0"/>
        <pt x="1351" y="1190" on="0"/>
        <pt x="1410" y="1244" on="0"/>
        <pt x="1438" y="1306" on="0"/>
        <pt x="1438" y="1331" on="1"/>
        <pt x="1438" y="1360" on="0"/>
        <pt x="1401" y="1400" on="0"/>
      </contour>
    </TTGlyph>
    <TTGlyph name="G" xMin="31" yMin="-139" xMax="1159" yMax="1434">
      <contour>
        <pt x="806" y="813" on="1"/>
        <pt x="919" y="863" on="0"/>
        <pt x="1047" y="1062" on="0"/>
        <pt x="1047" y="1196" on="1"/>
        <pt x="1047" y="1239" on="0"/>
        <pt x="1026" y="1313" on="0"/>
        <pt x="984" y="1367" on="0"/>
        <pt x="922" y="1397" on="0"/>
        <pt x="882" y="1397" on="1"/>
        <pt x="797" y="1397" on="0"/>
        <pt x="626" y="1315" on="0"/>
        <pt x="469" y="1177" on="0"/>
        <pt x="332" y="997" on="0"/>
        <pt x="231" y="800" on="0"/>
        <pt x="173" y="598" on="0"/>
        <pt x="173" y="509" on="1"/>
        <pt x="173" y="435" on="0"/>
        <pt x="209" y="329" on="0"/>
        <pt x="273" y="260" on="0"/>
        <pt x="361" y="228" on="0"/>
        <pt x="414" y="228" on="1"/>
        <pt x="430" y="228" on="0"/>
        <pt x="486" y="234" on="0"/>
        <pt x="559" y="257" on="0"/>
        <pt x="649" y="302" on="0"/>
        <pt x="699" y="341" on="1"/>
        <pt x="806" y="594" on="1"/>
        <pt x="933" y="594" on="1"/>
        <pt x="785" y="239" on="1"/>
        <pt x="761" y="180" on="0"/>
        <pt x="697" y="71" on="0"/>
        <pt x="607" y="-26" on="0"/>
        <pt x="485" y="-108" on="0"/>
        <pt x="401" y="-139" on="1"/>
        <pt x="388" y="-111" on="1"/>
        <pt x="444" y="-88" on="0"/>
        <pt x="527" y="-8" on="0"/>
        <pt x="587" y="82" on="0"/>
        <pt x="626" y="167" on="0"/>
        <pt x="638" y="195" on="1"/>
        <pt x="664" y="257" on="1"/>
        <pt x="617" y="226" on="0"/>
        <pt x="533" y="189" on="0"/>
        <pt x="461" y="170" on="0"/>
        <pt x="403" y="165" on="0"/>
        <pt x="382" y="165" on="1"/>
        <pt x="327" y="165" on="0"/>
        <pt x="204" y="196" on="0"/>
        <pt x="100" y="273" on="0"/>
        <pt x="31" y="401" on="0"/>
        <pt x="31" y="498" on="1"/>
        <pt x="31" y="621" on="0"/>
        <pt x="110" y="855" on="0"/>
        <pt x="243" y="1063" on="0"/>
        <pt x="416" y="1237" on="0"/>
        <pt x="602" y="1364" on="0"/>
        <pt x="789" y="1434" on="0"/>
        <pt x="869" y="1434" on="1"/>
        <pt x="933" y="1434" on="0"/>
        <pt x="1039" y="1398" on="0"/>
        <pt x="1116" y="1334" on="0"/>
        <pt x="1159" y="1244" on="0"/>
        <pt x="1159" y="1189" on="1"/>
        <pt x="1159" y="1127" on="0"/>
        <pt x="1105" y="1002" on="0"/>
        <pt x="1013" y="893" on="0"/>
        <pt x="892" y="808" on="0"/>
        <pt x="826" y="786" on="1"/>
      </contour>
    </TTGlyph>
    <TTGlyph name="Gbreve" xMin="31" yMin="-139" xMax="1159" yMax="1726">
      <component glyphName="G" x="0" y="0" flags="0x4"/>
      <component glyphName="breve" x="593" y="690" flags="0x4"/>
    </TTGlyph>
    <TTGlyph name="Gcircumflex" xMin="31" yMin="-139" xMax="1159" yMax="1726">
      <component glyphName="G" x="0" y="0" flags="0x4"/>
      <component glyphName="circumflex" x="593" y="690" flags="0x4"/>
    </TTGlyph>
    <TTGlyph name="Gcommaaccent" xMin="31" yMin="-263" xMax="1159" yMax="1434">
      <component glyphName="G" x="0" y="0" flags="0x4"/>
      <component glyphName="commaaccent" x="136" y="100" flags="0x4"/>
    </TTGlyph>
    <TTGlyph name="Gdotaccent" xMin="31" yMin="-139" xMax="1159" yMax="1702">
      <component glyphName="G" x="0" y="0" flags="0x4"/>
      <component glyphName="dotaccent" x="593" y="690" flags="0x4"/>
    </TTGlyph>
    <TTGlyph name="H" xMin="50" yMin="0" xMax="1447" yMax="1434">
      <contour>
        <pt x="153" y="0" on="1"/>
        <pt x="339" y="435" on="1"/>
        <pt x="282" y="438" on="0"/>
        <pt x="205" y="467" on="0"/>
        <pt x="158" y="510" on="0"/>
        <pt x="138" y="562" on="0"/>
        <pt x="138" y="589" on="1"/>
        <pt x="138" y="640" on="0"/>
        <pt x="184" y="704" on="0"/>
        <pt x="249" y="742" on="0"/>
        <pt x="321" y="756" on="0"/>
        <pt x="347" y="756" on="1"/>
        <pt x="412" y="756" on="0"/>
        <pt x="468" y="738" on="1"/>
        <pt x="576" y="989" on="1"/>
        <pt x="598" y="1042" on="0"/>
        <pt x="644" y="1149" on="0"/>
        <pt x="680" y="1246" on="0"/>
        <pt x="703" y="1328" on="0"/>
        <pt x="703" y="1356" on="1"/>
        <pt x="703" y="1374" on="0"/>
        <pt x="688" y="1397" on="0"/>
        <pt x="673" y="1397" on="1"/>
        <pt x="602" y="1386" on="0"/>
        <pt x="510" y="1329" on="1"/>
        <pt x="471" y="1305" on="0"/>
        <pt x="376" y="1231" on="0"/>
        <pt x="265" y="1124" on="0"/>
        <pt x="140" y="981" on="0"/>
        <pt x="71" y="887" on="1"/>
        <pt x="50" y="1022" on="1"/>
        <pt x="147" y="1122" on="0"/>
        <pt x="336" y="1275" on="0"/>
        <pt x="505" y="1380" on="0"/>
        <pt x="644" y="1434" on="0"/>
        <pt x="691" y="1434" on="1"/>
        <pt x="747" y="1434" on="0"/>
        <pt x="795" y="1367" on="0"/>
        <pt x="795" y="1315" on="1"/>
        <pt x="795" y="1281" on="0"/>
        <pt x="779" y="1202" on="0"/>
        <pt x="754" y="1117" on="0"/>
        <pt x="721" y="1030" on="0"/>
        <pt x="703" y="989" on="1"/>
        <pt x="572" y="685" on="1"/>
        <pt x="613" y="656" on="0"/>
        <pt x="678" y="575" on="0"/>
        <pt x="704" y="524" on="1"/>
        <pt x="955" y="524" on="1"/>
        <pt x="1321" y="1397" on="1"/>
        <pt x="1447" y="1397" on="1"/>
        <pt x="1081" y="524" on="1"/>
        <pt x="1184" y="524" on="1"/>
        <pt x="1144" y="435" on="1"/>
        <pt x="1044" y="435" on="1"/>
        <pt x="862" y="0" on="1"/>
        <pt x="735" y="0" on="1"/>
        <pt x="736" y="2" on="1"/>
        <pt x="738" y="35" on="0"/>
        <pt x="740" y="96" on="0"/>
        <pt x="740" y="125" on="1"/>
        <pt x="740" y="219" on="0"/>
        <pt x="719" y="372" on="0"/>
        <pt x="699" y="435" on="1"/>
        <pt x="464" y="435" on="1"/>
        <pt x="277" y="0" on="1"/>
      </contour>
      <contour>
        <pt x="197" y="614" on="1"/>
        <pt x="197" y="598" on="0"/>
        <pt x="212" y="566" on="0"/>
        <pt x="244" y="540" on="0"/>
        <pt x="293" y="524" on="0"/>
        <pt x="328" y="524" on="1"/>
        <pt x="377" y="524" on="1"/>
        <pt x="453" y="701" on="1"/>
        <pt x="401" y="717" on="0"/>
        <pt x="339" y="717" on="1"/>
        <pt x="273" y="717" on="0"/>
        <pt x="197" y="659" on="0"/>
      </contour>
      <contour>
        <pt x="781" y="147" on="1"/>
        <pt x="781" y="137" on="0"/>
        <pt x="781" y="119" on="0"/>
        <pt x="780" y="109" on="1"/>
        <pt x="917" y="435" on="1"/>
        <pt x="740" y="435" on="1"/>
        <pt x="781" y="307" on="0"/>
      </contour>
      <contour>
        <pt x="661" y="524" on="1"/>
        <pt x="619" y="604" on="0"/>
        <pt x="557" y="649" on="1"/>
        <pt x="503" y="524" on="1"/>
      </contour>
    </TTGlyph>
    <TTGlyph name="Hbar" xMin="50" yMin="0" xMax="1447" yMax="1434">
      <contour>
        <pt x="1447" y="1397" on="1"/>
        <pt x="1249" y="924" on="1"/>
        <pt x="1440" y="924" on="1"/>
        <pt x="1412" y="862" on="1"/>
        <pt x="1223" y="862" on="1"/>
        <pt x="1081" y="524" on="1"/>
        <pt x="1184" y="524" on="1"/>
        <pt x="1144" y="435" on="1"/>
        <pt x="1044" y="435" on="1"/>
        <pt x="862" y="0" on="1"/>
        <pt x="735" y="0" on="1"/>
        <pt x="736" y="2" on="1"/>
        <pt x="738" y="35" on="0"/>
        <pt x="740" y="96" on="0"/>
        <pt x="740" y="125" on="1"/>
        <pt x="740" y="219" on="0"/>
        <pt x="719" y="372" on="0"/>
        <pt x="699" y="435" on="1"/>
        <pt x="464" y="435" on="1"/>
        <pt x="277" y="0" on="1"/>
        <pt x="153" y="0" on="1"/>
        <pt x="339" y="435" on="1"/>
        <pt x="282" y="438" on="0"/>
        <pt x="205" y="467" on="0"/>
        <pt x="158" y="510" on="0"/>
        <pt x="138" y="562" on="0"/>
        <pt x="138" y="589" on="1"/>
        <pt x="138" y="640" on="0"/>
        <pt x="184" y="704" on="0"/>
        <pt x="249" y="742" on="0"/>
        <pt x="321" y="756" on="0"/>
        <pt x="347" y="756" on="1"/>
        <pt x="412" y="756" on="0"/>
        <pt x="468" y="738" on="1"/>
        <pt x="521" y="862" on="1"/>
        <pt x="311" y="862" on="1"/>
        <pt x="339" y="924" on="1"/>
        <pt x="548" y="924" on="1"/>
        <pt x="576" y="989" on="1"/>
        <pt x="598" y="1042" on="0"/>
        <pt x="644" y="1149" on="0"/>
        <pt x="680" y="1246" on="0"/>
        <pt x="703" y="1328" on="0"/>
        <pt x="703" y="1356" on="1"/>
        <pt x="703" y="1374" on="0"/>
        <pt x="688" y="1397" on="0"/>
        <pt x="673" y="1397" on="1"/>
        <pt x="602" y="1386" on="0"/>
        <pt x="510" y="1329" on="1"/>
        <pt x="471" y="1305" on="0"/>
        <pt x="376" y="1231" on="0"/>
        <pt x="265" y="1124" on="0"/>
        <pt x="140" y="981" on="0"/>
        <pt x="71" y="887" on="1"/>
        <pt x="50" y="1022" on="1"/>
        <pt x="147" y="1122" on="0"/>
        <pt x="336" y="1275" on="0"/>
        <pt x="505" y="1380" on="0"/>
        <pt x="644" y="1434" on="0"/>
        <pt x="691" y="1434" on="1"/>
        <pt x="747" y="1434" on="0"/>
        <pt x="795" y="1367" on="0"/>
        <pt x="795" y="1315" on="1"/>
        <pt x="795" y="1281" on="0"/>
        <pt x="779" y="1202" on="0"/>
        <pt x="754" y="1117" on="0"/>
        <pt x="721" y="1030" on="0"/>
        <pt x="703" y="989" on="1"/>
        <pt x="675" y="924" on="1"/>
        <pt x="1122" y="924" on="1"/>
        <pt x="1321" y="1397" on="1"/>
      </contour>
      <contour>
        <pt x="572" y="685" on="1"/>
        <pt x="613" y="656" on="0"/>
        <pt x="678" y="575" on="0"/>
        <pt x="704" y="524" on="1"/>
        <pt x="955" y="524" on="1"/>
        <pt x="1096" y="862" on="1"/>
        <pt x="648" y="862" on="1"/>
      </contour>
      <contour>
        <pt x="197" y="614" on="1"/>
        <pt x="197" y="598" on="0"/>
        <pt x="212" y="566" on="0"/>
        <pt x="244" y="540" on="0"/>
        <pt x="293" y="524" on="0"/>
        <pt x="328" y="524" on="1"/>
        <pt x="377" y="524" on="1"/>
        <pt x="453" y="701" on="1"/>
        <pt x="401" y="717" on="0"/>
        <pt x="339" y="717" on="1"/>
        <pt x="273" y="717" on="0"/>
        <pt x="197" y="659" on="0"/>
      </contour>
      <contour>
        <pt x="781" y="147" on="1"/>
        <pt x="781" y="137" on="0"/>
        <pt x="781" y="119" on="0"/>
        <pt x="780" y="109" on="1"/>
        <pt x="917" y="435" on="1"/>
        <pt x="740" y="435" on="1"/>
        <pt x="781" y="307" on="0"/>
      </contour>
      <contour>
        <pt x="661" y="524" on="1"/>
        <pt x="619" y="604" on="0"/>
        <pt x="557" y="649" on="1"/>
        <pt x="503" y="524" on="1"/>
      </contour>
    </TTGlyph>
    <TTGlyph name="Hcircumflex" xMin="50" yMin="0" xMax="1447" yMax="1709">
      <component glyphName="H" x="0" y="0" flags="0x204"/>
      <component glyphName="circumflex" x="792" y="673" flags="0x4"/>
    </TTGlyph>
    <TTGlyph name="I" xMin="-40" yMin="-18" xMax="894" yMax="1434">
      <contour>
        <pt x="847" y="635" on="1"/>
        <pt x="793" y="574" on="0"/>
        <pt x="690" y="469" on="0"/>
        <pt x="636" y="429" on="1"/>
        <pt x="595" y="351" on="0"/>
        <pt x="492" y="192" on="0"/>
        <pt x="366" y="63" on="0"/>
        <pt x="218" y="-18" on="0"/>
        <pt x="133" y="-18" on="1"/>
        <pt x="53" y="-18" on="0"/>
        <pt x="-39" y="66" on="0"/>
        <pt x="-40" y="133" on="1"/>
        <pt x="58" y="195" on="1"/>
        <pt x="45" y="147" on="0"/>
        <pt x="45" y="113" on="1"/>
        <pt x="45" y="66" on="0"/>
        <pt x="87" y="24" on="0"/>
        <pt x="116" y="24" on="1"/>
        <pt x="192" y="24" on="0"/>
        <pt x="369" y="180" on="0"/>
        <pt x="463" y="344" on="1"/>
        <pt x="416" y="333" on="0"/>
        <pt x="368" y="333" on="1"/>
        <pt x="317" y="333" on="0"/>
        <pt x="214" y="367" on="0"/>
        <pt x="131" y="436" on="0"/>
        <pt x="79" y="543" on="0"/>
        <pt x="79" y="617" on="1"/>
        <pt x="79" y="719" on="0"/>
        <pt x="155" y="919" on="0"/>
        <pt x="278" y="1101" on="0"/>
        <pt x="432" y="1256" on="0"/>
        <pt x="587" y="1370" on="0"/>
        <pt x="729" y="1434" on="0"/>
        <pt x="779" y="1434" on="1"/>
        <pt x="828" y="1434" on="0"/>
        <pt x="894" y="1331" on="0"/>
        <pt x="894" y="1225" on="1"/>
        <pt x="894" y="1116" on="0"/>
        <pt x="802" y="786" on="0"/>
        <pt x="699" y="557" on="1"/>
        <pt x="692" y="543" on="0"/>
        <pt x="686" y="528" on="1"/>
        <pt x="718" y="559" on="0"/>
        <pt x="781" y="629" on="0"/>
        <pt x="815" y="667" on="1"/>
      </contour>
      <contour>
        <pt x="417" y="388" on="1"/>
        <pt x="455" y="388" on="0"/>
        <pt x="494" y="399" on="1"/>
        <pt x="519" y="447" on="0"/>
        <pt x="569" y="555" on="0"/>
        <pt x="595" y="616" on="1"/>
        <pt x="640" y="724" on="0"/>
        <pt x="718" y="931" on="0"/>
        <pt x="776" y="1113" on="0"/>
        <pt x="809" y="1263" on="0"/>
        <pt x="809" y="1313" on="1"/>
        <pt x="809" y="1353" on="0"/>
        <pt x="785" y="1397" on="0"/>
        <pt x="759" y="1397" on="1"/>
        <pt x="730" y="1397" on="0"/>
        <pt x="626" y="1331" on="0"/>
        <pt x="504" y="1218" on="0"/>
        <pt x="377" y="1066" on="0"/>
        <pt x="274" y="894" on="0"/>
        <pt x="209" y="710" on="0"/>
        <pt x="209" y="622" on="1"/>
        <pt x="209" y="565" on="0"/>
        <pt x="243" y="478" on="0"/>
        <pt x="300" y="418" on="0"/>
        <pt x="376" y="388" on="0"/>
      </contour>
    </TTGlyph>
    <TTGlyph name="IJ" xMin="-40" yMin="-645" xMax="1949" yMax="1442">
      <component glyphName="I" x="0" y="0" flags="0x4"/>
      <component glyphName="J" x="914" y="0" flags="0x4"/>
    </TTGlyph>
    <TTGlyph name="Iacute" xMin="-40" yMin="-18" xMax="933" yMax="1728">
      <component glyphName="I" x="0" y="0" flags="0x204"/>
      <component glyphName="acute" x="469" y="690" flags="0x4"/>
    </TTGlyph>
    <TTGlyph name="Ibreve" xMin="-40" yMin="-18" xMax="1003" yMax="1726">
      <component glyphName="I" x="0" y="0" flags="0x204"/>
      <component glyphName="breve" x="469" y="690" flags="0x4"/>
    </TTGlyph>
    <TTGlyph name="Icircumflex" xMin="-40" yMin="-18" xMax="926" yMax="1726">
      <component glyphName="I" x="0" y="0" flags="0x204"/>
      <component glyphName="circumflex" x="469" y="690" flags="0x4"/>
    </TTGlyph>
    <TTGlyph name="Idieresis" xMin="-40" yMin="-18" xMax="948" yMax="1703">
      <component glyphName="I" x="0" y="0" flags="0x204"/>
      <component glyphName="dieresis" x="469" y="690" flags="0x4"/>
    </TTGlyph>
    <TTGlyph name="Idotaccent" xMin="-40" yMin="-18" xMax="894" yMax="1702">
      <component glyphName="I" x="0" y="0" flags="0x204"/>
      <component glyphName="dotaccent" x="469" y="690" flags="0x4"/>
    </TTGlyph>
    <TTGlyph name="Igrave" xMin="-40" yMin="-18" xMax="894" yMax="1728">
      <component glyphName="I" x="0" y="0" flags="0x204"/>
      <component glyphName="grave" x="469" y="690" flags="0x4"/>
    </TTGlyph>
    <TTGlyph name="Imacron" xMin="-40" yMin="-18" xMax="968" yMax="1666">
      <component glyphName="I" x="0" y="0" flags="0x204"/>
      <component glyphName="macron" x="469" y="690" flags="0x4"/>
    </TTGlyph>
    <TTGlyph name="Iogonek" xMin="-40" yMin="-297" xMax="894" yMax="1434">
      <contour>
        <pt x="178" y="-266" on="1"/>
        <pt x="152" y="-278" on="0"/>
        <pt x="85" y="-297" on="0"/>
        <pt x="53" y="-297" on="1"/>
        <pt x="4" y="-297" on="0"/>
        <pt x="-34" y="-254" on="0"/>
        <pt x="-34" y="-226" on="1"/>
        <pt x="-34" y="-193" on="0"/>
        <pt x="-2" y="-133" on="0"/>
        <pt x="51" y="-80" on="0"/>
        <pt x="117" y="-35" on="0"/>
        <pt x="150" y="-17" on="1"/>
        <pt x="145" y="-18" on="0"/>
        <pt x="138" y="-18" on="0"/>
        <pt x="133" y="-18" on="1"/>
        <pt x="53" y="-18" on="0"/>
        <pt x="-39" y="66" on="0"/>
        <pt x="-40" y="133" on="1"/>
        <pt x="58" y="195" on="1"/>
        <pt x="45" y="147" on="0"/>
        <pt x="45" y="113" on="1"/>
        <pt x="45" y="66" on="0"/>
        <pt x="87" y="24" on="0"/>
        <pt x="116" y="24" on="1"/>
        <pt x="192" y="24" on="0"/>
        <pt x="369" y="180" on="0"/>
        <pt x="463" y="344" on="1"/>
        <pt x="416" y="333" on="0"/>
        <pt x="368" y="333" on="1"/>
        <pt x="317" y="333" on="0"/>
        <pt x="214" y="367" on="0"/>
        <pt x="131" y="436" on="0"/>
        <pt x="79" y="543" on="0"/>
        <pt x="79" y="617" on="1"/>
        <pt x="79" y="719" on="0"/>
        <pt x="155" y="919" on="0"/>
        <pt x="278" y="1101" on="0"/>
        <pt x="432" y="1256" on="0"/>
        <pt x="587" y="1370" on="0"/>
        <pt x="729" y="1434" on="0"/>
        <pt x="779" y="1434" on="1"/>
        <pt x="828" y="1434" on="0"/>
        <pt x="894" y="1331" on="0"/>
        <pt x="894" y="1225" on="1"/>
        <pt x="894" y="1116" on="0"/>
        <pt x="802" y="786" on="0"/>
        <pt x="699" y="557" on="1"/>
        <pt x="692" y="543" on="0"/>
        <pt x="686" y="528" on="1"/>
        <pt x="718" y="559" on="0"/>
        <pt x="781" y="629" on="0"/>
        <pt x="815" y="667" on="1"/>
        <pt x="847" y="635" on="1"/>
        <pt x="793" y="574" on="0"/>
        <pt x="690" y="469" on="0"/>
        <pt x="636" y="429" on="1"/>
        <pt x="601" y="362" on="0"/>
        <pt x="515" y="225" on="0"/>
        <pt x="413" y="107" on="0"/>
        <pt x="294" y="16" on="0"/>
        <pt x="227" y="-4" on="1"/>
        <pt x="133" y="-56" on="0"/>
        <pt x="47" y="-159" on="0"/>
        <pt x="47" y="-206" on="1"/>
        <pt x="47" y="-234" on="0"/>
        <pt x="77" y="-257" on="0"/>
        <pt x="99" y="-257" on="1"/>
        <pt x="120" y="-257" on="0"/>
        <pt x="160" y="-244" on="0"/>
        <pt x="168" y="-241" on="1"/>
      </contour>
      <contour>
        <pt x="417" y="388" on="1"/>
        <pt x="455" y="388" on="0"/>
        <pt x="494" y="399" on="1"/>
        <pt x="519" y="447" on="0"/>
        <pt x="569" y="555" on="0"/>
        <pt x="595" y="616" on="1"/>
        <pt x="640" y="724" on="0"/>
        <pt x="718" y="931" on="0"/>
        <pt x="776" y="1113" on="0"/>
        <pt x="809" y="1263" on="0"/>
        <pt x="809" y="1313" on="1"/>
        <pt x="809" y="1353" on="0"/>
        <pt x="785" y="1397" on="0"/>
        <pt x="759" y="1397" on="1"/>
        <pt x="730" y="1397" on="0"/>
        <pt x="626" y="1331" on="0"/>
        <pt x="504" y="1218" on="0"/>
        <pt x="377" y="1066" on="0"/>
        <pt x="274" y="894" on="0"/>
        <pt x="209" y="710" on="0"/>
        <pt x="209" y="622" on="1"/>
        <pt x="209" y="565" on="0"/>
        <pt x="243" y="478" on="0"/>
        <pt x="300" y="418" on="0"/>
        <pt x="376" y="388" on="0"/>
      </contour>
    </TTGlyph>
    <TTGlyph name="Itilde" xMin="-40" yMin="-18" xMax="996" yMax="1717">
      <component glyphName="I" x="0" y="0" flags="0x204"/>
      <component glyphName="tilde" x="469" y="690" flags="0x4"/>
    </TTGlyph>
    <TTGlyph name="J" xMin="-120" yMin="-645" xMax="1035" yMax="1442">
      <contour>
        <pt x="640" y="-94" on="1"/>
        <pt x="617" y="-90" on="0"/>
        <pt x="573" y="-83" on="0"/>
        <pt x="553" y="-78" on="1"/>
        <pt x="492" y="-191" on="0"/>
        <pt x="360" y="-397" on="0"/>
        <pt x="220" y="-553" on="0"/>
        <pt x="75" y="-645" on="0"/>
        <pt x="1" y="-645" on="1"/>
        <pt x="-29" y="-645" on="0"/>
        <pt x="-74" y="-623" on="0"/>
        <pt x="-104" y="-585" on="0"/>
        <pt x="-120" y="-538" on="0"/>
        <pt x="-120" y="-512" on="1"/>
        <pt x="-120" y="-372" on="0"/>
        <pt x="61" y="-89" on="0"/>
        <pt x="258" y="54" on="1"/>
        <pt x="197" y="102" on="0"/>
        <pt x="118" y="215" on="0"/>
        <pt x="71" y="337" on="0"/>
        <pt x="53" y="462" on="0"/>
        <pt x="53" y="521" on="1"/>
        <pt x="53" y="654" on="0"/>
        <pt x="129" y="893" on="0"/>
        <pt x="256" y="1098" on="0"/>
        <pt x="421" y="1263" on="0"/>
        <pt x="600" y="1379" on="0"/>
        <pt x="780" y="1442" on="0"/>
        <pt x="858" y="1442" on="1"/>
        <pt x="895" y="1442" on="0"/>
        <pt x="960" y="1423" on="0"/>
        <pt x="1008" y="1373" on="0"/>
        <pt x="1035" y="1287" on="0"/>
        <pt x="1035" y="1220" on="1"/>
        <pt x="1035" y="1116" on="0"/>
        <pt x="950" y="790" on="0"/>
        <pt x="849" y="557" on="1"/>
        <pt x="826" y="506" on="0"/>
        <pt x="777" y="392" on="0"/>
        <pt x="749" y="329" on="1"/>
        <pt x="777" y="341" on="0"/>
        <pt x="833" y="366" on="0"/>
        <pt x="863" y="379" on="1"/>
        <pt x="879" y="337" on="1"/>
        <pt x="838" y="320" on="0"/>
        <pt x="760" y="285" on="0"/>
        <pt x="721" y="266" on="1"/>
        <pt x="688" y="192" on="0"/>
        <pt x="615" y="41" on="0"/>
        <pt x="576" y="-34" on="1"/>
        <pt x="595" y="-39" on="0"/>
        <pt x="634" y="-48" on="0"/>
        <pt x="654" y="-53" on="1"/>
      </contour>
      <contour>
        <pt x="190" y="527" on="1"/>
        <pt x="190" y="443" on="0"/>
        <pt x="206" y="308" on="0"/>
        <pt x="237" y="203" on="0"/>
        <pt x="283" y="122" on="0"/>
        <pt x="313" y="92" on="1"/>
        <pt x="378" y="135" on="0"/>
        <pt x="526" y="221" on="0"/>
        <pt x="612" y="264" on="1"/>
        <pt x="650" y="366" on="0"/>
        <pt x="715" y="547" on="0"/>
        <pt x="742" y="616" on="1"/>
        <pt x="785" y="726" on="0"/>
        <pt x="862" y="930" on="0"/>
        <pt x="919" y="1106" on="0"/>
        <pt x="952" y="1249" on="0"/>
        <pt x="952" y="1300" on="1"/>
        <pt x="952" y="1357" on="0"/>
        <pt x="911" y="1404" on="0"/>
        <pt x="864" y="1404" on="1"/>
        <pt x="799" y="1404" on="0"/>
        <pt x="649" y="1336" on="0"/>
        <pt x="499" y="1215" on="0"/>
        <pt x="360" y="1050" on="0"/>
        <pt x="254" y="855" on="0"/>
        <pt x="190" y="638" on="0"/>
      </contour>
      <contour>
        <pt x="372" y="-248" on="1"/>
        <pt x="400" y="-205" on="0"/>
        <pt x="452" y="-109" on="0"/>
        <pt x="477" y="-58" on="1"/>
        <pt x="428" y="-42" on="0"/>
        <pt x="345" y="-4" on="0"/>
        <pt x="309" y="18" on="1"/>
        <pt x="238" y="-37" on="0"/>
        <pt x="123" y="-155" on="0"/>
        <pt x="42" y="-278" on="0"/>
        <pt x="-3" y="-407" on="0"/>
        <pt x="-3" y="-473" on="1"/>
        <pt x="-3" y="-514" on="0"/>
        <pt x="33" y="-540" on="0"/>
        <pt x="52" y="-540" on="1"/>
        <pt x="108" y="-540" on="0"/>
        <pt x="272" y="-399" on="0"/>
      </contour>
      <contour>
        <pt x="358" y="55" on="1"/>
        <pt x="388" y="34" on="0"/>
        <pt x="458" y="2" on="0"/>
        <pt x="499" y="-12" on="1"/>
        <pt x="523" y="39" on="0"/>
        <pt x="567" y="144" on="0"/>
        <pt x="587" y="198" on="1"/>
        <pt x="526" y="164" on="0"/>
        <pt x="411" y="93" on="0"/>
      </contour>
    </TTGlyph>
    <TTGlyph name="Jcircumflex" xMin="-120" yMin="-645" xMax="1035" yMax="1734">
      <component glyphName="J" x="0" y="0" flags="0x204"/>
      <component glyphName="circumflex" x="550" y="698" flags="0x4"/>
    </TTGlyph>
    <TTGlyph name="K" xMin="50" yMin="-221" xMax="1483" yMax="1434">
      <contour>
        <pt x="1483" y="1291" on="1"/>
        <pt x="1394" y="1272" on="0"/>
        <pt x="1238" y="1214" on="0"/>
        <pt x="1101" y="1145" on="0"/>
        <pt x="986" y="1070" on="0"/>
        <pt x="939" y="1034" on="1"/>
        <pt x="829" y="949" on="0"/>
        <pt x="748" y="853" on="1"/>
        <pt x="746" y="809" on="0"/>
        <pt x="744" y="720" on="0"/>
        <pt x="745" y="666" on="1"/>
        <pt x="746" y="562" on="0"/>
        <pt x="753" y="359" on="0"/>
        <pt x="769" y="175" on="0"/>
        <pt x="796" y="20" on="0"/>
        <pt x="841" y="-94" on="0"/>
        <pt x="905" y="-158" on="0"/>
        <pt x="949" y="-158" on="1"/>
        <pt x="973" y="-158" on="0"/>
        <pt x="1009" y="-147" on="0"/>
        <pt x="1042" y="-127" on="0"/>
        <pt x="1076" y="-99" on="0"/>
        <pt x="1097" y="-82" on="1"/>
        <pt x="1123" y="-114" on="1"/>
        <pt x="1099" y="-136" on="0"/>
        <pt x="1051" y="-175" on="0"/>
        <pt x="999" y="-204" on="0"/>
        <pt x="938" y="-221" on="0"/>
        <pt x="900" y="-221" on="1"/>
        <pt x="852" y="-221" on="0"/>
        <pt x="771" y="-185" on="0"/>
        <pt x="706" y="-99" on="0"/>
        <pt x="659" y="45" on="0"/>
        <pt x="630" y="262" on="0"/>
        <pt x="620" y="560" on="0"/>
        <pt x="625" y="756" on="1"/>
        <pt x="625" y="770" on="0"/>
        <pt x="649" y="817" on="0"/>
        <pt x="675" y="850" on="1"/>
        <pt x="739" y="929" on="0"/>
        <pt x="928" y="1099" on="0"/>
        <pt x="1144" y="1257" on="0"/>
        <pt x="1367" y="1391" on="0"/>
        <pt x="1465" y="1434" on="1"/>
      </contour>
      <contour>
        <pt x="153" y="0" on="1"/>
        <pt x="576" y="989" on="1"/>
        <pt x="598" y="1042" on="0"/>
        <pt x="644" y="1149" on="0"/>
        <pt x="680" y="1246" on="0"/>
        <pt x="703" y="1328" on="0"/>
        <pt x="703" y="1356" on="1"/>
        <pt x="703" y="1374" on="0"/>
        <pt x="688" y="1397" on="0"/>
        <pt x="673" y="1397" on="1"/>
        <pt x="602" y="1386" on="0"/>
        <pt x="510" y="1329" on="1"/>
        <pt x="471" y="1305" on="0"/>
        <pt x="376" y="1231" on="0"/>
        <pt x="265" y="1124" on="0"/>
        <pt x="140" y="981" on="0"/>
        <pt x="71" y="887" on="1"/>
        <pt x="50" y="1022" on="1"/>
        <pt x="147" y="1122" on="0"/>
        <pt x="336" y="1275" on="0"/>
        <pt x="505" y="1380" on="0"/>
        <pt x="644" y="1434" on="0"/>
        <pt x="691" y="1434" on="1"/>
        <pt x="747" y="1434" on="0"/>
        <pt x="795" y="1367" on="0"/>
        <pt x="795" y="1315" on="1"/>
        <pt x="795" y="1281" on="0"/>
        <pt x="779" y="1202" on="0"/>
        <pt x="754" y="1117" on="0"/>
        <pt x="721" y="1030" on="0"/>
        <pt x="703" y="989" on="1"/>
        <pt x="277" y="0" on="1"/>
      </contour>
    </TTGlyph>
    <TTGlyph name="Kcommaaccent" xMin="50" yMin="-363" xMax="1483" yMax="1434">
      <component glyphName="K" x="0" y="0" flags="0x204"/>
      <component glyphName="commaaccent" x="372" y="0" flags="0x4"/>
    </TTGlyph>
    <TTGlyph name="L" xMin="-180" yMin="-18" xMax="1120" yMax="1434">
      <contour>
        <pt x="860" y="244" on="1"/>
        <pt x="831" y="155" on="0"/>
        <pt x="749" y="51" on="0"/>
        <pt x="662" y="-3" on="0"/>
        <pt x="578" y="-18" on="0"/>
        <pt x="545" y="-18" on="1"/>
        <pt x="495" y="-18" on="0"/>
        <pt x="410" y="8" on="0"/>
        <pt x="334" y="50" on="0"/>
        <pt x="268" y="103" on="0"/>
        <pt x="238" y="130" on="1"/>
        <pt x="183" y="64" on="0"/>
        <pt x="53" y="-15" on="0"/>
        <pt x="-25" y="-15" on="1"/>
        <pt x="-52" y="-15" on="0"/>
        <pt x="-107" y="2" on="0"/>
        <pt x="-152" y="37" on="0"/>
        <pt x="-180" y="92" on="0"/>
        <pt x="-180" y="130" on="1"/>
        <pt x="-180" y="169" on="0"/>
        <pt x="-147" y="241" on="0"/>
        <pt x="-88" y="296" on="0"/>
        <pt x="-7" y="328" on="0"/>
        <pt x="41" y="328" on="1"/>
        <pt x="89" y="328" on="0"/>
        <pt x="174" y="287" on="0"/>
        <pt x="216" y="257" on="1"/>
        <pt x="246" y="315" on="0"/>
        <pt x="300" y="450" on="0"/>
        <pt x="349" y="595" on="0"/>
        <pt x="393" y="743" on="0"/>
        <pt x="414" y="815" on="1"/>
        <pt x="452" y="949" on="0"/>
        <pt x="534" y="1145" on="0"/>
        <pt x="619" y="1282" on="0"/>
        <pt x="705" y="1369" on="0"/>
        <pt x="789" y="1417" on="0"/>
        <pt x="871" y="1434" on="0"/>
        <pt x="910" y="1434" on="1"/>
        <pt x="960" y="1434" on="0"/>
        <pt x="1038" y="1406" on="0"/>
        <pt x="1092" y="1357" on="0"/>
        <pt x="1120" y="1292" on="0"/>
        <pt x="1120" y="1255" on="1"/>
        <pt x="1120" y="1218" on="0"/>
        <pt x="1092" y="1151" on="0"/>
        <pt x="1044" y="1094" on="0"/>
        <pt x="979" y="1050" on="0"/>
        <pt x="943" y="1036" on="1"/>
        <pt x="913" y="1153" on="1"/>
        <pt x="939" y="1154" on="0"/>
        <pt x="992" y="1169" on="0"/>
        <pt x="1034" y="1199" on="0"/>
        <pt x="1061" y="1243" on="0"/>
        <pt x="1061" y="1274" on="1"/>
        <pt x="1061" y="1296" on="0"/>
        <pt x="1044" y="1341" on="0"/>
        <pt x="1007" y="1375" on="0"/>
        <pt x="947" y="1397" on="0"/>
        <pt x="904" y="1397" on="1"/>
        <pt x="855" y="1397" on="0"/>
        <pt x="772" y="1343" on="0"/>
        <pt x="702" y="1251" on="0"/>
        <pt x="644" y="1128" on="0"/>
        <pt x="594" y="992" on="0"/>
        <pt x="550" y="849" on="0"/>
        <pt x="531" y="782" on="1"/>
        <pt x="510" y="712" on="0"/>
        <pt x="460" y="559" on="0"/>
        <pt x="401" y="407" on="0"/>
        <pt x="331" y="262" on="0"/>
        <pt x="290" y="200" on="1"/>
        <pt x="319" y="178" on="0"/>
        <pt x="380" y="136" on="0"/>
        <pt x="447" y="104" on="0"/>
        <pt x="522" y="84" on="0"/>
        <pt x="564" y="84" on="1"/>
        <pt x="608" y="84" on="0"/>
        <pt x="686" y="96" on="0"/>
        <pt x="751" y="133" on="0"/>
        <pt x="801" y="201" on="0"/>
        <pt x="816" y="257" on="1"/>
      </contour>
      <contour>
        <pt x="-33" y="35" on="1"/>
        <pt x="28" y="35" on="0"/>
        <pt x="132" y="117" on="0"/>
        <pt x="177" y="187" on="1"/>
        <pt x="138" y="223" on="0"/>
        <pt x="63" y="272" on="0"/>
        <pt x="24" y="272" on="1"/>
        <pt x="-14" y="272" on="0"/>
        <pt x="-71" y="246" on="0"/>
        <pt x="-111" y="205" on="0"/>
        <pt x="-131" y="156" on="0"/>
        <pt x="-131" y="133" on="1"/>
        <pt x="-131" y="88" on="0"/>
        <pt x="-79" y="35" on="0"/>
      </contour>
    </TTGlyph>
    <TTGlyph name="Lacute" xMin="-180" yMin="-18" xMax="1120" yMax="1727">
      <component glyphName="L" x="0" y="0" flags="0x4"/>
      <component glyphName="acute" x="638" y="689" flags="0x4"/>
    </TTGlyph>
    <TTGlyph name="Lcaron" xMin="-180" yMin="-18" xMax="1360" yMax="1434">
      <component glyphName="L" x="0" y="0" flags="0x204"/>
      <component glyphName="commaaccent" x="1204" y="1527" flags="0x4"/>
    </TTGlyph>
    <TTGlyph name="Lcommaaccent" xMin="-180" yMin="-363" xMax="1120" yMax="1434">
      <component glyphName="L" x="0" y="0" flags="0x4"/>
      <component glyphName="commaaccent" x="174" y="0" flags="0x4"/>
    </TTGlyph>
    <TTGlyph name="Ldot" xMin="-180" yMin="-18" xMax="1120" yMax="1434">
      <component glyphName="L" x="0" y="0" flags="0x4"/>
      <component glyphName="periodcentered" x="679" y="0" flags="0x4"/>
    </TTGlyph>
    <TTGlyph name="Lslash" xMin="-180" yMin="-18" xMax="1120" yMax="1434">
      <contour>
        <pt x="860" y="244" on="1"/>
        <pt x="831" y="155" on="0"/>
        <pt x="749" y="51" on="0"/>
        <pt x="662" y="-3" on="0"/>
        <pt x="578" y="-18" on="0"/>
        <pt x="545" y="-18" on="1"/>
        <pt x="495" y="-18" on="0"/>
        <pt x="410" y="8" on="0"/>
        <pt x="334" y="50" on="0"/>
        <pt x="268" y="103" on="0"/>
        <pt x="238" y="130" on="1"/>
        <pt x="183" y="64" on="0"/>
        <pt x="53" y="-15" on="0"/>
        <pt x="-25" y="-15" on="1"/>
        <pt x="-52" y="-15" on="0"/>
        <pt x="-107" y="2" on="0"/>
        <pt x="-152" y="37" on="0"/>
        <pt x="-180" y="92" on="0"/>
        <pt x="-180" y="130" on="1"/>
        <pt x="-180" y="169" on="0"/>
        <pt x="-147" y="241" on="0"/>
        <pt x="-88" y="296" on="0"/>
        <pt x="-7" y="328" on="0"/>
        <pt x="41" y="328" on="1"/>
        <pt x="89" y="328" on="0"/>
        <pt x="174" y="287" on="0"/>
        <pt x="216" y="257" on="1"/>
        <pt x="252" y="327" on="0"/>
        <pt x="315" y="492" on="0"/>
        <pt x="344" y="581" on="1"/>
        <pt x="128" y="525" on="1"/>
        <pt x="140" y="593" on="1"/>
        <pt x="366" y="652" on="1"/>
        <pt x="378" y="694" on="0"/>
        <pt x="403" y="774" on="0"/>
        <pt x="414" y="815" on="1"/>
        <pt x="452" y="949" on="0"/>
        <pt x="534" y="1145" on="0"/>
        <pt x="619" y="1282" on="0"/>
        <pt x="705" y="1369" on="0"/>
        <pt x="789" y="1417" on="0"/>
        <pt x="871" y="1434" on="0"/>
        <pt x="910" y="1434" on="1"/>
        <pt x="960" y="1434" on="0"/>
        <pt x="1038" y="1406" on="0"/>
        <pt x="1092" y="1357" on="0"/>
        <pt x="1120" y="1292" on="0"/>
        <pt x="1120" y="1255" on="1"/>
        <pt x="1120" y="1218" on="0"/>
        <pt x="1092" y="1151" on="0"/>
        <pt x="1044" y="1094" on="0"/>
        <pt x="979" y="1050" on="0"/>
        <pt x="943" y="1036" on="1"/>
        <pt x="913" y="1153" on="1"/>
        <pt x="939" y="1154" on="0"/>
        <pt x="992" y="1169" on="0"/>
        <pt x="1034" y="1199" on="0"/>
        <pt x="1061" y="1243" on="0"/>
        <pt x="1061" y="1274" on="1"/>
        <pt x="1061" y="1296" on="0"/>
        <pt x="1044" y="1341" on="0"/>
        <pt x="1007" y="1375" on="0"/>
        <pt x="947" y="1397" on="0"/>
        <pt x="904" y="1397" on="1"/>
        <pt x="855" y="1397" on="0"/>
        <pt x="772" y="1343" on="0"/>
        <pt x="702" y="1251" on="0"/>
        <pt x="644" y="1128" on="0"/>
        <pt x="594" y="992" on="0"/>
        <pt x="550" y="849" on="0"/>
        <pt x="531" y="782" on="1"/>
        <pt x="524" y="759" on="0"/>
        <pt x="510" y="711" on="0"/>
        <pt x="502" y="687" on="1"/>
        <pt x="794" y="763" on="1"/>
        <pt x="782" y="695" on="1"/>
        <pt x="478" y="616" on="1"/>
        <pt x="441" y="507" on="0"/>
        <pt x="349" y="290" on="0"/>
        <pt x="290" y="200" on="1"/>
        <pt x="319" y="178" on="0"/>
        <pt x="380" y="136" on="0"/>
        <pt x="447" y="104" on="0"/>
        <pt x="522" y="84" on="0"/>
        <pt x="564" y="84" on="1"/>
        <pt x="608" y="84" on="0"/>
        <pt x="686" y="96" on="0"/>
        <pt x="751" y="133" on="0"/>
        <pt x="801" y="201" on="0"/>
        <pt x="816" y="257" on="1"/>
      </contour>
      <contour>
        <pt x="-33" y="35" on="1"/>
        <pt x="28" y="35" on="0"/>
        <pt x="132" y="117" on="0"/>
        <pt x="177" y="187" on="1"/>
        <pt x="138" y="223" on="0"/>
        <pt x="63" y="272" on="0"/>
        <pt x="24" y="272" on="1"/>
        <pt x="-14" y="272" on="0"/>
        <pt x="-71" y="246" on="0"/>
        <pt x="-111" y="205" on="0"/>
        <pt x="-131" y="156" on="0"/>
        <pt x="-131" y="133" on="1"/>
        <pt x="-131" y="88" on="0"/>
        <pt x="-79" y="35" on="0"/>
      </contour>
    </TTGlyph>
    <TTGlyph name="M" xMin="50" yMin="-218" xMax="1590" yMax="1524">
      <contour>
        <pt x="1029" y="704" on="1"/>
        <pt x="1102" y="819" on="0"/>
        <pt x="1235" y="978" on="0"/>
        <pt x="1350" y="1077" on="0"/>
        <pt x="1445" y="1122" on="0"/>
        <pt x="1482" y="1122" on="1"/>
        <pt x="1542" y="1122" on="0"/>
        <pt x="1590" y="1053" on="0"/>
        <pt x="1590" y="996" on="1"/>
        <pt x="1590" y="963" on="0"/>
        <pt x="1576" y="885" on="0"/>
        <pt x="1553" y="803" on="0"/>
        <pt x="1523" y="719" on="0"/>
        <pt x="1507" y="680" on="1"/>
        <pt x="1339" y="272" on="1"/>
        <pt x="1276" y="118" on="0"/>
        <pt x="1198" y="-79" on="0"/>
        <pt x="1198" y="-127" on="1"/>
        <pt x="1198" y="-147" on="0"/>
        <pt x="1215" y="-172" on="0"/>
        <pt x="1234" y="-172" on="1"/>
        <pt x="1241" y="-172" on="0"/>
        <pt x="1267" y="-163" on="0"/>
        <pt x="1304" y="-139" on="0"/>
        <pt x="1354" y="-95" on="0"/>
        <pt x="1384" y="-60" on="1"/>
        <pt x="1415" y="-87" on="1"/>
        <pt x="1377" y="-131" on="0"/>
        <pt x="1316" y="-183" on="0"/>
        <pt x="1266" y="-210" on="0"/>
        <pt x="1226" y="-218" on="0"/>
        <pt x="1209" y="-218" on="1"/>
        <pt x="1176" y="-218" on="0"/>
        <pt x="1131" y="-197" on="0"/>
        <pt x="1104" y="-162" on="0"/>
        <pt x="1092" y="-117" on="0"/>
        <pt x="1092" y="-93" on="1"/>
        <pt x="1092" y="-54" on="0"/>
        <pt x="1113" y="35" on="0"/>
        <pt x="1146" y="130" on="0"/>
        <pt x="1187" y="227" on="0"/>
        <pt x="1207" y="272" on="1"/>
        <pt x="1381" y="680" on="1"/>
        <pt x="1403" y="732" on="0"/>
        <pt x="1448" y="839" on="0"/>
        <pt x="1483" y="937" on="0"/>
        <pt x="1505" y="1018" on="0"/>
        <pt x="1505" y="1045" on="1"/>
        <pt x="1505" y="1065" on="0"/>
        <pt x="1491" y="1087" on="0"/>
        <pt x="1474" y="1087" on="1"/>
        <pt x="1411" y="1077" on="0"/>
        <pt x="1328" y="1008" on="1"/>
        <pt x="1293" y="979" on="0"/>
        <pt x="1206" y="889" on="0"/>
        <pt x="1106" y="757" on="0"/>
        <pt x="991" y="579" on="0"/>
        <pt x="928" y="462" on="1"/>
        <pt x="736" y="0" on="1"/>
        <pt x="607" y="0" on="1"/>
        <pt x="998" y="934" on="1"/>
        <pt x="1020" y="987" on="0"/>
        <pt x="1065" y="1095" on="0"/>
        <pt x="1102" y="1192" on="0"/>
        <pt x="1125" y="1274" on="0"/>
        <pt x="1125" y="1301" on="1"/>
        <pt x="1125" y="1343" on="0"/>
        <pt x="1095" y="1343" on="1"/>
        <pt x="1031" y="1334" on="0"/>
        <pt x="947" y="1264" on="1"/>
        <pt x="911" y="1234" on="0"/>
        <pt x="825" y="1143" on="0"/>
        <pt x="724" y="1009" on="0"/>
        <pt x="609" y="828" on="0"/>
        <pt x="545" y="710" on="1"/>
        <pt x="241" y="0" on="1"/>
        <pt x="116" y="0" on="1"/>
        <pt x="576" y="1079" on="1"/>
        <pt x="598" y="1132" on="0"/>
        <pt x="644" y="1240" on="0"/>
        <pt x="680" y="1337" on="0"/>
        <pt x="703" y="1419" on="0"/>
        <pt x="703" y="1446" on="1"/>
        <pt x="703" y="1487" on="0"/>
        <pt x="673" y="1487" on="1"/>
        <pt x="602" y="1479" on="0"/>
        <pt x="510" y="1424" on="1"/>
        <pt x="471" y="1400" on="0"/>
        <pt x="375" y="1328" on="0"/>
        <pt x="264" y="1223" on="0"/>
        <pt x="139" y="1081" on="0"/>
        <pt x="70" y="987" on="1"/>
        <pt x="50" y="1112" on="1"/>
        <pt x="147" y="1212" on="0"/>
        <pt x="336" y="1365" on="0"/>
        <pt x="505" y="1470" on="0"/>
        <pt x="644" y="1524" on="0"/>
        <pt x="691" y="1524" on="1"/>
        <pt x="748" y="1524" on="0"/>
        <pt x="795" y="1459" on="0"/>
        <pt x="795" y="1405" on="1"/>
        <pt x="795" y="1371" on="0"/>
        <pt x="779" y="1291" on="0"/>
        <pt x="753" y="1206" on="0"/>
        <pt x="720" y="1119" on="0"/>
        <pt x="703" y="1079" on="1"/>
        <pt x="656" y="970" on="1"/>
        <pt x="729" y="1081" on="0"/>
        <pt x="863" y="1237" on="0"/>
        <pt x="979" y="1334" on="0"/>
        <pt x="1076" y="1378" on="0"/>
        <pt x="1113" y="1378" on="1"/>
        <pt x="1170" y="1378" on="0"/>
        <pt x="1216" y="1313" on="0"/>
        <pt x="1216" y="1260" on="1"/>
        <pt x="1216" y="1226" on="0"/>
        <pt x="1200" y="1146" on="0"/>
        <pt x="1175" y="1061" on="0"/>
        <pt x="1142" y="974" on="0"/>
        <pt x="1125" y="934" on="1"/>
      </contour>
    </TTGlyph>
    <TTGlyph name="N" xMin="50" yMin="-199" xMax="1309" yMax="1542">
      <contour>
        <pt x="1092" y="954" on="1"/>
        <pt x="1114" y="1007" on="0"/>
        <pt x="1161" y="1114" on="0"/>
        <pt x="1199" y="1212" on="0"/>
        <pt x="1223" y="1287" on="0"/>
        <pt x="1223" y="1314" on="1"/>
        <pt x="1223" y="1334" on="0"/>
        <pt x="1204" y="1356" on="0"/>
        <pt x="1188" y="1356" on="1"/>
        <pt x="1108" y="1356" on="0"/>
        <pt x="1005" y="1283" on="1"/>
        <pt x="961" y="1252" on="0"/>
        <pt x="855" y="1153" on="0"/>
        <pt x="736" y="1014" on="0"/>
        <pt x="605" y="827" on="0"/>
        <pt x="535" y="704" on="1"/>
        <pt x="235" y="0" on="1"/>
        <pt x="110" y="0" on="1"/>
        <pt x="576" y="1098" on="1"/>
        <pt x="598" y="1150" on="0"/>
        <pt x="641" y="1256" on="0"/>
        <pt x="674" y="1352" on="0"/>
        <pt x="695" y="1433" on="0"/>
        <pt x="695" y="1461" on="1"/>
        <pt x="695" y="1507" on="0"/>
        <pt x="663" y="1507" on="1"/>
        <pt x="595" y="1500" on="0"/>
        <pt x="505" y="1445" on="1"/>
        <pt x="467" y="1422" on="0"/>
        <pt x="373" y="1349" on="0"/>
        <pt x="263" y="1244" on="0"/>
        <pt x="139" y="1101" on="0"/>
        <pt x="70" y="1008" on="1"/>
        <pt x="50" y="1130" on="1"/>
        <pt x="147" y="1230" on="0"/>
        <pt x="333" y="1384" on="0"/>
        <pt x="498" y="1488" on="0"/>
        <pt x="634" y="1542" on="0"/>
        <pt x="681" y="1542" on="1"/>
        <pt x="740" y="1542" on="0"/>
        <pt x="789" y="1471" on="0"/>
        <pt x="789" y="1415" on="1"/>
        <pt x="789" y="1381" on="0"/>
        <pt x="775" y="1303" on="0"/>
        <pt x="751" y="1221" on="0"/>
        <pt x="720" y="1137" on="0"/>
        <pt x="703" y="1098" on="1"/>
        <pt x="624" y="914" on="1"/>
        <pt x="723" y="1058" on="0"/>
        <pt x="891" y="1245" on="0"/>
        <pt x="1033" y="1354" on="0"/>
        <pt x="1151" y="1397" on="0"/>
        <pt x="1201" y="1397" on="1"/>
        <pt x="1255" y="1397" on="0"/>
        <pt x="1309" y="1328" on="0"/>
        <pt x="1309" y="1271" on="1"/>
        <pt x="1309" y="1238" on="0"/>
        <pt x="1295" y="1160" on="0"/>
        <pt x="1271" y="1078" on="0"/>
        <pt x="1240" y="993" on="0"/>
        <pt x="1224" y="954" on="1"/>
        <pt x="943" y="291" on="1"/>
        <pt x="878" y="138" on="0"/>
        <pt x="802" y="-60" on="0"/>
        <pt x="802" y="-108" on="1"/>
        <pt x="802" y="-128" on="0"/>
        <pt x="819" y="-153" on="0"/>
        <pt x="838" y="-153" on="1"/>
        <pt x="845" y="-153" on="0"/>
        <pt x="871" y="-144" on="0"/>
        <pt x="908" y="-120" on="0"/>
        <pt x="958" y="-76" on="0"/>
        <pt x="988" y="-41" on="1"/>
        <pt x="1019" y="-68" on="1"/>
        <pt x="981" y="-112" on="0"/>
        <pt x="920" y="-164" on="0"/>
        <pt x="870" y="-191" on="0"/>
        <pt x="830" y="-199" on="0"/>
        <pt x="813" y="-199" on="1"/>
        <pt x="780" y="-199" on="0"/>
        <pt x="735" y="-178" on="0"/>
        <pt x="708" y="-143" on="0"/>
        <pt x="696" y="-98" on="0"/>
        <pt x="696" y="-74" on="1"/>
        <pt x="696" y="-35" on="0"/>
        <pt x="717" y="54" on="0"/>
        <pt x="750" y="149" on="0"/>
        <pt x="791" y="246" on="0"/>
        <pt x="811" y="291" on="1"/>
      </contour>
    </TTGlyph>
    <TTGlyph name="Nacute" xMin="50" yMin="-199" xMax="1309" yMax="1733">
      <component glyphName="N" x="0" y="0" flags="0x204"/>
      <component glyphName="acute" x="772" y="695" flags="0x4"/>
    </TTGlyph>
    <TTGlyph name="Ncaron" xMin="50" yMin="-199" xMax="1309" yMax="1731">
      <component glyphName="N" x="0" y="0" flags="0x204"/>
      <component glyphName="caron" x="772" y="695" flags="0x4"/>
    </TTGlyph>
    <TTGlyph name="Ncommaaccent" xMin="50" yMin="-363" xMax="1309" yMax="1542">
      <component glyphName="N" x="0" y="0" flags="0x204"/>
      <component glyphName="commaaccent" x="338" y="0" flags="0x4"/>
    </TTGlyph>
    <TTGlyph name="Ntilde" xMin="50" yMin="-199" xMax="1309" yMax="1722">
      <component glyphName="N" x="0" y="0" flags="0x204"/>
      <component glyphName="tilde" x="772" y="695" flags="0x4"/>
    </TTGlyph>
    <TTGlyph name="O" xMin="15" yMin="-27" xMax="1147" yMax="1436">
      <contour>
        <pt x="1039" y="1131" on="1"/>
        <pt x="1039" y="1153" on="0"/>
        <pt x="1035" y="1211" on="0"/>
        <pt x="1025" y="1271" on="0"/>
        <pt x="1005" y="1328" on="0"/>
        <pt x="973" y="1373" on="0"/>
        <pt x="927" y="1401" on="0"/>
        <pt x="895" y="1401" on="1"/>
        <pt x="850" y="1401" on="0"/>
        <pt x="761" y="1346" on="0"/>
        <pt x="679" y="1252" on="0"/>
        <pt x="608" y="1126" on="0"/>
        <pt x="556" y="984" on="0"/>
        <pt x="526" y="833" on="0"/>
        <pt x="526" y="762" on="1"/>
        <pt x="526" y="655" on="0"/>
        <pt x="587" y="549" on="0"/>
        <pt x="659" y="549" on="1"/>
        <pt x="684" y="549" on="0"/>
        <pt x="723" y="561" on="0"/>
        <pt x="750" y="577" on="0"/>
        <pt x="766" y="593" on="0"/>
        <pt x="768" y="598" on="1"/>
        <pt x="778" y="571" on="1"/>
        <pt x="758" y="541" on="0"/>
        <pt x="712" y="506" on="0"/>
        <pt x="666" y="487" on="0"/>
        <pt x="626" y="481" on="0"/>
        <pt x="612" y="481" on="1"/>
        <pt x="524" y="481" on="0"/>
        <pt x="426" y="624" on="0"/>
        <pt x="426" y="755" on="1"/>
        <pt x="426" y="827" on="0"/>
        <pt x="468" y="984" on="0"/>
        <pt x="541" y="1135" on="0"/>
        <pt x="637" y="1272" on="0"/>
        <pt x="744" y="1375" on="0"/>
        <pt x="856" y="1436" on="0"/>
        <pt x="909" y="1436" on="1"/>
        <pt x="945" y="1436" on="0"/>
        <pt x="1028" y="1400" on="0"/>
        <pt x="1100" y="1313" on="0"/>
        <pt x="1147" y="1167" on="0"/>
        <pt x="1147" y="1057" on="1"/>
        <pt x="1147" y="917" on="0"/>
        <pt x="1071" y="648" on="0"/>
        <pt x="943" y="407" on="0"/>
        <pt x="775" y="203" on="0"/>
        <pt x="590" y="56" on="0"/>
        <pt x="401" y="-27" on="0"/>
        <pt x="316" y="-27" on="1"/>
        <pt x="247" y="-27" on="0"/>
        <pt x="135" y="30" on="0"/>
        <pt x="57" y="132" on="0"/>
        <pt x="15" y="273" on="0"/>
        <pt x="15" y="358" on="1"/>
        <pt x="15" y="437" on="0"/>
        <pt x="44" y="616" on="0"/>
        <pt x="78" y="713" on="1"/>
        <pt x="109" y="801" on="0"/>
        <pt x="184" y="950" on="0"/>
        <pt x="264" y="1073" on="0"/>
        <pt x="347" y="1171" on="0"/>
        <pt x="385" y="1209" on="1"/>
        <pt x="475" y="1298" on="0"/>
        <pt x="569" y="1352" on="1"/>
        <pt x="587" y="1329" on="1"/>
        <pt x="526" y="1277" on="0"/>
        <pt x="464" y="1192" on="1"/>
        <pt x="437" y="1156" on="0"/>
        <pt x="378" y="1061" on="0"/>
        <pt x="316" y="944" on="0"/>
        <pt x="254" y="801" on="0"/>
        <pt x="225" y="717" on="1"/>
        <pt x="187" y="608" on="0"/>
        <pt x="149" y="411" on="0"/>
        <pt x="149" y="328" on="1"/>
        <pt x="149" y="262" on="0"/>
        <pt x="174" y="153" on="0"/>
        <pt x="222" y="76" on="0"/>
        <pt x="290" y="33" on="0"/>
        <pt x="333" y="33" on="1"/>
        <pt x="398" y="33" on="0"/>
        <pt x="553" y="129" on="0"/>
        <pt x="710" y="294" on="0"/>
        <pt x="857" y="512" on="0"/>
        <pt x="971" y="756" on="0"/>
        <pt x="1039" y="1012" on="0"/>
      </contour>
    </TTGlyph>
    <TTGlyph name="OE" xMin="15" yMin="-27" xMax="1694" yMax="1436">
      <contour>
        <pt x="1039" y="1131" on="1"/>
        <pt x="1039" y="1153" on="0"/>
        <pt x="1035" y="1211" on="0"/>
        <pt x="1025" y="1271" on="0"/>
        <pt x="1005" y="1328" on="0"/>
        <pt x="973" y="1373" on="0"/>
        <pt x="927" y="1401" on="0"/>
        <pt x="895" y="1401" on="1"/>
        <pt x="850" y="1401" on="0"/>
        <pt x="761" y="1346" on="0"/>
        <pt x="679" y="1252" on="0"/>
        <pt x="608" y="1126" on="0"/>
        <pt x="556" y="984" on="0"/>
        <pt x="526" y="833" on="0"/>
        <pt x="526" y="762" on="1"/>
        <pt x="526" y="655" on="0"/>
        <pt x="587" y="549" on="0"/>
        <pt x="659" y="549" on="1"/>
        <pt x="684" y="549" on="0"/>
        <pt x="723" y="561" on="0"/>
        <pt x="750" y="577" on="0"/>
        <pt x="766" y="593" on="0"/>
        <pt x="768" y="598" on="1"/>
        <pt x="778" y="571" on="1"/>
        <pt x="758" y="541" on="0"/>
        <pt x="712" y="506" on="0"/>
        <pt x="666" y="487" on="0"/>
        <pt x="626" y="481" on="0"/>
        <pt x="612" y="481" on="1"/>
        <pt x="524" y="481" on="0"/>
        <pt x="426" y="624" on="0"/>
        <pt x="426" y="755" on="1"/>
        <pt x="426" y="827" on="0"/>
        <pt x="468" y="984" on="0"/>
        <pt x="541" y="1135" on="0"/>
        <pt x="637" y="1272" on="0"/>
        <pt x="744" y="1375" on="0"/>
        <pt x="856" y="1436" on="0"/>
        <pt x="909" y="1436" on="1"/>
        <pt x="945" y="1436" on="0"/>
        <pt x="1028" y="1400" on="0"/>
        <pt x="1100" y="1313" on="0"/>
        <pt x="1147" y="1167" on="0"/>
        <pt x="1147" y="1057" on="1"/>
        <pt x="1147" y="1051" on="0"/>
        <pt x="1146" y="1038" on="0"/>
        <pt x="1146" y="1032" on="1"/>
        <pt x="1157" y="1034" on="0"/>
        <pt x="1177" y="1037" on="0"/>
        <pt x="1188" y="1039" on="1"/>
        <pt x="1199" y="1108" on="0"/>
        <pt x="1268" y="1249" on="0"/>
        <pt x="1370" y="1363" on="0"/>
        <pt x="1501" y="1435" on="0"/>
        <pt x="1575" y="1435" on="1"/>
        <pt x="1627" y="1435" on="0"/>
        <pt x="1694" y="1366" on="0"/>
        <pt x="1694" y="1312" on="1"/>
        <pt x="1694" y="1265" on="0"/>
        <pt x="1640" y="1180" on="0"/>
        <pt x="1537" y="1105" on="0"/>
        <pt x="1388" y="1042" on="0"/>
        <pt x="1292" y="1018" on="1"/>
        <pt x="1297" y="995" on="0"/>
        <pt x="1312" y="954" on="0"/>
        <pt x="1327" y="915" on="0"/>
        <pt x="1337" y="877" on="0"/>
        <pt x="1337" y="856" on="1"/>
        <pt x="1337" y="794" on="0"/>
        <pt x="1277" y="710" on="0"/>
        <pt x="1187" y="643" on="0"/>
        <pt x="1082" y="581" on="0"/>
        <pt x="992" y="500" on="0"/>
        <pt x="932" y="387" on="0"/>
        <pt x="932" y="303" on="1"/>
        <pt x="932" y="237" on="0"/>
        <pt x="981" y="139" on="0"/>
        <pt x="1059" y="73" on="0"/>
        <pt x="1154" y="41" on="0"/>
        <pt x="1199" y="41" on="1"/>
        <pt x="1229" y="41" on="0"/>
        <pt x="1300" y="48" on="0"/>
        <pt x="1388" y="79" on="0"/>
        <pt x="1494" y="141" on="0"/>
        <pt x="1557" y="196" on="1"/>
        <pt x="1583" y="164" on="1"/>
        <pt x="1515" y="107" on="0"/>
        <pt x="1399" y="36" on="0"/>
        <pt x="1294" y="-4" on="0"/>
        <pt x="1195" y="-18" on="0"/>
        <pt x="1144" y="-18" on="1"/>
        <pt x="1077" y="-18" on="0"/>
        <pt x="958" y="15" on="0"/>
        <pt x="865" y="79" on="0"/>
        <pt x="805" y="174" on="0"/>
        <pt x="798" y="236" on="1"/>
        <pt x="741" y="176" on="0"/>
        <pt x="618" y="78" on="0"/>
        <pt x="494" y="10" on="0"/>
        <pt x="372" y="-27" on="0"/>
        <pt x="316" y="-27" on="1"/>
        <pt x="247" y="-27" on="0"/>
        <pt x="135" y="30" on="0"/>
        <pt x="57" y="132" on="0"/>
        <pt x="15" y="273" on="0"/>
        <pt x="15" y="358" on="1"/>
        <pt x="15" y="437" on="0"/>
        <pt x="44" y="616" on="0"/>
        <pt x="78" y="713" on="1"/>
        <pt x="109" y="801" on="0"/>
        <pt x="184" y="950" on="0"/>
        <pt x="264" y="1073" on="0"/>
        <pt x="347" y="1171" on="0"/>
        <pt x="385" y="1209" on="1"/>
        <pt x="475" y="1298" on="0"/>
        <pt x="569" y="1352" on="1"/>
        <pt x="587" y="1329" on="1"/>
        <pt x="526" y="1277" on="0"/>
        <pt x="464" y="1192" on="1"/>
        <pt x="437" y="1156" on="0"/>
        <pt x="378" y="1061" on="0"/>
        <pt x="316" y="944" on="0"/>
        <pt x="254" y="801" on="0"/>
        <pt x="225" y="717" on="1"/>
        <pt x="187" y="608" on="0"/>
        <pt x="149" y="411" on="0"/>
        <pt x="149" y="328" on="1"/>
        <pt x="149" y="262" on="0"/>
        <pt x="174" y="153" on="0"/>
        <pt x="222" y="76" on="0"/>
        <pt x="290" y="33" on="0"/>
        <pt x="333" y="33" on="1"/>
        <pt x="398" y="33" on="0"/>
        <pt x="553" y="129" on="0"/>
        <pt x="710" y="294" on="0"/>
        <pt x="857" y="512" on="0"/>
        <pt x="971" y="756" on="0"/>
        <pt x="1039" y="1012" on="0"/>
      </contour>
      <contour>
        <pt x="1287" y="1060" on="1"/>
        <pt x="1440" y="1098" on="0"/>
        <pt x="1597" y="1228" on="0"/>
        <pt x="1597" y="1317" on="1"/>
        <pt x="1597" y="1355" on="0"/>
        <pt x="1561" y="1390" on="0"/>
        <pt x="1528" y="1390" on="1"/>
        <pt x="1498" y="1390" on="0"/>
        <pt x="1416" y="1345" on="0"/>
        <pt x="1340" y="1263" on="0"/>
        <pt x="1287" y="1145" on="0"/>
        <pt x="1287" y="1072" on="1"/>
      </contour>
      <contour>
        <pt x="1144" y="988" on="1"/>
        <pt x="1138" y="895" on="0"/>
        <pt x="1092" y="718" on="0"/>
        <pt x="1057" y="633" on="1"/>
        <pt x="1090" y="653" on="0"/>
        <pt x="1148" y="690" on="0"/>
        <pt x="1193" y="729" on="0"/>
        <pt x="1219" y="770" on="0"/>
        <pt x="1219" y="794" on="1"/>
        <pt x="1219" y="808" on="0"/>
        <pt x="1208" y="841" on="0"/>
        <pt x="1194" y="885" on="0"/>
        <pt x="1183" y="941" on="0"/>
        <pt x="1183" y="978" on="1"/>
        <pt x="1183" y="994" on="1"/>
        <pt x="1174" y="992" on="0"/>
        <pt x="1154" y="990" on="0"/>
      </contour>
    </TTGlyph>
    <TTGlyph name="Oacute" xMin="15" yMin="-27" xMax="1147" yMax="1731">
      <component glyphName="O" x="0" y="0" flags="0x204"/>
      <component glyphName="acute" x="589" y="693" flags="0x4"/>
    </TTGlyph>
    <TTGlyph name="Obreve" xMin="15" yMin="-27" xMax="1147" yMax="1729">
      <component glyphName="O" x="0" y="0" flags="0x204"/>
      <component glyphName="breve" x="589" y="693" flags="0x4"/>
    </TTGlyph>
    <TTGlyph name="Ocircumflex" xMin="15" yMin="-27" xMax="1147" yMax="1729">
      <component glyphName="O" x="0" y="0" flags="0x204"/>
      <component glyphName="circumflex" x="589" y="693" flags="0x4"/>
    </TTGlyph>
    <TTGlyph name="Odieresis" xMin="15" yMin="-27" xMax="1147" yMax="1706">
      <component glyphName="O" x="0" y="0" flags="0x204"/>
      <component glyphName="dieresis" x="589" y="693" flags="0x4"/>
    </TTGlyph>
    <TTGlyph name="Ograve" xMin="15" yMin="-27" xMax="1147" yMax="1731">
      <component glyphName="O" x="0" y="0" flags="0x204"/>
      <component glyphName="grave" x="589" y="693" flags="0x4"/>
    </TTGlyph>
    <TTGlyph name="Ohungarumlaut" xMin="15" yMin="-27" xMax="1174" yMax="1731">
      <component glyphName="O" x="0" y="0" flags="0x204"/>
      <component glyphName="hungarumlaut" x="589" y="693" flags="0x4"/>
    </TTGlyph>
    <TTGlyph name="Omacron" xMin="15" yMin="-27" xMax="1147" yMax="1669">
      <component glyphName="O" x="0" y="0" flags="0x204"/>
      <component glyphName="macron" x="589" y="693" flags="0x4"/>
    </TTGlyph>
    <TTGlyph name="Oslash" xMin="-6" yMin="-150" xMax="1166" yMax="1537">
      <contour>
        <pt x="1066" y="1354" on="1"/>
        <pt x="1101" y="1309" on="0"/>
        <pt x="1147" y="1166" on="0"/>
        <pt x="1147" y="1057" on="1"/>
        <pt x="1147" y="917" on="0"/>
        <pt x="1071" y="648" on="0"/>
        <pt x="943" y="407" on="0"/>
        <pt x="775" y="203" on="0"/>
        <pt x="590" y="56" on="0"/>
        <pt x="401" y="-27" on="0"/>
        <pt x="316" y="-27" on="1"/>
        <pt x="271" y="-27" on="0"/>
        <pt x="194" y="-4" on="0"/>
        <pt x="162" y="18" on="1"/>
        <pt x="48" y="-150" on="1"/>
        <pt x="-6" y="-115" on="1"/>
        <pt x="113" y="60" on="1"/>
        <pt x="65" y="112" on="0"/>
        <pt x="15" y="264" on="0"/>
        <pt x="15" y="358" on="1"/>
        <pt x="15" y="437" on="0"/>
        <pt x="44" y="616" on="0"/>
        <pt x="78" y="713" on="1"/>
        <pt x="109" y="801" on="0"/>
        <pt x="184" y="950" on="0"/>
        <pt x="264" y="1073" on="0"/>
        <pt x="347" y="1171" on="0"/>
        <pt x="385" y="1209" on="1"/>
        <pt x="475" y="1298" on="0"/>
        <pt x="569" y="1352" on="1"/>
        <pt x="587" y="1329" on="1"/>
        <pt x="526" y="1277" on="0"/>
        <pt x="464" y="1192" on="1"/>
        <pt x="437" y="1156" on="0"/>
        <pt x="378" y="1061" on="0"/>
        <pt x="316" y="944" on="0"/>
        <pt x="254" y="801" on="0"/>
        <pt x="225" y="717" on="1"/>
        <pt x="187" y="608" on="0"/>
        <pt x="149" y="411" on="0"/>
        <pt x="149" y="328" on="1"/>
        <pt x="149" y="229" on="0"/>
        <pt x="177" y="156" on="1"/>
        <pt x="462" y="576" on="1"/>
        <pt x="445" y="610" on="0"/>
        <pt x="426" y="699" on="0"/>
        <pt x="426" y="755" on="1"/>
        <pt x="426" y="827" on="0"/>
        <pt x="468" y="984" on="0"/>
        <pt x="541" y="1135" on="0"/>
        <pt x="637" y="1272" on="0"/>
        <pt x="744" y="1375" on="0"/>
        <pt x="856" y="1436" on="0"/>
        <pt x="909" y="1436" on="1"/>
        <pt x="935" y="1436" on="0"/>
        <pt x="991" y="1418" on="0"/>
        <pt x="1019" y="1398" on="1"/>
        <pt x="1113" y="1537" on="1"/>
        <pt x="1166" y="1501" on="1"/>
      </contour>
      <contour>
        <pt x="1039" y="1131" on="1"/>
        <pt x="1039" y="1162" on="0"/>
        <pt x="1031" y="1245" on="0"/>
        <pt x="1019" y="1285" on="1"/>
        <pt x="557" y="602" on="1"/>
        <pt x="588" y="549" on="0"/>
        <pt x="659" y="549" on="1"/>
        <pt x="684" y="549" on="0"/>
        <pt x="723" y="561" on="0"/>
        <pt x="750" y="577" on="0"/>
        <pt x="766" y="593" on="0"/>
        <pt x="768" y="598" on="1"/>
        <pt x="778" y="571" on="1"/>
        <pt x="758" y="541" on="0"/>
        <pt x="712" y="506" on="0"/>
        <pt x="666" y="487" on="0"/>
        <pt x="626" y="481" on="0"/>
        <pt x="612" y="481" on="1"/>
        <pt x="545" y="481" on="0"/>
        <pt x="502" y="521" on="1"/>
        <pt x="213" y="93" on="1"/>
        <pt x="259" y="33" on="0"/>
        <pt x="333" y="33" on="1"/>
        <pt x="398" y="33" on="0"/>
        <pt x="553" y="129" on="0"/>
        <pt x="710" y="294" on="0"/>
        <pt x="857" y="512" on="0"/>
        <pt x="971" y="756" on="0"/>
        <pt x="1039" y="1012" on="0"/>
      </contour>
      <contour>
        <pt x="526" y="762" on="1"/>
        <pt x="526" y="739" on="0"/>
        <pt x="528" y="697" on="0"/>
        <pt x="531" y="679" on="1"/>
        <pt x="988" y="1352" on="1"/>
        <pt x="971" y="1374" on="0"/>
        <pt x="927" y="1401" on="0"/>
        <pt x="895" y="1401" on="1"/>
        <pt x="850" y="1401" on="0"/>
        <pt x="761" y="1346" on="0"/>
        <pt x="679" y="1252" on="0"/>
        <pt x="608" y="1126" on="0"/>
        <pt x="556" y="984" on="0"/>
        <pt x="526" y="833" on="0"/>
      </contour>
    </TTGlyph>
    <TTGlyph name="Oslashacute" xMin="-6" yMin="-150" xMax="1166" yMax="1730">
      <component glyphName="Oslash" x="0" y="0" flags="0x204"/>
      <component glyphName="acute" x="597" y="692" flags="0x4"/>
    </TTGlyph>
    <TTGlyph name="Otilde" xMin="15" yMin="-27" xMax="1147" yMax="1720">
      <component glyphName="O" x="0" y="0" flags="0x204"/>
      <component glyphName="tilde" x="589" y="693" flags="0x4"/>
    </TTGlyph>
    <TTGlyph name="P" xMin="-100" yMin="0" xMax="1181" yMax="1436">
      <contour>
        <pt x="-100" y="0" on="1"/>
        <pt x="79" y="427" on="1"/>
        <pt x="23" y="427" on="1"/>
        <pt x="0" y="427" on="0"/>
        <pt x="-42" y="428" on="0"/>
        <pt x="-59" y="428" on="1"/>
        <pt x="-2" y="525" on="1"/>
        <pt x="30" y="523" on="0"/>
        <pt x="90" y="523" on="0"/>
        <pt x="119" y="523" on="1"/>
        <pt x="308" y="971" on="1"/>
        <pt x="354" y="1080" on="0"/>
        <pt x="480" y="1253" on="0"/>
        <pt x="629" y="1373" on="0"/>
        <pt x="794" y="1436" on="0"/>
        <pt x="879" y="1436" on="1"/>
        <pt x="931" y="1436" on="0"/>
        <pt x="1039" y="1402" on="0"/>
        <pt x="1126" y="1332" on="0"/>
        <pt x="1181" y="1227" on="0"/>
        <pt x="1181" y="1155" on="1"/>
        <pt x="1181" y="1071" on="0"/>
        <pt x="1113" y="911" on="0"/>
        <pt x="992" y="765" on="0"/>
        <pt x="826" y="636" on="0"/>
        <pt x="729" y="582" on="1"/>
        <pt x="660" y="543" on="0"/>
        <pt x="523" y="490" on="0"/>
        <pt x="391" y="456" on="0"/>
        <pt x="267" y="436" on="0"/>
        <pt x="210" y="432" on="1"/>
        <pt x="29" y="0" on="1"/>
      </contour>
      <contour>
        <pt x="248" y="525" on="1"/>
        <pt x="330" y="528" on="0"/>
        <pt x="467" y="545" on="0"/>
        <pt x="582" y="570" on="0"/>
        <pt x="680" y="606" on="0"/>
        <pt x="723" y="629" on="1"/>
        <pt x="802" y="671" on="0"/>
        <pt x="924" y="800" on="0"/>
        <pt x="1006" y="948" on="0"/>
        <pt x="1048" y="1102" on="0"/>
        <pt x="1048" y="1170" on="1"/>
        <pt x="1048" y="1234" on="0"/>
        <pt x="1015" y="1322" on="0"/>
        <pt x="962" y="1376" on="0"/>
        <pt x="894" y="1399" on="0"/>
        <pt x="859" y="1399" on="1"/>
        <pt x="820" y="1399" on="0"/>
        <pt x="716" y="1357" on="0"/>
        <pt x="602" y="1258" on="0"/>
        <pt x="486" y="1094" on="0"/>
        <pt x="435" y="971" on="1"/>
      </contour>
    </TTGlyph>
    <TTGlyph name="Q" xMin="-33" yMin="-104" xMax="1165" yMax="1435">
      <contour>
        <pt x="469" y="0" on="1"/>
        <pt x="372" y="-50" on="0"/>
        <pt x="172" y="-104" on="0"/>
        <pt x="72" y="-104" on="1"/>
        <pt x="-33" y="-104" on="0"/>
        <pt x="-33" y="-40" on="1"/>
        <pt x="-33" y="-16" on="0"/>
        <pt x="2" y="31" on="0"/>
        <pt x="77" y="67" on="0"/>
        <pt x="193" y="89" on="0"/>
        <pt x="275" y="89" on="1"/>
        <pt x="506" y="89" on="1"/>
        <pt x="585" y="148" on="0"/>
        <pt x="726" y="299" on="0"/>
        <pt x="846" y="472" on="0"/>
        <pt x="943" y="660" on="0"/>
        <pt x="1011" y="852" on="0"/>
        <pt x="1047" y="1043" on="0"/>
        <pt x="1047" y="1131" on="1"/>
        <pt x="1047" y="1189" on="0"/>
        <pt x="1020" y="1288" on="0"/>
        <pt x="971" y="1358" on="0"/>
        <pt x="899" y="1398" on="0"/>
        <pt x="854" y="1398" on="1"/>
        <pt x="769" y="1398" on="0"/>
        <pt x="601" y="1321" on="0"/>
        <pt x="448" y="1188" on="0"/>
        <pt x="316" y="1009" on="0"/>
        <pt x="220" y="804" on="0"/>
        <pt x="165" y="585" on="0"/>
        <pt x="165" y="478" on="1"/>
        <pt x="165" y="437" on="0"/>
        <pt x="184" y="373" on="0"/>
        <pt x="217" y="327" on="0"/>
        <pt x="258" y="303" on="0"/>
        <pt x="281" y="303" on="1"/>
        <pt x="294" y="303" on="0"/>
        <pt x="334" y="309" on="0"/>
        <pt x="384" y="332" on="0"/>
        <pt x="442" y="379" on="0"/>
        <pt x="472" y="420" on="1"/>
        <pt x="491" y="399" on="1"/>
        <pt x="456" y="344" on="0"/>
        <pt x="381" y="277" on="0"/>
        <pt x="309" y="240" on="0"/>
        <pt x="246" y="227" on="0"/>
        <pt x="224" y="227" on="1"/>
        <pt x="174" y="227" on="0"/>
        <pt x="100" y="270" on="0"/>
        <pt x="52" y="341" on="0"/>
        <pt x="28" y="430" on="0"/>
        <pt x="28" y="475" on="1"/>
        <pt x="28" y="596" on="0"/>
        <pt x="95" y="832" on="0"/>
        <pt x="213" y="1045" on="0"/>
        <pt x="373" y="1227" on="0"/>
        <pt x="557" y="1360" on="0"/>
        <pt x="757" y="1435" on="0"/>
        <pt x="857" y="1435" on="1"/>
        <pt x="888" y="1435" on="0"/>
        <pt x="957" y="1422" on="0"/>
        <pt x="1026" y="1390" on="0"/>
        <pt x="1089" y="1335" on="0"/>
        <pt x="1136" y="1251" on="0"/>
        <pt x="1165" y="1134" on="0"/>
        <pt x="1165" y="1057" on="1"/>
        <pt x="1165" y="917" on="0"/>
        <pt x="1080" y="642" on="0"/>
        <pt x="932" y="390" on="0"/>
        <pt x="731" y="171" on="0"/>
        <pt x="615" y="89" on="1"/>
        <pt x="890" y="89" on="1"/>
        <pt x="853" y="0" on="1"/>
      </contour>
      <contour>
        <pt x="81" y="-67" on="1"/>
        <pt x="153" y="-67" on="0"/>
        <pt x="293" y="-32" on="0"/>
        <pt x="360" y="0" on="1"/>
        <pt x="174" y="0" on="1"/>
        <pt x="142" y="0" on="0"/>
        <pt x="85" y="-7" on="0"/>
        <pt x="42" y="-19" on="0"/>
        <pt x="17" y="-35" on="0"/>
        <pt x="17" y="-43" on="1"/>
        <pt x="17" y="-56" on="0"/>
        <pt x="52" y="-67" on="0"/>
      </contour>
    </TTGlyph>
    <TTGlyph name="R" xMin="-140" yMin="-406" xMax="1141" yMax="1436">
      <contour>
        <pt x="1141" y="1155" on="1"/>
        <pt x="1141" y="1052" on="0"/>
        <pt x="1060" y="895" on="0"/>
        <pt x="927" y="774" on="0"/>
        <pt x="757" y="683" on="0"/>
        <pt x="667" y="647" on="1"/>
        <pt x="614" y="625" on="0"/>
        <pt x="548" y="600" on="0"/>
        <pt x="511" y="585" on="0"/>
        <pt x="498" y="577" on="0"/>
        <pt x="498" y="571" on="1"/>
        <pt x="498" y="569" on="0"/>
        <pt x="500" y="561" on="1"/>
        <pt x="551" y="406" on="0"/>
        <pt x="619" y="245" on="1"/>
        <pt x="648" y="176" on="0"/>
        <pt x="718" y="23" on="0"/>
        <pt x="800" y="-136" on="0"/>
        <pt x="893" y="-296" on="0"/>
        <pt x="945" y="-371" on="1"/>
        <pt x="809" y="-406" on="1"/>
        <pt x="698" y="-229" on="0"/>
        <pt x="487" y="232" on="0"/>
        <pt x="396" y="498" on="1"/>
        <pt x="392" y="509" on="0"/>
        <pt x="386" y="532" on="0"/>
        <pt x="386" y="543" on="1"/>
        <pt x="386" y="572" on="0"/>
        <pt x="415" y="599" on="0"/>
        <pt x="480" y="623" on="0"/>
        <pt x="584" y="658" on="0"/>
        <pt x="659" y="694" on="1"/>
        <pt x="732" y="730" on="0"/>
        <pt x="859" y="819" on="0"/>
        <pt x="954" y="934" on="0"/>
        <pt x="1008" y="1078" on="0"/>
        <pt x="1008" y="1167" on="1"/>
        <pt x="1008" y="1233" on="0"/>
        <pt x="975" y="1322" on="0"/>
        <pt x="921" y="1376" on="0"/>
        <pt x="853" y="1399" on="0"/>
        <pt x="817" y="1399" on="1"/>
        <pt x="778" y="1399" on="0"/>
        <pt x="676" y="1361" on="0"/>
        <pt x="564" y="1264" on="0"/>
        <pt x="448" y="1098" on="0"/>
        <pt x="395" y="971" on="1"/>
        <pt x="-11" y="0" on="1"/>
        <pt x="-140" y="0" on="1"/>
        <pt x="266" y="971" on="1"/>
        <pt x="312" y="1081" on="0"/>
        <pt x="438" y="1254" on="0"/>
        <pt x="587" y="1373" on="0"/>
        <pt x="753" y="1436" on="0"/>
        <pt x="837" y="1436" on="1"/>
        <pt x="890" y="1436" on="0"/>
        <pt x="998" y="1402" on="0"/>
        <pt x="1086" y="1332" on="0"/>
        <pt x="1141" y="1227" on="0"/>
      </contour>
    </TTGlyph>
    <TTGlyph name="Racute" xMin="-140" yMin="-406" xMax="1141" yMax="1731">
      <component glyphName="R" x="0" y="0" flags="0x204"/>
      <component glyphName="acute" x="559" y="693" flags="0x4"/>
    </TTGlyph>
    <TTGlyph name="Rcaron" xMin="-140" yMin="-406" xMax="1141" yMax="1729">
      <component glyphName="R" x="0" y="0" flags="0x204"/>
      <component glyphName="caron" x="559" y="693" flags="0x4"/>
    </TTGlyph>
    <TTGlyph name="Rcommaaccent" xMin="-140" yMin="-406" xMax="1141" yMax="1436">
      <component glyphName="R" x="0" y="0" flags="0x204"/>
      <component glyphName="commaaccent" x="186" y="50" flags="0x4"/>
    </TTGlyph>
    <TTGlyph name="S" xMin="-80" yMin="-18" xMax="1069" yMax="1434">
      <contour>
        <pt x="971" y="1194" on="1"/>
        <pt x="939" y="1253" on="0"/>
        <pt x="875" y="1330" on="0"/>
        <pt x="811" y="1375" on="0"/>
        <pt x="745" y="1393" on="0"/>
        <pt x="711" y="1393" on="1"/>
        <pt x="663" y="1393" on="0"/>
        <pt x="571" y="1360" on="0"/>
        <pt x="499" y="1294" on="0"/>
        <pt x="455" y="1196" on="0"/>
        <pt x="455" y="1132" on="1"/>
        <pt x="455" y="1078" on="0"/>
        <pt x="511" y="968" on="0"/>
        <pt x="594" y="853" on="0"/>
        <pt x="692" y="733" on="0"/>
        <pt x="775" y="605" on="0"/>
        <pt x="831" y="468" on="0"/>
        <pt x="831" y="395" on="1"/>
        <pt x="831" y="302" on="0"/>
        <pt x="740" y="149" on="0"/>
        <pt x="589" y="41" on="0"/>
        <pt x="393" y="-18" on="0"/>
        <pt x="288" y="-18" on="1"/>
        <pt x="208" y="-18" on="0"/>
        <pt x="73" y="18" on="0"/>
        <pt x="-25" y="89" on="0"/>
        <pt x="-80" y="192" on="0"/>
        <pt x="-80" y="260" on="1"/>
        <pt x="-80" y="308" on="0"/>
        <pt x="-56" y="402" on="0"/>
        <pt x="-2" y="494" on="0"/>
        <pt x="86" y="586" on="0"/>
        <pt x="149" y="631" on="1"/>
        <pt x="228" y="537" on="1"/>
        <pt x="181" y="513" on="0"/>
        <pt x="95" y="454" on="0"/>
        <pt x="29" y="380" on="0"/>
        <pt x="-10" y="291" on="0"/>
        <pt x="-10" y="237" on="1"/>
        <pt x="-10" y="199" on="0"/>
        <pt x="24" y="127" on="0"/>
        <pt x="98" y="70" on="0"/>
        <pt x="214" y="35" on="0"/>
        <pt x="295" y="35" on="1"/>
        <pt x="369" y="35" on="0"/>
        <pt x="514" y="77" on="0"/>
        <pt x="628" y="159" on="0"/>
        <pt x="699" y="283" on="0"/>
        <pt x="699" y="366" on="1"/>
        <pt x="699" y="420" on="0"/>
        <pt x="646" y="534" on="0"/>
        <pt x="565" y="652" on="0"/>
        <pt x="472" y="774" on="0"/>
        <pt x="391" y="899" on="0"/>
        <pt x="338" y="1026" on="0"/>
        <pt x="338" y="1091" on="1"/>
        <pt x="338" y="1187" on="0"/>
        <pt x="414" y="1318" on="0"/>
        <pt x="534" y="1399" on="0"/>
        <pt x="679" y="1434" on="0"/>
        <pt x="748" y="1434" on="1"/>
        <pt x="812" y="1434" on="0"/>
        <pt x="911" y="1405" on="0"/>
        <pt x="988" y="1359" on="0"/>
        <pt x="1046" y="1300" on="0"/>
        <pt x="1069" y="1270" on="1"/>
      </contour>
    </TTGlyph>
    <TTGlyph name="Sacute" xMin="-80" yMin="-18" xMax="1069" yMax="1728">
      <component glyphName="S" x="0" y="0" flags="0x204"/>
      <component glyphName="acute" x="545" y="690" flags="0x4"/>
    </TTGlyph>
    <TTGlyph name="Scaron" xMin="-80" yMin="-18" xMax="1069" yMax="1726">
      <component glyphName="S" x="0" y="0" flags="0x204"/>
      <component glyphName="caron" x="515" y="690" flags="0x4"/>
    </TTGlyph>
    <TTGlyph name="Scedilla" xMin="-80" yMin="-294" xMax="1069" yMax="1434">
      <contour>
        <pt x="971" y="1194" on="1"/>
        <pt x="939" y="1253" on="0"/>
        <pt x="875" y="1330" on="0"/>
        <pt x="811" y="1375" on="0"/>
        <pt x="745" y="1393" on="0"/>
        <pt x="711" y="1393" on="1"/>
        <pt x="663" y="1393" on="0"/>
        <pt x="571" y="1360" on="0"/>
        <pt x="499" y="1294" on="0"/>
        <pt x="455" y="1196" on="0"/>
        <pt x="455" y="1132" on="1"/>
        <pt x="455" y="1078" on="0"/>
        <pt x="511" y="968" on="0"/>
        <pt x="594" y="853" on="0"/>
        <pt x="692" y="733" on="0"/>
        <pt x="775" y="605" on="0"/>
        <pt x="831" y="468" on="0"/>
        <pt x="831" y="395" on="1"/>
        <pt x="831" y="303" on="0"/>
        <pt x="744" y="154" on="0"/>
        <pt x="599" y="46" on="0"/>
        <pt x="409" y="-14" on="0"/>
        <pt x="307" y="-17" on="1"/>
        <pt x="256" y="-91" on="1"/>
        <pt x="273" y="-81" on="0"/>
        <pt x="321" y="-74" on="0"/>
        <pt x="344" y="-74" on="1"/>
        <pt x="383" y="-74" on="0"/>
        <pt x="434" y="-116" on="0"/>
        <pt x="434" y="-148" on="1"/>
        <pt x="434" y="-177" on="0"/>
        <pt x="400" y="-230" on="0"/>
        <pt x="343" y="-270" on="0"/>
        <pt x="267" y="-294" on="0"/>
        <pt x="225" y="-294" on="1"/>
        <pt x="181" y="-294" on="0"/>
        <pt x="129" y="-274" on="0"/>
        <pt x="115" y="-265" on="1"/>
        <pt x="131" y="-241" on="1"/>
        <pt x="140" y="-247" on="0"/>
        <pt x="184" y="-265" on="0"/>
        <pt x="219" y="-265" on="1"/>
        <pt x="246" y="-265" on="0"/>
        <pt x="292" y="-250" on="0"/>
        <pt x="326" y="-222" on="0"/>
        <pt x="346" y="-183" on="0"/>
        <pt x="346" y="-160" on="1"/>
        <pt x="346" y="-131" on="0"/>
        <pt x="315" y="-104" on="0"/>
        <pt x="295" y="-104" on="1"/>
        <pt x="273" y="-104" on="0"/>
        <pt x="240" y="-120" on="0"/>
        <pt x="222" y="-137" on="1"/>
        <pt x="185" y="-137" on="1"/>
        <pt x="269" y="-18" on="1"/>
        <pt x="193" y="-16" on="0"/>
        <pt x="65" y="22" on="0"/>
        <pt x="-28" y="93" on="0"/>
        <pt x="-80" y="194" on="0"/>
        <pt x="-80" y="260" on="1"/>
        <pt x="-80" y="308" on="0"/>
        <pt x="-56" y="402" on="0"/>
        <pt x="-2" y="494" on="0"/>
        <pt x="86" y="586" on="0"/>
        <pt x="149" y="631" on="1"/>
        <pt x="228" y="537" on="1"/>
        <pt x="181" y="513" on="0"/>
        <pt x="95" y="454" on="0"/>
        <pt x="29" y="380" on="0"/>
        <pt x="-10" y="291" on="0"/>
        <pt x="-10" y="237" on="1"/>
        <pt x="-10" y="199" on="0"/>
        <pt x="24" y="127" on="0"/>
        <pt x="98" y="70" on="0"/>
        <pt x="214" y="35" on="0"/>
        <pt x="295" y="35" on="1"/>
        <pt x="369" y="35" on="0"/>
        <pt x="514" y="77" on="0"/>
        <pt x="628" y="159" on="0"/>
        <pt x="699" y="283" on="0"/>
        <pt x="699" y="366" on="1"/>
        <pt x="699" y="420" on="0"/>
        <pt x="646" y="534" on="0"/>
        <pt x="565" y="652" on="0"/>
        <pt x="472" y="774" on="0"/>
        <pt x="391" y="899" on="0"/>
        <pt x="338" y="1026" on="0"/>
        <pt x="338" y="1091" on="1"/>
        <pt x="338" y="1187" on="0"/>
        <pt x="414" y="1318" on="0"/>
        <pt x="534" y="1399" on="0"/>
        <pt x="679" y="1434" on="0"/>
        <pt x="748" y="1434" on="1"/>
        <pt x="812" y="1434" on="0"/>
        <pt x="911" y="1405" on="0"/>
        <pt x="988" y="1359" on="0"/>
        <pt x="1046" y="1300" on="0"/>
        <pt x="1069" y="1270" on="1"/>
      </contour>
    </TTGlyph>
    <TTGlyph name="Scircumflex" xMin="-80" yMin="-18" xMax="1069" yMax="1726">
      <component glyphName="S" x="0" y="0" flags="0x204"/>
      <component glyphName="circumflex" x="515" y="690" flags="0x4"/>
    </TTGlyph>
    <TTGlyph name="T" xMin="50" yMin="0" xMax="1576" yMax="1434">
      <contour>
        <pt x="1512" y="1065" on="1"/>
        <pt x="1383" y="1143" on="0"/>
        <pt x="1153" y="1244" on="0"/>
        <pt x="1050" y="1275" on="1"/>
        <pt x="517" y="0" on="1"/>
        <pt x="388" y="0" on="1"/>
        <pt x="939" y="1305" on="1"/>
        <pt x="849" y="1326" on="0"/>
        <pt x="703" y="1341" on="0"/>
        <pt x="646" y="1341" on="1"/>
        <pt x="533" y="1341" on="0"/>
        <pt x="334" y="1286" on="0"/>
        <pt x="186" y="1196" on="0"/>
        <pt x="100" y="1081" on="0"/>
        <pt x="100" y="1020" on="1"/>
        <pt x="100" y="985" on="0"/>
        <pt x="146" y="944" on="0"/>
        <pt x="191" y="944" on="1"/>
        <pt x="449" y="944" on="1"/>
        <pt x="417" y="856" on="1"/>
        <pt x="163" y="856" on="1"/>
        <pt x="117" y="856" on="0"/>
        <pt x="50" y="921" on="0"/>
        <pt x="50" y="982" on="1"/>
        <pt x="50" y="1046" on="0"/>
        <pt x="104" y="1162" on="0"/>
        <pt x="202" y="1263" on="0"/>
        <pt x="338" y="1345" on="0"/>
        <pt x="504" y="1402" on="0"/>
        <pt x="693" y="1434" on="0"/>
        <pt x="795" y="1434" on="1"/>
        <pt x="862" y="1434" on="0"/>
        <pt x="1012" y="1414" on="0"/>
        <pt x="1198" y="1359" on="0"/>
        <pt x="1429" y="1262" on="0"/>
        <pt x="1576" y="1184" on="1"/>
      </contour>
    </TTGlyph>
    <TTGlyph name="Tbar" xMin="50" yMin="0" xMax="1576" yMax="1434">
      <contour>
        <pt x="1512" y="1065" on="1"/>
        <pt x="1383" y="1143" on="0"/>
        <pt x="1153" y="1244" on="0"/>
        <pt x="1050" y="1275" on="1"/>
        <pt x="924" y="974" on="1"/>
        <pt x="1128" y="974" on="1"/>
        <pt x="1100" y="912" on="1"/>
        <pt x="898" y="912" on="1"/>
        <pt x="517" y="0" on="1"/>
        <pt x="388" y="0" on="1"/>
        <pt x="773" y="912" on="1"/>
        <pt x="564" y="912" on="1"/>
        <pt x="592" y="974" on="1"/>
        <pt x="799" y="974" on="1"/>
        <pt x="939" y="1305" on="1"/>
        <pt x="849" y="1326" on="0"/>
        <pt x="703" y="1341" on="0"/>
        <pt x="646" y="1341" on="1"/>
        <pt x="533" y="1341" on="0"/>
        <pt x="334" y="1286" on="0"/>
        <pt x="186" y="1196" on="0"/>
        <pt x="100" y="1081" on="0"/>
        <pt x="100" y="1020" on="1"/>
        <pt x="100" y="985" on="0"/>
        <pt x="146" y="944" on="0"/>
        <pt x="191" y="944" on="1"/>
        <pt x="449" y="944" on="1"/>
        <pt x="417" y="856" on="1"/>
        <pt x="163" y="856" on="1"/>
        <pt x="117" y="856" on="0"/>
        <pt x="50" y="921" on="0"/>
        <pt x="50" y="982" on="1"/>
        <pt x="50" y="1046" on="0"/>
        <pt x="104" y="1162" on="0"/>
        <pt x="202" y="1263" on="0"/>
        <pt x="338" y="1345" on="0"/>
        <pt x="504" y="1402" on="0"/>
        <pt x="693" y="1434" on="0"/>
        <pt x="795" y="1434" on="1"/>
        <pt x="862" y="1434" on="0"/>
        <pt x="1012" y="1414" on="0"/>
        <pt x="1198" y="1359" on="0"/>
        <pt x="1429" y="1262" on="0"/>
        <pt x="1576" y="1184" on="1"/>
      </contour>
    </TTGlyph>
    <TTGlyph name="Tcaron" xMin="50" yMin="0" xMax="1576" yMax="1721">
      <component glyphName="T" x="0" y="0" flags="0x204"/>
      <component glyphName="caron" x="779" y="685" flags="0x4"/>
    </TTGlyph>
    <TTGlyph name="Tcommaaccent" xMin="50" yMin="-363" xMax="1576" yMax="1434">
      <component glyphName="T" x="0" y="0" flags="0x204"/>
      <component glyphName="commaaccent" x="306" y="0" flags="0x4"/>
    </TTGlyph>
    <TTGlyph name="Thorn" xMin="-119" yMin="0" xMax="1065" yMax="1397">
      <contour>
        <pt x="-101" y="0" on="1"/>
        <pt x="19" y="285" on="1"/>
        <pt x="-37" y="285" on="1"/>
        <pt x="-60" y="285" on="0"/>
        <pt x="-102" y="286" on="0"/>
        <pt x="-119" y="286" on="1"/>
        <pt x="-62" y="383" on="1"/>
        <pt x="-30" y="381" on="0"/>
        <pt x="30" y="381" on="0"/>
        <pt x="59" y="381" on="1"/>
        <pt x="192" y="695" on="1"/>
        <pt x="193" y="699" on="0"/>
        <pt x="197" y="707" on="1"/>
        <pt x="487" y="1397" on="1"/>
        <pt x="613" y="1397" on="1"/>
        <pt x="473" y="1063" on="1"/>
        <pt x="541" y="1111" on="0"/>
        <pt x="688" y="1160" on="0"/>
        <pt x="763" y="1160" on="1"/>
        <pt x="815" y="1160" on="0"/>
        <pt x="923" y="1126" on="0"/>
        <pt x="1010" y="1056" on="0"/>
        <pt x="1065" y="951" on="0"/>
        <pt x="1065" y="879" on="1"/>
        <pt x="1065" y="798" on="0"/>
        <pt x="997" y="660" on="0"/>
        <pt x="876" y="541" on="0"/>
        <pt x="710" y="442" on="0"/>
        <pt x="613" y="402" on="1"/>
        <pt x="483" y="347" on="0"/>
        <pt x="247" y="299" on="0"/>
        <pt x="150" y="291" on="1"/>
        <pt x="28" y="0" on="1"/>
      </contour>
      <contour>
        <pt x="284" y="611" on="1"/>
        <pt x="188" y="383" on="1"/>
        <pt x="321" y="389" on="0"/>
        <pt x="523" y="424" on="0"/>
        <pt x="607" y="455" on="1"/>
        <pt x="686" y="485" on="0"/>
        <pt x="808" y="578" on="0"/>
        <pt x="890" y="694" on="0"/>
        <pt x="932" y="826" on="0"/>
        <pt x="932" y="894" on="1"/>
        <pt x="932" y="958" on="0"/>
        <pt x="899" y="1046" on="0"/>
        <pt x="846" y="1100" on="0"/>
        <pt x="778" y="1123" on="0"/>
        <pt x="743" y="1123" on="1"/>
        <pt x="704" y="1123" on="0"/>
        <pt x="600" y="1081" on="0"/>
        <pt x="486" y="982" on="0"/>
        <pt x="370" y="818" on="0"/>
        <pt x="319" y="695" on="1"/>
      </contour>
    </TTGlyph>
    <TTGlyph name="U" xMin="50" yMin="-20" xMax="1478" yMax="1434">
      <contour>
        <pt x="576" y="989" on="1"/>
        <pt x="598" y="1042" on="0"/>
        <pt x="644" y="1149" on="0"/>
        <pt x="680" y="1246" on="0"/>
        <pt x="703" y="1328" on="0"/>
        <pt x="703" y="1356" on="1"/>
        <pt x="703" y="1374" on="0"/>
        <pt x="688" y="1397" on="0"/>
        <pt x="673" y="1397" on="1"/>
        <pt x="602" y="1386" on="0"/>
        <pt x="510" y="1329" on="1"/>
        <pt x="471" y="1305" on="0"/>
        <pt x="376" y="1231" on="0"/>
        <pt x="265" y="1124" on="0"/>
        <pt x="140" y="981" on="0"/>
        <pt x="71" y="887" on="1"/>
        <pt x="50" y="1022" on="1"/>
        <pt x="147" y="1122" on="0"/>
        <pt x="336" y="1275" on="0"/>
        <pt x="505" y="1380" on="0"/>
        <pt x="644" y="1434" on="0"/>
        <pt x="691" y="1434" on="1"/>
        <pt x="748" y="1434" on="0"/>
        <pt x="801" y="1367" on="0"/>
        <pt x="801" y="1315" on="1"/>
        <pt x="801" y="1281" on="0"/>
        <pt x="785" y="1202" on="0"/>
        <pt x="760" y="1117" on="0"/>
        <pt x="727" y="1030" on="0"/>
        <pt x="709" y="989" on="1"/>
        <pt x="467" y="424" on="1"/>
        <pt x="446" y="373" on="0"/>
        <pt x="408" y="270" on="0"/>
        <pt x="380" y="178" on="0"/>
        <pt x="363" y="102" on="0"/>
        <pt x="363" y="79" on="1"/>
        <pt x="363" y="35" on="0"/>
        <pt x="406" y="35" on="1"/>
        <pt x="422" y="35" on="0"/>
        <pt x="484" y="48" on="0"/>
        <pt x="573" y="95" on="0"/>
        <pt x="688" y="187" on="0"/>
        <pt x="826" y="347" on="0"/>
        <pt x="984" y="584" on="0"/>
        <pt x="1072" y="752" on="1"/>
        <pt x="1349" y="1397" on="1"/>
        <pt x="1478" y="1397" on="1"/>
        <pt x="973" y="209" on="1"/>
        <pt x="955" y="165" on="0"/>
        <pt x="939" y="102" on="0"/>
        <pt x="939" y="82" on="1"/>
        <pt x="939" y="56" on="0"/>
        <pt x="960" y="35" on="0"/>
        <pt x="973" y="35" on="1"/>
        <pt x="1007" y="35" on="0"/>
        <pt x="1068" y="73" on="0"/>
        <pt x="1140" y="157" on="0"/>
        <pt x="1232" y="292" on="0"/>
        <pt x="1298" y="390" on="1"/>
        <pt x="1325" y="373" on="1"/>
        <pt x="1261" y="274" on="0"/>
        <pt x="1162" y="126" on="0"/>
        <pt x="1074" y="29" on="0"/>
        <pt x="988" y="-20" on="0"/>
        <pt x="937" y="-20" on="1"/>
        <pt x="928" y="-20" on="0"/>
        <pt x="890" y="-15" on="0"/>
        <pt x="851" y="8" on="0"/>
        <pt x="822" y="55" on="0"/>
        <pt x="822" y="97" on="1"/>
        <pt x="822" y="129" on="0"/>
        <pt x="844" y="220" on="0"/>
        <pt x="870" y="281" on="1"/>
        <pt x="934" y="431" on="1"/>
        <pt x="845" y="298" on="0"/>
        <pt x="685" y="125" on="0"/>
        <pt x="546" y="23" on="0"/>
        <pt x="427" y="-18" on="0"/>
        <pt x="379" y="-18" on="1"/>
        <pt x="314" y="-18" on="0"/>
        <pt x="251" y="60" on="0"/>
        <pt x="251" y="118" on="1"/>
        <pt x="251" y="149" on="0"/>
        <pt x="265" y="224" on="0"/>
        <pt x="289" y="305" on="0"/>
        <pt x="319" y="386" on="0"/>
        <pt x="335" y="424" on="1"/>
      </contour>
    </TTGlyph>
    <TTGlyph name="Uacute" xMin="50" yMin="-20" xMax="1478" yMax="1714">
      <component glyphName="U" x="0" y="0" flags="0x204"/>
      <component glyphName="acute" x="795" y="676" flags="0x4"/>
    </TTGlyph>
    <TTGlyph name="Ubreve" xMin="50" yMin="-20" xMax="1478" yMax="1712">
      <component glyphName="U" x="0" y="0" flags="0x204"/>
      <component glyphName="breve" x="795" y="676" flags="0x4"/>
    </TTGlyph>
    <TTGlyph name="Ucircumflex" xMin="50" yMin="-20" xMax="1478" yMax="1712">
      <component glyphName="U" x="0" y="0" flags="0x204"/>
      <component glyphName="circumflex" x="795" y="676" flags="0x4"/>
    </TTGlyph>
    <TTGlyph name="Udieresis" xMin="50" yMin="-20" xMax="1478" yMax="1689">
      <component glyphName="U" x="0" y="0" flags="0x204"/>
      <component glyphName="dieresis" x="795" y="676" flags="0x4"/>
    </TTGlyph>
    <TTGlyph name="Ugrave" xMin="50" yMin="-20" xMax="1478" yMax="1714">
      <component glyphName="U" x="0" y="0" flags="0x204"/>
      <component glyphName="grave" x="795" y="676" flags="0x4"/>
    </TTGlyph>
    <TTGlyph name="Uhungarumlaut" xMin="50" yMin="-20" xMax="1478" yMax="1714">
      <component glyphName="U" x="0" y="0" flags="0x204"/>
      <component glyphName="hungarumlaut" x="795" y="676" flags="0x4"/>
    </TTGlyph>
    <TTGlyph name="Umacron" xMin="50" yMin="-20" xMax="1478" yMax="1652">
      <component glyphName="U" x="0" y="0" flags="0x204"/>
      <component glyphName="macron" x="795" y="676" flags="0x4"/>
    </TTGlyph>
    <TTGlyph name="Uogonek" xMin="50" yMin="-307" xMax="1478" yMax="1434">
      <contour>
        <pt x="576" y="989" on="1"/>
        <pt x="598" y="1042" on="0"/>
        <pt x="644" y="1149" on="0"/>
        <pt x="680" y="1246" on="0"/>
        <pt x="703" y="1328" on="0"/>
        <pt x="703" y="1356" on="1"/>
        <pt x="703" y="1374" on="0"/>
        <pt x="688" y="1397" on="0"/>
        <pt x="673" y="1397" on="1"/>
        <pt x="602" y="1386" on="0"/>
        <pt x="510" y="1329" on="1"/>
        <pt x="471" y="1305" on="0"/>
        <pt x="376" y="1231" on="0"/>
        <pt x="265" y="1124" on="0"/>
        <pt x="140" y="981" on="0"/>
        <pt x="71" y="887" on="1"/>
        <pt x="50" y="1022" on="1"/>
        <pt x="147" y="1122" on="0"/>
        <pt x="336" y="1275" on="0"/>
        <pt x="505" y="1380" on="0"/>
        <pt x="644" y="1434" on="0"/>
        <pt x="691" y="1434" on="1"/>
        <pt x="748" y="1434" on="0"/>
        <pt x="801" y="1367" on="0"/>
        <pt x="801" y="1315" on="1"/>
        <pt x="801" y="1281" on="0"/>
        <pt x="785" y="1202" on="0"/>
        <pt x="760" y="1117" on="0"/>
        <pt x="727" y="1030" on="0"/>
        <pt x="709" y="989" on="1"/>
        <pt x="467" y="424" on="1"/>
        <pt x="446" y="373" on="0"/>
        <pt x="408" y="270" on="0"/>
        <pt x="380" y="178" on="0"/>
        <pt x="363" y="102" on="0"/>
        <pt x="363" y="79" on="1"/>
        <pt x="363" y="35" on="0"/>
        <pt x="406" y="35" on="1"/>
        <pt x="422" y="35" on="0"/>
        <pt x="484" y="48" on="0"/>
        <pt x="573" y="95" on="0"/>
        <pt x="688" y="187" on="0"/>
        <pt x="826" y="347" on="0"/>
        <pt x="984" y="584" on="0"/>
        <pt x="1072" y="752" on="1"/>
        <pt x="1349" y="1397" on="1"/>
        <pt x="1478" y="1397" on="1"/>
        <pt x="973" y="209" on="1"/>
        <pt x="955" y="165" on="0"/>
        <pt x="939" y="102" on="0"/>
        <pt x="939" y="82" on="1"/>
        <pt x="939" y="56" on="0"/>
        <pt x="960" y="35" on="0"/>
        <pt x="973" y="35" on="1"/>
        <pt x="1007" y="35" on="0"/>
        <pt x="1068" y="73" on="0"/>
        <pt x="1140" y="157" on="0"/>
        <pt x="1232" y="292" on="0"/>
        <pt x="1298" y="390" on="1"/>
        <pt x="1325" y="373" on="1"/>
        <pt x="1275" y="296" on="0"/>
        <pt x="1193" y="172" on="0"/>
        <pt x="1121" y="79" on="0"/>
        <pt x="1055" y="15" on="0"/>
        <pt x="1020" y="-1" on="1"/>
        <pt x="972" y="-30" on="0"/>
        <pt x="906" y="-86" on="0"/>
        <pt x="866" y="-140" on="0"/>
        <pt x="849" y="-191" on="0"/>
        <pt x="849" y="-216" on="1"/>
        <pt x="849" y="-244" on="0"/>
        <pt x="879" y="-267" on="0"/>
        <pt x="901" y="-267" on="1"/>
        <pt x="922" y="-267" on="0"/>
        <pt x="962" y="-254" on="0"/>
        <pt x="970" y="-251" on="1"/>
        <pt x="980" y="-276" on="1"/>
        <pt x="954" y="-288" on="0"/>
        <pt x="887" y="-307" on="0"/>
        <pt x="855" y="-307" on="1"/>
        <pt x="806" y="-307" on="0"/>
        <pt x="768" y="-264" on="0"/>
        <pt x="768" y="-236" on="1"/>
        <pt x="768" y="-209" on="0"/>
        <pt x="801" y="-149" on="0"/>
        <pt x="855" y="-91" on="0"/>
        <pt x="921" y="-39" on="0"/>
        <pt x="954" y="-19" on="1"/>
        <pt x="949" y="-20" on="0"/>
        <pt x="942" y="-20" on="0"/>
        <pt x="937" y="-20" on="1"/>
        <pt x="928" y="-20" on="0"/>
        <pt x="890" y="-15" on="0"/>
        <pt x="851" y="8" on="0"/>
        <pt x="822" y="55" on="0"/>
        <pt x="822" y="97" on="1"/>
        <pt x="822" y="129" on="0"/>
        <pt x="844" y="220" on="0"/>
        <pt x="870" y="281" on="1"/>
        <pt x="934" y="431" on="1"/>
        <pt x="845" y="298" on="0"/>
        <pt x="685" y="125" on="0"/>
        <pt x="546" y="23" on="0"/>
        <pt x="427" y="-18" on="0"/>
        <pt x="379" y="-18" on="1"/>
        <pt x="314" y="-18" on="0"/>
        <pt x="251" y="60" on="0"/>
        <pt x="251" y="118" on="1"/>
        <pt x="251" y="149" on="0"/>
        <pt x="265" y="224" on="0"/>
        <pt x="289" y="305" on="0"/>
        <pt x="319" y="386" on="0"/>
        <pt x="335" y="424" on="1"/>
      </contour>
    </TTGlyph>
    <TTGlyph name="Uring" xMin="50" yMin="-20" xMax="1478" yMax="1824">
      <component glyphName="U" x="0" y="0" flags="0x204"/>
      <component glyphName="ring" x="781" y="676" flags="0x4"/>
    </TTGlyph>
    <TTGlyph name="Utilde" xMin="50" yMin="-20" xMax="1478" yMax="1703">
      <component glyphName="U" x="0" y="0" flags="0x204"/>
      <component glyphName="tilde" x="795" y="676" flags="0x4"/>
    </TTGlyph>
    <TTGlyph name="V" xMin="50" yMin="-18" xMax="1239" yMax="1434">
      <contour>
        <pt x="1187" y="651" on="1"/>
        <pt x="1177" y="663" on="0"/>
        <pt x="1147" y="701" on="0"/>
        <pt x="1131" y="730" on="1"/>
        <pt x="1125" y="715" on="1"/>
        <pt x="1081" y="607" on="0"/>
        <pt x="975" y="414" on="0"/>
        <pt x="861" y="252" on="0"/>
        <pt x="746" y="121" on="0"/>
        <pt x="638" y="31" on="0"/>
        <pt x="544" y="-18" on="0"/>
        <pt x="509" y="-18" on="1"/>
        <pt x="438" y="-18" on="0"/>
        <pt x="371" y="97" on="0"/>
        <pt x="371" y="192" on="1"/>
        <pt x="371" y="277" on="0"/>
        <pt x="421" y="487" on="0"/>
        <pt x="462" y="604" on="1"/>
        <pt x="597" y="989" on="1"/>
        <pt x="614" y="1038" on="0"/>
        <pt x="648" y="1137" on="0"/>
        <pt x="674" y="1229" on="0"/>
        <pt x="689" y="1308" on="0"/>
        <pt x="689" y="1337" on="1"/>
        <pt x="689" y="1365" on="0"/>
        <pt x="672" y="1397" on="0"/>
        <pt x="652" y="1397" on="1"/>
        <pt x="649" y="1397" on="0"/>
        <pt x="609" y="1392" on="0"/>
        <pt x="539" y="1365" on="0"/>
        <pt x="439" y="1304" on="0"/>
        <pt x="313" y="1193" on="0"/>
        <pt x="163" y="1022" on="0"/>
        <pt x="77" y="897" on="1"/>
        <pt x="50" y="1022" on="1"/>
        <pt x="141" y="1122" on="0"/>
        <pt x="320" y="1275" on="0"/>
        <pt x="479" y="1380" on="0"/>
        <pt x="613" y="1434" on="0"/>
        <pt x="660" y="1434" on="1"/>
        <pt x="726" y="1434" on="0"/>
        <pt x="791" y="1349" on="0"/>
        <pt x="791" y="1283" on="1"/>
        <pt x="791" y="1251" on="0"/>
        <pt x="781" y="1178" on="0"/>
        <pt x="764" y="1102" on="0"/>
        <pt x="741" y="1025" on="0"/>
        <pt x="729" y="989" on="1"/>
        <pt x="581" y="557" on="1"/>
        <pt x="561" y="497" on="0"/>
        <pt x="527" y="373" on="0"/>
        <pt x="502" y="256" on="0"/>
        <pt x="488" y="151" on="0"/>
        <pt x="488" y="111" on="1"/>
        <pt x="488" y="73" on="0"/>
        <pt x="509" y="43" on="0"/>
        <pt x="530" y="43" on="1"/>
        <pt x="561" y="43" on="0"/>
        <pt x="647" y="95" on="0"/>
        <pt x="745" y="188" on="0"/>
        <pt x="851" y="317" on="0"/>
        <pt x="954" y="472" on="0"/>
        <pt x="1049" y="645" on="0"/>
        <pt x="1087" y="737" on="1"/>
        <pt x="1092" y="748" on="0"/>
        <pt x="1100" y="771" on="0"/>
        <pt x="1105" y="783" on="1"/>
        <pt x="1090" y="822" on="0"/>
        <pt x="1069" y="925" on="0"/>
        <pt x="1069" y="994" on="1"/>
        <pt x="1069" y="1063" on="0"/>
        <pt x="1089" y="1161" on="0"/>
        <pt x="1122" y="1225" on="0"/>
        <pt x="1164" y="1255" on="0"/>
        <pt x="1185" y="1255" on="1"/>
        <pt x="1194" y="1255" on="0"/>
        <pt x="1213" y="1246" on="0"/>
        <pt x="1229" y="1226" on="0"/>
        <pt x="1239" y="1193" on="0"/>
        <pt x="1239" y="1169" on="1"/>
        <pt x="1239" y="1106" on="0"/>
        <pt x="1197" y="905" on="0"/>
        <pt x="1149" y="777" on="1"/>
        <pt x="1162" y="752" on="0"/>
        <pt x="1195" y="703" on="0"/>
        <pt x="1217" y="677" on="1"/>
      </contour>
      <contour>
        <pt x="1112" y="952" on="1"/>
        <pt x="1112" y="888" on="0"/>
        <pt x="1125" y="840" on="1"/>
        <pt x="1137" y="877" on="0"/>
        <pt x="1159" y="953" on="0"/>
        <pt x="1175" y="1022" on="0"/>
        <pt x="1185" y="1080" on="0"/>
        <pt x="1185" y="1100" on="1"/>
        <pt x="1185" y="1114" on="0"/>
        <pt x="1179" y="1140" on="0"/>
        <pt x="1169" y="1140" on="1"/>
        <pt x="1157" y="1140" on="0"/>
        <pt x="1137" y="1109" on="0"/>
        <pt x="1121" y="1056" on="0"/>
        <pt x="1112" y="988" on="0"/>
      </contour>
    </TTGlyph>
    <TTGlyph name="W" xMin="50" yMin="-18" xMax="1587" yMax="1434">
      <contour>
        <pt x="530" y="43" on="1"/>
        <pt x="554" y="43" on="0"/>
        <pt x="619" y="89" on="0"/>
        <pt x="694" y="174" on="0"/>
        <pt x="774" y="293" on="0"/>
        <pt x="812" y="365" on="1"/>
        <pt x="839" y="429" on="0"/>
        <pt x="878" y="543" on="0"/>
        <pt x="900" y="604" on="1"/>
        <pt x="1137" y="1255" on="1"/>
        <pt x="1256" y="1255" on="1"/>
        <pt x="1008" y="557" on="1"/>
        <pt x="987" y="497" on="0"/>
        <pt x="951" y="382" on="0"/>
        <pt x="926" y="274" on="0"/>
        <pt x="913" y="177" on="0"/>
        <pt x="913" y="137" on="1"/>
        <pt x="913" y="93" on="0"/>
        <pt x="942" y="43" on="0"/>
        <pt x="968" y="43" on="1"/>
        <pt x="999" y="43" on="0"/>
        <pt x="1071" y="95" on="0"/>
        <pt x="1150" y="188" on="0"/>
        <pt x="1232" y="317" on="0"/>
        <pt x="1315" y="472" on="0"/>
        <pt x="1397" y="645" on="0"/>
        <pt x="1435" y="737" on="1"/>
        <pt x="1440" y="748" on="0"/>
        <pt x="1448" y="771" on="0"/>
        <pt x="1453" y="783" on="1"/>
        <pt x="1438" y="822" on="0"/>
        <pt x="1417" y="925" on="0"/>
        <pt x="1417" y="994" on="1"/>
        <pt x="1417" y="1063" on="0"/>
        <pt x="1437" y="1161" on="0"/>
        <pt x="1470" y="1225" on="0"/>
        <pt x="1512" y="1255" on="0"/>
        <pt x="1533" y="1255" on="1"/>
        <pt x="1542" y="1255" on="0"/>
        <pt x="1561" y="1246" on="0"/>
        <pt x="1577" y="1226" on="0"/>
        <pt x="1587" y="1193" on="0"/>
        <pt x="1587" y="1169" on="1"/>
        <pt x="1587" y="1106" on="0"/>
        <pt x="1545" y="905" on="0"/>
        <pt x="1497" y="777" on="1"/>
        <pt x="1510" y="752" on="0"/>
        <pt x="1543" y="703" on="0"/>
        <pt x="1565" y="677" on="1"/>
        <pt x="1535" y="651" on="1"/>
        <pt x="1525" y="663" on="0"/>
        <pt x="1495" y="701" on="0"/>
        <pt x="1479" y="730" on="1"/>
        <pt x="1473" y="715" on="1"/>
        <pt x="1407" y="553" on="0"/>
        <pt x="1265" y="283" on="0"/>
        <pt x="1128" y="90" on="0"/>
        <pt x="1000" y="-18" on="0"/>
        <pt x="947" y="-18" on="1"/>
        <pt x="912" y="-18" on="0"/>
        <pt x="863" y="12" on="0"/>
        <pt x="830" y="67" on="0"/>
        <pt x="815" y="144" on="0"/>
        <pt x="815" y="191" on="1"/>
        <pt x="815" y="217" on="0"/>
        <pt x="818" y="271" on="0"/>
        <pt x="822" y="300" on="1"/>
        <pt x="769" y="207" on="0"/>
        <pt x="678" y="84" on="0"/>
        <pt x="600" y="12" on="0"/>
        <pt x="536" y="-18" on="0"/>
        <pt x="509" y="-18" on="1"/>
        <pt x="438" y="-18" on="0"/>
        <pt x="371" y="97" on="0"/>
        <pt x="371" y="192" on="1"/>
        <pt x="371" y="277" on="0"/>
        <pt x="421" y="487" on="0"/>
        <pt x="462" y="604" on="1"/>
        <pt x="597" y="989" on="1"/>
        <pt x="614" y="1038" on="0"/>
        <pt x="648" y="1137" on="0"/>
        <pt x="674" y="1229" on="0"/>
        <pt x="689" y="1308" on="0"/>
        <pt x="689" y="1337" on="1"/>
        <pt x="689" y="1365" on="0"/>
        <pt x="672" y="1397" on="0"/>
        <pt x="652" y="1397" on="1"/>
        <pt x="649" y="1397" on="0"/>
        <pt x="609" y="1392" on="0"/>
        <pt x="539" y="1365" on="0"/>
        <pt x="439" y="1304" on="0"/>
        <pt x="313" y="1193" on="0"/>
        <pt x="163" y="1022" on="0"/>
        <pt x="77" y="897" on="1"/>
        <pt x="50" y="1022" on="1"/>
        <pt x="141" y="1122" on="0"/>
        <pt x="320" y="1275" on="0"/>
        <pt x="479" y="1380" on="0"/>
        <pt x="613" y="1434" on="0"/>
        <pt x="660" y="1434" on="1"/>
        <pt x="726" y="1434" on="0"/>
        <pt x="791" y="1349" on="0"/>
        <pt x="791" y="1283" on="1"/>
        <pt x="791" y="1251" on="0"/>
        <pt x="781" y="1178" on="0"/>
        <pt x="764" y="1102" on="0"/>
        <pt x="741" y="1025" on="0"/>
        <pt x="729" y="989" on="1"/>
        <pt x="581" y="557" on="1"/>
        <pt x="561" y="497" on="0"/>
        <pt x="527" y="373" on="0"/>
        <pt x="502" y="256" on="0"/>
        <pt x="488" y="151" on="0"/>
        <pt x="488" y="111" on="1"/>
        <pt x="488" y="73" on="0"/>
        <pt x="509" y="43" on="0"/>
      </contour>
      <contour>
        <pt x="1460" y="952" on="1"/>
        <pt x="1460" y="888" on="0"/>
        <pt x="1473" y="840" on="1"/>
        <pt x="1485" y="877" on="0"/>
        <pt x="1507" y="953" on="0"/>
        <pt x="1523" y="1022" on="0"/>
        <pt x="1533" y="1080" on="0"/>
        <pt x="1533" y="1100" on="1"/>
        <pt x="1533" y="1114" on="0"/>
        <pt x="1527" y="1140" on="0"/>
        <pt x="1517" y="1140" on="1"/>
        <pt x="1505" y="1140" on="0"/>
        <pt x="1485" y="1109" on="0"/>
        <pt x="1469" y="1056" on="0"/>
        <pt x="1460" y="988" on="0"/>
      </contour>
    </TTGlyph>
    <TTGlyph name="Wacute" xMin="50" yMin="-18" xMax="1587" yMax="1600">
      <component glyphName="W" x="0" y="0" flags="0x204"/>
      <component glyphName="acute" x="950" y="562" flags="0x4"/>
    </TTGlyph>
    <TTGlyph name="Wcircumflex" xMin="50" yMin="-18" xMax="1587" yMax="1598">
      <component glyphName="W" x="0" y="0" flags="0x204"/>
      <component glyphName="circumflex" x="950" y="562" flags="0x4"/>
    </TTGlyph>
    <TTGlyph name="Wdieresis" xMin="50" yMin="-18" xMax="1587" yMax="1575">
      <component glyphName="W" x="0" y="0" flags="0x204"/>
      <component glyphName="dieresis" x="950" y="562" flags="0x4"/>
    </TTGlyph>
    <TTGlyph name="Wgrave" xMin="50" yMin="-18" xMax="1587" yMax="1600">
      <component glyphName="W" x="0" y="0" flags="0x204"/>
      <component glyphName="grave" x="950" y="562" flags="0x4"/>
    </TTGlyph>
    <TTGlyph name="X" xMin="-38" yMin="-23" xMax="1399" yMax="1435">
      <contour>
        <pt x="1001" y="163" on="1"/>
        <pt x="957" y="109" on="0"/>
        <pt x="888" y="39" on="0"/>
        <pt x="831" y="-2" on="0"/>
        <pt x="781" y="-18" on="0"/>
        <pt x="754" y="-18" on="1"/>
        <pt x="718" y="-18" on="0"/>
        <pt x="671" y="11" on="0"/>
        <pt x="642" y="64" on="0"/>
        <pt x="630" y="139" on="0"/>
        <pt x="629" y="185" on="1"/>
        <pt x="622" y="576" on="1"/>
        <pt x="576" y="519" on="0"/>
        <pt x="488" y="412" on="0"/>
        <pt x="409" y="317" on="0"/>
        <pt x="341" y="236" on="0"/>
        <pt x="314" y="206" on="1"/>
        <pt x="306" y="197" on="0"/>
        <pt x="274" y="159" on="0"/>
        <pt x="228" y="112" on="0"/>
        <pt x="167" y="60" on="0"/>
        <pt x="94" y="15" on="0"/>
        <pt x="9" y="-18" on="0"/>
        <pt x="-38" y="-23" on="1"/>
        <pt x="-20" y="119" on="1"/>
        <pt x="-1" y="113" on="0"/>
        <pt x="43" y="116" on="0"/>
        <pt x="89" y="130" on="0"/>
        <pt x="135" y="152" on="0"/>
        <pt x="156" y="165" on="1"/>
        <pt x="205" y="195" on="0"/>
        <pt x="254" y="237" on="1"/>
        <pt x="290" y="271" on="0"/>
        <pt x="376" y="362" on="0"/>
        <pt x="469" y="469" on="0"/>
        <pt x="570" y="590" on="0"/>
        <pt x="621" y="653" on="1"/>
        <pt x="614" y="1044" on="1"/>
        <pt x="612" y="1132" on="0"/>
        <pt x="609" y="1265" on="0"/>
        <pt x="598" y="1352" on="0"/>
        <pt x="576" y="1396" on="0"/>
        <pt x="557" y="1396" on="1"/>
        <pt x="547" y="1396" on="0"/>
        <pt x="510" y="1390" on="0"/>
        <pt x="455" y="1363" on="0"/>
        <pt x="382" y="1307" on="0"/>
        <pt x="290" y="1208" on="0"/>
        <pt x="181" y="1058" on="0"/>
        <pt x="117" y="950" on="1"/>
        <pt x="97" y="1097" on="1"/>
        <pt x="183" y="1196" on="0"/>
        <pt x="327" y="1325" on="0"/>
        <pt x="446" y="1401" on="0"/>
        <pt x="542" y="1433" on="0"/>
        <pt x="581" y="1434" on="1"/>
        <pt x="628" y="1435" on="0"/>
        <pt x="690" y="1399" on="0"/>
        <pt x="727" y="1320" on="0"/>
        <pt x="743" y="1197" on="0"/>
        <pt x="744" y="1113" on="1"/>
        <pt x="747" y="811" on="1"/>
        <pt x="802" y="880" on="0"/>
        <pt x="910" y="1013" on="0"/>
        <pt x="1009" y="1132" on="0"/>
        <pt x="1098" y="1232" on="0"/>
        <pt x="1135" y="1268" on="1"/>
        <pt x="1171" y="1299" on="0"/>
        <pt x="1211" y="1324" on="1"/>
        <pt x="1246" y="1345" on="0"/>
        <pt x="1333" y="1381" on="0"/>
        <pt x="1380" y="1381" on="1"/>
        <pt x="1385" y="1381" on="0"/>
        <pt x="1394" y="1380" on="0"/>
        <pt x="1399" y="1380" on="1"/>
        <pt x="1340" y="1259" on="1"/>
        <pt x="1292" y="1257" on="0"/>
        <pt x="1200" y="1217" on="0"/>
        <pt x="1164" y="1194" on="1"/>
        <pt x="1122" y="1167" on="0"/>
        <pt x="1083" y="1133" on="1"/>
        <pt x="1066" y="1116" on="0"/>
        <pt x="999" y="1038" on="0"/>
        <pt x="911" y="930" on="0"/>
        <pt x="805" y="800" on="0"/>
        <pt x="748" y="730" on="1"/>
        <pt x="754" y="183" on="1"/>
        <pt x="755" y="120" on="0"/>
        <pt x="780" y="66" on="0"/>
        <pt x="814" y="66" on="1"/>
        <pt x="836" y="66" on="0"/>
        <pt x="880" y="91" on="0"/>
        <pt x="920" y="128" on="0"/>
        <pt x="957" y="172" on="0"/>
        <pt x="973" y="190" on="1"/>
      </contour>
    </TTGlyph>
    <TTGlyph name="Y" xMin="50" yMin="-530" xMax="1415" yMax="1434">
      <contour>
        <pt x="576" y="989" on="1"/>
        <pt x="598" y="1042" on="0"/>
        <pt x="644" y="1149" on="0"/>
        <pt x="680" y="1246" on="0"/>
        <pt x="703" y="1328" on="0"/>
        <pt x="703" y="1356" on="1"/>
        <pt x="703" y="1374" on="0"/>
        <pt x="688" y="1397" on="0"/>
        <pt x="673" y="1397" on="1"/>
        <pt x="602" y="1386" on="0"/>
        <pt x="510" y="1329" on="1"/>
        <pt x="471" y="1305" on="0"/>
        <pt x="376" y="1231" on="0"/>
        <pt x="265" y="1124" on="0"/>
        <pt x="140" y="981" on="0"/>
        <pt x="71" y="887" on="1"/>
        <pt x="50" y="1022" on="1"/>
        <pt x="147" y="1122" on="0"/>
        <pt x="336" y="1275" on="0"/>
        <pt x="505" y="1380" on="0"/>
        <pt x="644" y="1434" on="0"/>
        <pt x="691" y="1434" on="1"/>
        <pt x="748" y="1434" on="0"/>
        <pt x="801" y="1367" on="0"/>
        <pt x="801" y="1315" on="1"/>
        <pt x="801" y="1281" on="0"/>
        <pt x="785" y="1202" on="0"/>
        <pt x="760" y="1117" on="0"/>
        <pt x="727" y="1030" on="0"/>
        <pt x="709" y="989" on="1"/>
        <pt x="467" y="424" on="1"/>
        <pt x="446" y="373" on="0"/>
        <pt x="408" y="270" on="0"/>
        <pt x="380" y="178" on="0"/>
        <pt x="363" y="102" on="0"/>
        <pt x="363" y="79" on="1"/>
        <pt x="363" y="35" on="0"/>
        <pt x="406" y="35" on="1"/>
        <pt x="422" y="35" on="0"/>
        <pt x="483" y="48" on="0"/>
        <pt x="572" y="94" on="0"/>
        <pt x="686" y="185" on="0"/>
        <pt x="822" y="343" on="0"/>
        <pt x="979" y="576" on="0"/>
        <pt x="1067" y="742" on="1"/>
        <pt x="1286" y="1255" on="1"/>
        <pt x="1415" y="1255" on="1"/>
        <pt x="1001" y="281" on="1"/>
        <pt x="980" y="232" on="0"/>
        <pt x="932" y="119" on="0"/>
        <pt x="876" y="1" on="0"/>
        <pt x="811" y="-120" on="0"/>
        <pt x="773" y="-178" on="1"/>
        <pt x="907" y="-178" on="1"/>
        <pt x="866" y="-266" on="1"/>
        <pt x="710" y="-266" on="1"/>
        <pt x="666" y="-322" on="0"/>
        <pt x="564" y="-419" on="0"/>
        <pt x="448" y="-490" on="0"/>
        <pt x="316" y="-530" on="0"/>
        <pt x="242" y="-530" on="1"/>
        <pt x="198" y="-530" on="0"/>
        <pt x="135" y="-510" on="0"/>
        <pt x="95" y="-474" on="0"/>
        <pt x="77" y="-425" on="0"/>
        <pt x="77" y="-397" on="1"/>
        <pt x="77" y="-386" on="0"/>
        <pt x="86" y="-344" on="0"/>
        <pt x="115" y="-295" on="0"/>
        <pt x="167" y="-245" on="0"/>
        <pt x="252" y="-204" on="0"/>
        <pt x="377" y="-178" on="0"/>
        <pt x="463" y="-178" on="1"/>
        <pt x="642" y="-178" on="1"/>
        <pt x="693" y="-94" on="0"/>
        <pt x="807" y="131" on="0"/>
        <pt x="870" y="281" on="1"/>
        <pt x="933" y="429" on="1"/>
        <pt x="844" y="297" on="0"/>
        <pt x="685" y="124" on="0"/>
        <pt x="546" y="22" on="0"/>
        <pt x="427" y="-18" on="0"/>
        <pt x="379" y="-18" on="1"/>
        <pt x="314" y="-18" on="0"/>
        <pt x="251" y="60" on="0"/>
        <pt x="251" y="118" on="1"/>
        <pt x="251" y="149" on="0"/>
        <pt x="265" y="224" on="0"/>
        <pt x="289" y="305" on="0"/>
        <pt x="319" y="386" on="0"/>
        <pt x="335" y="424" on="1"/>
      </contour>
      <contour>
        <pt x="241" y="-489" on="1"/>
        <pt x="281" y="-489" on="0"/>
        <pt x="361" y="-470" on="0"/>
        <pt x="446" y="-421" on="0"/>
        <pt x="535" y="-334" on="0"/>
        <pt x="584" y="-266" on="1"/>
        <pt x="422" y="-266" on="1"/>
        <pt x="374" y="-266" on="0"/>
        <pt x="267" y="-277" on="0"/>
        <pt x="178" y="-307" on="0"/>
        <pt x="120" y="-362" on="0"/>
        <pt x="120" y="-405" on="1"/>
        <pt x="120" y="-444" on="0"/>
        <pt x="176" y="-489" on="0"/>
      </contour>
    </TTGlyph>
    <TTGlyph name="Yacute" xMin="50" yMin="-530" xMax="1415" yMax="1667">
      <component glyphName="Y" x="0" y="0" flags="0x204"/>
      <component glyphName="acute" x="815" y="629" flags="0x4"/>
    </TTGlyph>
    <TTGlyph name="Ycircumflex" xMin="50" yMin="-530" xMax="1415" yMax="1665">
      <component glyphName="Y" x="0" y="0" flags="0x204"/>
      <component glyphName="circumflex" x="815" y="629" flags="0x4"/>
    </TTGlyph>
    <TTGlyph name="Ydieresis" xMin="50" yMin="-530" xMax="1415" yMax="1642">
      <component glyphName="Y" x="0" y="0" flags="0x204"/>
      <component glyphName="dieresis" x="815" y="629" flags="0x4"/>
    </TTGlyph>
    <TTGlyph name="Ygrave" xMin="50" yMin="-530" xMax="1415" yMax="1667">
      <component glyphName="Y" x="0" y="0" flags="0x204"/>
      <component glyphName="grave" x="815" y="629" flags="0x4"/>
    </TTGlyph>
    <TTGlyph name="Z" xMin="-201" yMin="-25" xMax="1259" yMax="1434">
      <contour>
        <pt x="985" y="388" on="1"/>
        <pt x="1014" y="364" on="0"/>
        <pt x="1049" y="293" on="0"/>
        <pt x="1049" y="245" on="1"/>
        <pt x="1049" y="176" on="0"/>
        <pt x="981" y="75" on="0"/>
        <pt x="872" y="8" on="0"/>
        <pt x="733" y="-25" on="0"/>
        <pt x="663" y="-25" on="1"/>
        <pt x="587" y="-25" on="0"/>
        <pt x="445" y="-7" on="0"/>
        <pt x="313" y="20" on="0"/>
        <pt x="193" y="54" on="0"/>
        <pt x="141" y="69" on="1"/>
        <pt x="75" y="27" on="0"/>
        <pt x="-38" y="-19" on="0"/>
        <pt x="-84" y="-19" on="1"/>
        <pt x="-115" y="-19" on="0"/>
        <pt x="-159" y="-4" on="0"/>
        <pt x="-188" y="21" on="0"/>
        <pt x="-201" y="52" on="0"/>
        <pt x="-201" y="68" on="1"/>
        <pt x="-201" y="112" on="0"/>
        <pt x="-118" y="172" on="0"/>
        <pt x="-39" y="172" on="1"/>
        <pt x="7" y="172" on="0"/>
        <pt x="109" y="159" on="0"/>
        <pt x="166" y="148" on="1"/>
        <pt x="249" y="215" on="0"/>
        <pt x="431" y="403" on="0"/>
        <pt x="613" y="616" on="0"/>
        <pt x="786" y="840" on="0"/>
        <pt x="935" y="1049" on="0"/>
        <pt x="1052" y="1228" on="0"/>
        <pt x="1087" y="1289" on="1"/>
        <pt x="988" y="1289" on="0"/>
        <pt x="828" y="1307" on="0"/>
        <pt x="682" y="1330" on="0"/>
        <pt x="537" y="1348" on="0"/>
        <pt x="454" y="1348" on="1"/>
        <pt x="391" y="1348" on="0"/>
        <pt x="313" y="1312" on="0"/>
        <pt x="270" y="1262" on="0"/>
        <pt x="255" y="1209" on="0"/>
        <pt x="255" y="1191" on="1"/>
        <pt x="255" y="1164" on="0"/>
        <pt x="277" y="1115" on="0"/>
        <pt x="318" y="1079" on="0"/>
        <pt x="377" y="1057" on="0"/>
        <pt x="415" y="1057" on="1"/>
        <pt x="441" y="1057" on="0"/>
        <pt x="519" y="1068" on="0"/>
        <pt x="564" y="1085" on="1"/>
        <pt x="523" y="989" on="1"/>
        <pt x="504" y="982" on="0"/>
        <pt x="452" y="972" on="0"/>
        <pt x="420" y="972" on="1"/>
        <pt x="377" y="972" on="0"/>
        <pt x="299" y="996" on="0"/>
        <pt x="240" y="1044" on="0"/>
        <pt x="205" y="1116" on="0"/>
        <pt x="205" y="1164" on="1"/>
        <pt x="205" y="1233" on="0"/>
        <pt x="273" y="1334" on="0"/>
        <pt x="382" y="1401" on="0"/>
        <pt x="520" y="1434" on="0"/>
        <pt x="591" y="1434" on="1"/>
        <pt x="637" y="1434" on="0"/>
        <pt x="725" y="1427" on="0"/>
        <pt x="817" y="1416" on="0"/>
        <pt x="917" y="1404" on="0"/>
        <pt x="1035" y="1393" on="0"/>
        <pt x="1174" y="1386" on="0"/>
        <pt x="1259" y="1386" on="1"/>
        <pt x="1231" y="1313" on="0"/>
        <pt x="1112" y="1113" on="0"/>
        <pt x="950" y="885" on="0"/>
        <pt x="755" y="643" on="0"/>
        <pt x="546" y="414" on="0"/>
        <pt x="333" y="210" on="0"/>
        <pt x="235" y="135" on="1"/>
        <pt x="348" y="113" on="0"/>
        <pt x="609" y="71" on="0"/>
        <pt x="761" y="71" on="1"/>
        <pt x="838" y="71" on="0"/>
        <pt x="931" y="100" on="0"/>
        <pt x="982" y="141" on="0"/>
        <pt x="999" y="187" on="0"/>
        <pt x="999" y="205" on="1"/>
        <pt x="999" y="243" on="0"/>
        <pt x="939" y="295" on="0"/>
        <pt x="900" y="305" on="1"/>
      </contour>
      <contour>
        <pt x="-81" y="24" on="1"/>
        <pt x="-46" y="24" on="0"/>
        <pt x="36" y="57" on="0"/>
        <pt x="82" y="87" on="1"/>
        <pt x="35" y="100" on="0"/>
        <pt x="-41" y="117" on="0"/>
        <pt x="-71" y="117" on="1"/>
        <pt x="-95" y="117" on="0"/>
        <pt x="-126" y="109" on="0"/>
        <pt x="-145" y="96" on="0"/>
        <pt x="-153" y="79" on="0"/>
        <pt x="-153" y="71" on="1"/>
        <pt x="-153" y="55" on="0"/>
        <pt x="-122" y="24" on="0"/>
      </contour>
    </TTGlyph>
    <TTGlyph name="Zacute" xMin="-201" yMin="-25" xMax="1259" yMax="1733">
      <component glyphName="Z" x="0" y="0" flags="0x204"/>
      <component glyphName="acute" x="549" y="695" flags="0x4"/>
    </TTGlyph>
    <TTGlyph name="Zcaron" xMin="-201" yMin="-25" xMax="1259" yMax="1731">
      <component glyphName="Z" x="0" y="0" flags="0x204"/>
      <component glyphName="caron" x="549" y="695" flags="0x4"/>
    </TTGlyph>
    <TTGlyph name="Zdotaccent" xMin="-201" yMin="-25" xMax="1259" yMax="1707">
      <component glyphName="Z" x="0" y="0" flags="0x204"/>
      <component glyphName="dotaccent" x="549" y="695" flags="0x4"/>
    </TTGlyph>
    <TTGlyph name="a" xMin="-204" yMin="-3" xMax="638" yMax="723">
      <contour>
        <pt x="344" y="170" on="1"/>
        <pt x="340" y="161" on="0"/>
        <pt x="334" y="141" on="0"/>
        <pt x="334" y="134" on="1"/>
        <pt x="334" y="122" on="0"/>
        <pt x="345" y="114" on="0"/>
        <pt x="354" y="114" on="1"/>
        <pt x="368" y="114" on="0"/>
        <pt x="408" y="142" on="0"/>
        <pt x="430" y="169" on="1"/>
        <pt x="613" y="395" on="1"/>
        <pt x="638" y="375" on="1"/>
        <pt x="417" y="102" on="1"/>
        <pt x="393" y="72" on="0"/>
        <pt x="351" y="32" on="0"/>
        <pt x="314" y="9" on="0"/>
        <pt x="277" y="-1" on="0"/>
        <pt x="258" y="-1" on="1"/>
        <pt x="228" y="-1" on="0"/>
        <pt x="188" y="34" on="0"/>
        <pt x="188" y="61" on="1"/>
        <pt x="188" y="91" on="0"/>
        <pt x="211" y="155" on="0"/>
        <pt x="233" y="203" on="1"/>
        <pt x="241" y="220" on="0"/>
        <pt x="264" y="275" on="0"/>
        <pt x="290" y="336" on="0"/>
        <pt x="316" y="398" on="0"/>
        <pt x="336" y="449" on="0"/>
        <pt x="349" y="483" on="0"/>
        <pt x="349" y="486" on="1"/>
        <pt x="349" y="496" on="0"/>
        <pt x="342" y="496" on="1"/>
        <pt x="333" y="496" on="0"/>
        <pt x="323" y="481" on="1"/>
        <pt x="317" y="473" on="0"/>
        <pt x="281" y="421" on="0"/>
        <pt x="229" y="349" on="0"/>
        <pt x="169" y="265" on="0"/>
        <pt x="109" y="185" on="0"/>
        <pt x="55" y="119" on="0"/>
        <pt x="36" y="100" on="1"/>
        <pt x="-12" y="52" on="0"/>
        <pt x="-86" y="-3" on="0"/>
        <pt x="-122" y="-3" on="1"/>
        <pt x="-134" y="-3" on="0"/>
        <pt x="-163" y="7" on="0"/>
        <pt x="-188" y="32" on="0"/>
        <pt x="-204" y="77" on="0"/>
        <pt x="-204" y="112" on="1"/>
        <pt x="-204" y="164" on="0"/>
        <pt x="-157" y="290" on="0"/>
        <pt x="-75" y="421" on="0"/>
        <pt x="37" y="547" on="0"/>
        <pt x="168" y="648" on="0"/>
        <pt x="312" y="716" on="0"/>
        <pt x="386" y="723" on="1"/>
        <pt x="386" y="705" on="1"/>
        <pt x="325" y="687" on="0"/>
        <pt x="213" y="612" on="0"/>
        <pt x="115" y="514" on="0"/>
        <pt x="35" y="403" on="0"/>
        <pt x="-23" y="295" on="0"/>
        <pt x="-54" y="198" on="0"/>
        <pt x="-54" y="165" on="1"/>
        <pt x="-54" y="147" on="0"/>
        <pt x="-43" y="123" on="0"/>
        <pt x="-33" y="123" on="1"/>
        <pt x="-22" y="123" on="0"/>
        <pt x="21" y="159" on="0"/>
        <pt x="77" y="220" on="0"/>
        <pt x="143" y="299" on="0"/>
        <pt x="211" y="385" on="0"/>
        <pt x="278" y="473" on="0"/>
        <pt x="307" y="512" on="1"/>
        <pt x="351" y="572" on="0"/>
        <pt x="409" y="650" on="0"/>
        <pt x="451" y="697" on="0"/>
        <pt x="485" y="715" on="0"/>
        <pt x="505" y="715" on="1"/>
        <pt x="526" y="715" on="0"/>
        <pt x="542" y="693" on="0"/>
        <pt x="542" y="677" on="1"/>
        <pt x="542" y="664" on="0"/>
        <pt x="535" y="636" on="0"/>
        <pt x="530" y="625" on="1"/>
        <pt x="526" y="616" on="0"/>
        <pt x="499" y="549" on="0"/>
        <pt x="461" y="456" on="0"/>
        <pt x="418" y="350" on="0"/>
        <pt x="379" y="255" on="0"/>
        <pt x="349" y="182" on="0"/>
      </contour>
    </TTGlyph>
    <TTGlyph name="aacute" xMin="-204" yMin="-3" xMax="669" yMax="1038">
      <component glyphName="a" x="0" y="0" flags="0x204"/>
      <component glyphName="acute" x="205" y="0" flags="0x4"/>
    </TTGlyph>
    <TTGlyph name="abreve" xMin="-204" yMin="-3" xMax="739" yMax="1036">
      <component glyphName="a" x="0" y="0" flags="0x204"/>
      <component glyphName="breve" x="205" y="0" flags="0x4"/>
    </TTGlyph>
    <TTGlyph name="acircumflex" xMin="-204" yMin="-3" xMax="662" yMax="1036">
      <component glyphName="a" x="0" y="0" flags="0x4"/>
      <component glyphName="circumflex" x="205" y="0" flags="0x4"/>
    </TTGlyph>
    <TTGlyph name="acute" xMin="175" yMin="844" xMax="464" yMax="1038">
      <contour>
        <pt x="224" y="844" on="1"/>
        <pt x="175" y="844" on="1"/>
        <pt x="319" y="1038" on="1"/>
        <pt x="464" y="1038" on="1"/>
      </contour>
    </TTGlyph>
    <TTGlyph name="adieresis" xMin="-204" yMin="-3" xMax="684" yMax="1013">
      <component glyphName="a" x="0" y="0" flags="0x204"/>
      <component glyphName="dieresis" x="205" y="0" flags="0x4"/>
    </TTGlyph>
    <TTGlyph name="ae" xMin="-204" yMin="-3" xMax="855" yMax="723">
      <contour>
        <pt x="391" y="40" on="1"/>
        <pt x="427" y="40" on="0"/>
        <pt x="512" y="72" on="0"/>
        <pt x="619" y="150" on="0"/>
        <pt x="749" y="283" on="0"/>
        <pt x="830" y="384" on="1"/>
        <pt x="855" y="364" on="1"/>
        <pt x="786" y="276" on="0"/>
        <pt x="670" y="153" on="0"/>
        <pt x="574" y="72" on="0"/>
        <pt x="497" y="27" on="0"/>
        <pt x="437" y="5" on="0"/>
        <pt x="391" y="0" on="0"/>
        <pt x="375" y="0" on="1"/>
        <pt x="351" y="0" on="0"/>
        <pt x="291" y="14" on="0"/>
        <pt x="239" y="51" on="0"/>
        <pt x="204" y="115" on="0"/>
        <pt x="204" y="166" on="1"/>
        <pt x="204" y="232" on="0"/>
        <pt x="243" y="356" on="0"/>
        <pt x="275" y="413" on="1"/>
        <pt x="250" y="377" on="0"/>
        <pt x="184" y="286" on="0"/>
        <pt x="118" y="197" on="0"/>
        <pt x="57" y="121" on="0"/>
        <pt x="36" y="100" on="1"/>
        <pt x="-12" y="52" on="0"/>
        <pt x="-86" y="-3" on="0"/>
        <pt x="-122" y="-3" on="1"/>
        <pt x="-134" y="-3" on="0"/>
        <pt x="-163" y="7" on="0"/>
        <pt x="-188" y="32" on="0"/>
        <pt x="-204" y="77" on="0"/>
        <pt x="-204" y="112" on="1"/>
        <pt x="-204" y="164" on="0"/>
        <pt x="-157" y="290" on="0"/>
        <pt x="-75" y="421" on="0"/>
        <pt x="37" y="547" on="0"/>
        <pt x="168" y="648" on="0"/>
        <pt x="312" y="716" on="0"/>
        <pt x="386" y="723" on="1"/>
        <pt x="386" y="705" on="1"/>
        <pt x="325" y="687" on="0"/>
        <pt x="213" y="612" on="0"/>
        <pt x="115" y="514" on="0"/>
        <pt x="35" y="403" on="0"/>
        <pt x="-23" y="295" on="0"/>
        <pt x="-54" y="198" on="0"/>
        <pt x="-54" y="165" on="1"/>
        <pt x="-54" y="147" on="0"/>
        <pt x="-43" y="123" on="0"/>
        <pt x="-33" y="123" on="1"/>
        <pt x="-22" y="123" on="0"/>
        <pt x="21" y="159" on="0"/>
        <pt x="77" y="220" on="0"/>
        <pt x="143" y="299" on="0"/>
        <pt x="211" y="385" on="0"/>
        <pt x="278" y="473" on="0"/>
        <pt x="307" y="512" on="1"/>
        <pt x="351" y="572" on="0"/>
        <pt x="411" y="653" on="0"/>
        <pt x="454" y="702" on="0"/>
        <pt x="486" y="723" on="0"/>
        <pt x="504" y="723" on="1"/>
        <pt x="524" y="723" on="0"/>
        <pt x="539" y="704" on="0"/>
        <pt x="539" y="690" on="1"/>
        <pt x="539" y="686" on="0"/>
        <pt x="538" y="679" on="0"/>
        <pt x="537" y="674" on="1"/>
        <pt x="575" y="695" on="0"/>
        <pt x="646" y="719" on="0"/>
        <pt x="674" y="719" on="1"/>
        <pt x="727" y="719" on="0"/>
        <pt x="774" y="656" on="0"/>
        <pt x="774" y="607" on="1"/>
        <pt x="774" y="562" on="0"/>
        <pt x="734" y="478" on="0"/>
        <pt x="668" y="403" on="0"/>
        <pt x="581" y="340" on="0"/>
        <pt x="486" y="295" on="0"/>
        <pt x="389" y="269" on="0"/>
        <pt x="347" y="269" on="1"/>
        <pt x="334" y="231" on="0"/>
        <pt x="319" y="163" on="0"/>
        <pt x="319" y="134" on="1"/>
        <pt x="319" y="80" on="0"/>
        <pt x="361" y="40" on="0"/>
      </contour>
      <contour>
        <pt x="641" y="678" on="1"/>
        <pt x="614" y="678" on="0"/>
        <pt x="538" y="609" on="0"/>
        <pt x="457" y="499" on="0"/>
        <pt x="382" y="364" on="0"/>
        <pt x="357" y="297" on="1"/>
        <pt x="428" y="309" on="0"/>
        <pt x="545" y="382" on="0"/>
        <pt x="628" y="479" on="0"/>
        <pt x="673" y="587" on="0"/>
        <pt x="673" y="632" on="1"/>
        <pt x="673" y="659" on="0"/>
        <pt x="655" y="678" on="0"/>
      </contour>
    </TTGlyph>
    <TTGlyph name="aeacute" xMin="-204" yMin="-3" xMax="855" yMax="1038">
      <component glyphName="ae" x="0" y="0" flags="0x204"/>
      <component glyphName="acute" x="263" y="0" flags="0x4"/>
    </TTGlyph>
    <TTGlyph name="agrave" xMin="-204" yMin="-3" xMax="638" yMax="1038">
      <component glyphName="a" x="0" y="0" flags="0x204"/>
      <component glyphName="grave" x="205" y="0" flags="0x4"/>
    </TTGlyph>
    <TTGlyph name="amacron" xMin="-204" yMin="-3" xMax="704" yMax="976">
      <component glyphName="a" x="0" y="0" flags="0x204"/>
      <component glyphName="macron" x="205" y="0" flags="0x4"/>
    </TTGlyph>
    <TTGlyph name="ampersand" xMin="-32" yMin="-16" xMax="824" yMax="911">
      <contour>
        <pt x="778" y="207" on="1"/>
        <pt x="516" y="207" on="1"/>
        <pt x="493" y="160" on="0"/>
        <pt x="423" y="79" on="0"/>
        <pt x="336" y="19" on="0"/>
        <pt x="237" y="-16" on="0"/>
        <pt x="185" y="-16" on="1"/>
        <pt x="154" y="-16" on="0"/>
        <pt x="79" y="-1" on="0"/>
        <pt x="13" y="40" on="0"/>
        <pt x="-32" y="112" on="0"/>
        <pt x="-32" y="169" on="1"/>
        <pt x="-32" y="229" on="0"/>
        <pt x="16" y="331" on="0"/>
        <pt x="89" y="415" on="0"/>
        <pt x="176" y="481" on="0"/>
        <pt x="254" y="528" on="0"/>
        <pt x="311" y="557" on="0"/>
        <pt x="318" y="563" on="1"/>
        <pt x="325" y="567" on="0"/>
        <pt x="325" y="574" on="1"/>
        <pt x="325" y="586" on="0"/>
        <pt x="294" y="603" on="0"/>
        <pt x="256" y="626" on="0"/>
        <pt x="225" y="660" on="0"/>
        <pt x="225" y="690" on="1"/>
        <pt x="225" y="726" on="0"/>
        <pt x="278" y="805" on="0"/>
        <pt x="357" y="869" on="0"/>
        <pt x="452" y="911" on="0"/>
        <pt x="494" y="911" on="1"/>
        <pt x="535" y="909" on="0"/>
        <pt x="568" y="896" on="1"/>
        <pt x="596" y="885" on="0"/>
        <pt x="643" y="838" on="0"/>
        <pt x="644" y="794" on="1"/>
        <pt x="539" y="710" on="1"/>
        <pt x="546" y="734" on="0"/>
        <pt x="546" y="756" on="1"/>
        <pt x="546" y="804" on="0"/>
        <pt x="503" y="860" on="0"/>
        <pt x="467" y="860" on="1"/>
        <pt x="441" y="860" on="0"/>
        <pt x="395" y="843" on="0"/>
        <pt x="360" y="814" on="0"/>
        <pt x="340" y="775" on="0"/>
        <pt x="340" y="753" on="1"/>
        <pt x="340" y="738" on="0"/>
        <pt x="354" y="712" on="0"/>
        <pt x="374" y="690" on="0"/>
        <pt x="397" y="673" on="0"/>
        <pt x="406" y="668" on="1"/>
        <pt x="422" y="658" on="0"/>
        <pt x="458" y="629" on="0"/>
        <pt x="458" y="609" on="1"/>
        <pt x="458" y="597" on="0"/>
        <pt x="438" y="575" on="0"/>
        <pt x="412" y="564" on="1"/>
        <pt x="380" y="550" on="0"/>
        <pt x="304" y="505" on="0"/>
        <pt x="227" y="442" on="0"/>
        <pt x="158" y="360" on="0"/>
        <pt x="134" y="311" on="1"/>
        <pt x="98" y="237" on="0"/>
        <pt x="98" y="176" on="1"/>
        <pt x="98" y="122" on="0"/>
        <pt x="159" y="57" on="0"/>
        <pt x="222" y="57" on="1"/>
        <pt x="259" y="57" on="0"/>
        <pt x="331" y="81" on="0"/>
        <pt x="395" y="121" on="0"/>
        <pt x="450" y="176" on="0"/>
        <pt x="470" y="207" on="1"/>
        <pt x="436" y="207" on="1"/>
        <pt x="395" y="207" on="0"/>
        <pt x="336" y="229" on="0"/>
        <pt x="298" y="266" on="0"/>
        <pt x="280" y="313" on="0"/>
        <pt x="280" y="337" on="1"/>
        <pt x="280" y="367" on="0"/>
        <pt x="301" y="418" on="0"/>
        <pt x="340" y="455" on="0"/>
        <pt x="393" y="475" on="0"/>
        <pt x="425" y="475" on="1"/>
        <pt x="445" y="475" on="0"/>
        <pt x="489" y="461" on="0"/>
        <pt x="525" y="429" on="0"/>
        <pt x="549" y="379" on="0"/>
        <pt x="549" y="343" on="1"/>
        <pt x="549" y="331" on="0"/>
        <pt x="547" y="308" on="0"/>
        <pt x="545" y="297" on="1"/>
        <pt x="824" y="297" on="1"/>
      </contour>
      <contour>
        <pt x="324" y="367" on="1"/>
        <pt x="324" y="341" on="0"/>
        <pt x="368" y="297" on="0"/>
        <pt x="419" y="297" on="1"/>
        <pt x="510" y="297" on="1"/>
        <pt x="516" y="321" on="0"/>
        <pt x="516" y="344" on="1"/>
        <pt x="516" y="396" on="0"/>
        <pt x="463" y="448" on="0"/>
        <pt x="419" y="448" on="1"/>
        <pt x="402" y="448" on="0"/>
        <pt x="368" y="438" on="0"/>
        <pt x="341" y="418" on="0"/>
        <pt x="324" y="387" on="0"/>
      </contour>
    </TTGlyph>
    <TTGlyph name="aogonek" xMin="-204" yMin="-287" xMax="638" yMax="723">
      <contour>
        <pt x="282" y="-256" on="1"/>
        <pt x="256" y="-268" on="0"/>
        <pt x="189" y="-287" on="0"/>
        <pt x="157" y="-287" on="1"/>
        <pt x="108" y="-287" on="0"/>
        <pt x="70" y="-244" on="0"/>
        <pt x="70" y="-216" on="1"/>
        <pt x="70" y="-185" on="0"/>
        <pt x="100" y="-122" on="0"/>
        <pt x="148" y="-65" on="0"/>
        <pt x="209" y="-17" on="0"/>
        <pt x="241" y="0" on="1"/>
        <pt x="218" y="5" on="0"/>
        <pt x="190" y="38" on="0"/>
        <pt x="190" y="61" on="1"/>
        <pt x="190" y="91" on="0"/>
        <pt x="213" y="154" on="0"/>
        <pt x="233" y="203" on="1"/>
        <pt x="241" y="222" on="0"/>
        <pt x="264" y="277" on="0"/>
        <pt x="290" y="339" on="0"/>
        <pt x="316" y="400" on="0"/>
        <pt x="336" y="450" on="0"/>
        <pt x="349" y="483" on="0"/>
        <pt x="349" y="486" on="1"/>
        <pt x="349" y="496" on="0"/>
        <pt x="342" y="496" on="1"/>
        <pt x="333" y="496" on="0"/>
        <pt x="323" y="481" on="1"/>
        <pt x="317" y="473" on="0"/>
        <pt x="281" y="421" on="0"/>
        <pt x="229" y="349" on="0"/>
        <pt x="169" y="265" on="0"/>
        <pt x="109" y="185" on="0"/>
        <pt x="55" y="119" on="0"/>
        <pt x="36" y="100" on="1"/>
        <pt x="-12" y="52" on="0"/>
        <pt x="-86" y="-3" on="0"/>
        <pt x="-122" y="-3" on="1"/>
        <pt x="-134" y="-3" on="0"/>
        <pt x="-163" y="7" on="0"/>
        <pt x="-188" y="32" on="0"/>
        <pt x="-204" y="77" on="0"/>
        <pt x="-204" y="112" on="1"/>
        <pt x="-204" y="164" on="0"/>
        <pt x="-157" y="290" on="0"/>
        <pt x="-75" y="421" on="0"/>
        <pt x="37" y="547" on="0"/>
        <pt x="168" y="648" on="0"/>
        <pt x="312" y="716" on="0"/>
        <pt x="386" y="723" on="1"/>
        <pt x="386" y="705" on="1"/>
        <pt x="325" y="687" on="0"/>
        <pt x="213" y="612" on="0"/>
        <pt x="115" y="514" on="0"/>
        <pt x="35" y="403" on="0"/>
        <pt x="-23" y="295" on="0"/>
        <pt x="-54" y="198" on="0"/>
        <pt x="-54" y="165" on="1"/>
        <pt x="-54" y="147" on="0"/>
        <pt x="-43" y="123" on="0"/>
        <pt x="-33" y="123" on="1"/>
        <pt x="-22" y="123" on="0"/>
        <pt x="21" y="159" on="0"/>
        <pt x="77" y="220" on="0"/>
        <pt x="143" y="299" on="0"/>
        <pt x="211" y="385" on="0"/>
        <pt x="278" y="473" on="0"/>
        <pt x="307" y="512" on="1"/>
        <pt x="351" y="572" on="0"/>
        <pt x="409" y="650" on="0"/>
        <pt x="451" y="697" on="0"/>
        <pt x="485" y="715" on="0"/>
        <pt x="505" y="715" on="1"/>
        <pt x="526" y="715" on="0"/>
        <pt x="542" y="693" on="0"/>
        <pt x="542" y="677" on="1"/>
        <pt x="542" y="664" on="0"/>
        <pt x="535" y="636" on="0"/>
        <pt x="530" y="625" on="1"/>
        <pt x="344" y="170" on="1"/>
        <pt x="340" y="161" on="0"/>
        <pt x="334" y="141" on="0"/>
        <pt x="334" y="134" on="1"/>
        <pt x="334" y="122" on="0"/>
        <pt x="345" y="114" on="0"/>
        <pt x="354" y="114" on="1"/>
        <pt x="368" y="114" on="0"/>
        <pt x="408" y="142" on="0"/>
        <pt x="430" y="169" on="1"/>
        <pt x="613" y="395" on="1"/>
        <pt x="638" y="375" on="1"/>
        <pt x="417" y="102" on="1"/>
        <pt x="381" y="58" on="0"/>
        <pt x="331" y="15" on="0"/>
        <pt x="305" y="4" on="1"/>
        <pt x="258" y="-16" on="0"/>
        <pt x="199" y="-69" on="0"/>
        <pt x="164" y="-123" on="0"/>
        <pt x="151" y="-176" on="0"/>
        <pt x="151" y="-196" on="1"/>
        <pt x="151" y="-224" on="0"/>
        <pt x="181" y="-247" on="0"/>
        <pt x="203" y="-247" on="1"/>
        <pt x="224" y="-247" on="0"/>
        <pt x="264" y="-234" on="0"/>
        <pt x="272" y="-231" on="1"/>
        <pt x="282" y="-256" on="1"/>
      </contour>
    </TTGlyph>
    <TTGlyph name="approxequal" xMin="-5" yMin="387" xMax="684" yMax="786">
      <contour>
        <pt x="684" y="786" on="1"/>
        <pt x="657" y="741" on="0"/>
        <pt x="607" y="676" on="0"/>
        <pt x="555" y="634" on="0"/>
        <pt x="500" y="614" on="0"/>
        <pt x="468" y="614" on="1"/>
        <pt x="426" y="614" on="0"/>
        <pt x="369" y="645" on="0"/>
        <pt x="325" y="681" on="0"/>
        <pt x="287" y="712" on="0"/>
        <pt x="263" y="712" on="1"/>
        <pt x="233" y="712" on="0"/>
        <pt x="176" y="670" on="0"/>
        <pt x="141" y="614" on="1"/>
        <pt x="61" y="614" on="1"/>
        <pt x="113" y="706" on="0"/>
        <pt x="208" y="786" on="0"/>
        <pt x="265" y="786" on="1"/>
        <pt x="305" y="786" on="0"/>
        <pt x="359" y="755" on="0"/>
        <pt x="402" y="719" on="0"/>
        <pt x="444" y="688" on="0"/>
        <pt x="472" y="688" on="1"/>
        <pt x="486" y="688" on="0"/>
        <pt x="516" y="696" on="0"/>
        <pt x="549" y="717" on="0"/>
        <pt x="584" y="756" on="0"/>
        <pt x="604" y="786" on="1"/>
      </contour>
      <contour>
        <pt x="618" y="559" on="1"/>
        <pt x="591" y="514" on="0"/>
        <pt x="541" y="449" on="0"/>
        <pt x="489" y="407" on="0"/>
        <pt x="434" y="387" on="0"/>
        <pt x="402" y="387" on="1"/>
        <pt x="360" y="387" on="0"/>
        <pt x="303" y="418" on="0"/>
        <pt x="259" y="454" on="0"/>
        <pt x="221" y="485" on="0"/>
        <pt x="197" y="485" on="1"/>
        <pt x="167" y="485" on="0"/>
        <pt x="110" y="443" on="0"/>
        <pt x="75" y="387" on="1"/>
        <pt x="-5" y="387" on="1"/>
        <pt x="47" y="479" on="0"/>
        <pt x="142" y="559" on="0"/>
        <pt x="199" y="559" on="1"/>
        <pt x="239" y="559" on="0"/>
        <pt x="293" y="528" on="0"/>
        <pt x="336" y="492" on="0"/>
        <pt x="378" y="461" on="0"/>
        <pt x="406" y="461" on="1"/>
        <pt x="420" y="461" on="0"/>
        <pt x="450" y="469" on="0"/>
        <pt x="483" y="490" on="0"/>
        <pt x="518" y="529" on="0"/>
        <pt x="538" y="559" on="1"/>
      </contour>
    </TTGlyph>
    <TTGlyph name="aring" xMin="-204" yMin="-3" xMax="690" yMax="1148">
      <component glyphName="a" x="0" y="0" flags="0x204"/>
      <component glyphName="ring" x="191" y="0" flags="0x4"/>
    </TTGlyph>
    <TTGlyph name="asciicircum" xMin="188" yMin="984" xMax="687" yMax="1397">
      <contour>
        <pt x="188" y="984" on="1"/>
        <pt x="545" y="1397" on="1"/>
        <pt x="654" y="1397" on="1"/>
        <pt x="687" y="984" on="1"/>
        <pt x="576" y="984" on="1"/>
        <pt x="567" y="1315" on="1"/>
        <pt x="306" y="984" on="1"/>
      </contour>
    </TTGlyph>
    <TTGlyph name="asciitilde" xMin="36" yMin="485" xMax="659" yMax="690">
      <contour>
        <pt x="659" y="690" on="1"/>
        <pt x="632" y="636" on="0"/>
        <pt x="582" y="559" on="0"/>
        <pt x="530" y="509" on="0"/>
        <pt x="475" y="485" on="0"/>
        <pt x="443" y="485" on="1"/>
        <pt x="401" y="485" on="0"/>
        <pt x="344" y="526" on="0"/>
        <pt x="300" y="575" on="0"/>
        <pt x="262" y="616" on="0"/>
        <pt x="238" y="616" on="1"/>
        <pt x="208" y="616" on="0"/>
        <pt x="151" y="559" on="0"/>
        <pt x="116" y="485" on="1"/>
        <pt x="36" y="485" on="1"/>
        <pt x="88" y="594" on="0"/>
        <pt x="184" y="690" on="0"/>
        <pt x="240" y="690" on="1"/>
        <pt x="280" y="690" on="0"/>
        <pt x="334" y="649" on="0"/>
        <pt x="377" y="600" on="0"/>
        <pt x="419" y="559" on="0"/>
        <pt x="447" y="559" on="1"/>
        <pt x="461" y="559" on="0"/>
        <pt x="491" y="570" on="0"/>
        <pt x="524" y="598" on="0"/>
        <pt x="559" y="649" on="0"/>
        <pt x="579" y="690" on="1"/>
        <pt x="659" y="690" on="1"/>
      </contour>
    </TTGlyph>
    <TTGlyph name="asterisk" xMin="173" yMin="818" xMax="580" yMax="1219">
      <contour>
        <pt x="376" y="979" on="1"/>
        <pt x="303" y="818" on="1"/>
        <pt x="222" y="870" on="1"/>
        <pt x="343" y="1005" on="1"/>
        <pt x="173" y="1032" on="1"/>
        <pt x="203" y="1123" on="1"/>
        <pt x="355" y="1046" on="1"/>
        <pt x="328" y="1219" on="1"/>
        <pt x="425" y="1219" on="1"/>
        <pt x="398" y="1046" on="1"/>
        <pt x="550" y="1123" on="1"/>
        <pt x="580" y="1032" on="1"/>
        <pt x="409" y="1005" on="1"/>
        <pt x="531" y="871" on="1"/>
        <pt x="451" y="818" on="1"/>
      </contour>
    </TTGlyph>
    <TTGlyph name="at" xMin="72" yMin="-35" xMax="1368" yMax="1367">
      <contour>
        <pt x="882" y="373" on="1"/>
        <pt x="918" y="373" on="0"/>
        <pt x="1004" y="420" on="0"/>
        <pt x="1090" y="504" on="0"/>
        <pt x="1171" y="619" on="0"/>
        <pt x="1233" y="756" on="0"/>
        <pt x="1271" y="908" on="0"/>
        <pt x="1271" y="988" on="1"/>
        <pt x="1271" y="1083" on="0"/>
        <pt x="1234" y="1212" on="0"/>
        <pt x="1164" y="1291" on="0"/>
        <pt x="1065" y="1325" on="0"/>
        <pt x="1002" y="1325" on="1"/>
        <pt x="888" y="1325" on="0"/>
        <pt x="680" y="1237" on="0"/>
        <pt x="503" y="1087" on="0"/>
        <pt x="359" y="891" on="0"/>
        <pt x="257" y="675" on="0"/>
        <pt x="202" y="454" on="0"/>
        <pt x="202" y="354" on="1"/>
        <pt x="202" y="271" on="0"/>
        <pt x="242" y="147" on="0"/>
        <pt x="317" y="64" on="0"/>
        <pt x="423" y="23" on="0"/>
        <pt x="490" y="23" on="1"/>
        <pt x="540" y="23" on="0"/>
        <pt x="669" y="52" on="0"/>
        <pt x="734" y="84" on="1"/>
        <pt x="753" y="49" on="1"/>
        <pt x="672" y="2" on="0"/>
        <pt x="513" y="-35" on="0"/>
        <pt x="439" y="-35" on="1"/>
        <pt x="373" y="-35" on="0"/>
        <pt x="241" y="6" on="0"/>
        <pt x="137" y="98" on="0"/>
        <pt x="72" y="245" on="0"/>
        <pt x="72" y="351" on="1"/>
        <pt x="72" y="482" on="0"/>
        <pt x="146" y="735" on="0"/>
        <pt x="275" y="961" on="0"/>
        <pt x="451" y="1151" on="0"/>
        <pt x="656" y="1290" on="0"/>
        <pt x="880" y="1367" on="0"/>
        <pt x="993" y="1367" on="1"/>
        <pt x="1082" y="1367" on="0"/>
        <pt x="1222" y="1316" on="0"/>
        <pt x="1318" y="1220" on="0"/>
        <pt x="1368" y="1084" on="0"/>
        <pt x="1368" y="999" on="1"/>
        <pt x="1368" y="919" on="0"/>
        <pt x="1322" y="754" on="0"/>
        <pt x="1242" y="600" on="0"/>
        <pt x="1133" y="465" on="0"/>
        <pt x="1006" y="364" on="0"/>
        <pt x="868" y="305" on="0"/>
        <pt x="799" y="305" on="1"/>
        <pt x="779" y="305" on="0"/>
        <pt x="739" y="331" on="0"/>
        <pt x="739" y="359" on="1"/>
        <pt x="739" y="385" on="0"/>
        <pt x="755" y="440" on="0"/>
        <pt x="772" y="483" on="1"/>
        <pt x="781" y="507" on="0"/>
        <pt x="815" y="587" on="0"/>
        <pt x="849" y="666" on="0"/>
        <pt x="874" y="726" on="0"/>
        <pt x="874" y="730" on="1"/>
        <pt x="874" y="738" on="0"/>
        <pt x="867" y="738" on="1"/>
        <pt x="860" y="738" on="0"/>
        <pt x="851" y="725" on="1"/>
        <pt x="846" y="718" on="0"/>
        <pt x="814" y="673" on="0"/>
        <pt x="769" y="610" on="0"/>
        <pt x="716" y="537" on="0"/>
        <pt x="664" y="467" on="0"/>
        <pt x="617" y="409" on="0"/>
        <pt x="601" y="393" on="1"/>
        <pt x="559" y="351" on="0"/>
        <pt x="494" y="303" on="0"/>
        <pt x="463" y="303" on="1"/>
        <pt x="452" y="303" on="0"/>
        <pt x="427" y="311" on="0"/>
        <pt x="405" y="334" on="0"/>
        <pt x="391" y="373" on="0"/>
        <pt x="391" y="403" on="1"/>
        <pt x="391" y="448" on="0"/>
        <pt x="432" y="559" on="0"/>
        <pt x="503" y="673" on="0"/>
        <pt x="601" y="783" on="0"/>
        <pt x="715" y="871" on="0"/>
        <pt x="842" y="930" on="0"/>
        <pt x="906" y="937" on="1"/>
        <pt x="906" y="921" on="1"/>
        <pt x="853" y="905" on="0"/>
        <pt x="755" y="839" on="0"/>
        <pt x="670" y="754" on="0"/>
        <pt x="599" y="657" on="0"/>
        <pt x="549" y="563" on="0"/>
        <pt x="522" y="479" on="0"/>
        <pt x="522" y="450" on="1"/>
        <pt x="522" y="434" on="0"/>
        <pt x="532" y="413" on="0"/>
        <pt x="540" y="413" on="1"/>
        <pt x="549" y="413" on="0"/>
        <pt x="587" y="444" on="0"/>
        <pt x="636" y="497" on="0"/>
        <pt x="694" y="567" on="0"/>
        <pt x="754" y="642" on="0"/>
        <pt x="812" y="719" on="0"/>
        <pt x="837" y="753" on="1"/>
        <pt x="876" y="805" on="0"/>
        <pt x="926" y="873" on="0"/>
        <pt x="963" y="914" on="0"/>
        <pt x="993" y="930" on="0"/>
        <pt x="1010" y="930" on="1"/>
        <pt x="1037" y="930" on="0"/>
        <pt x="1057" y="907" on="0"/>
        <pt x="1059" y="897" on="1"/>
        <pt x="1061" y="886" on="0"/>
        <pt x="1053" y="861" on="0"/>
        <pt x="1049" y="851" on="1"/>
        <pt x="869" y="424" on="1"/>
        <pt x="866" y="416" on="0"/>
        <pt x="861" y="399" on="0"/>
        <pt x="861" y="394" on="1"/>
        <pt x="861" y="386" on="0"/>
        <pt x="871" y="373" on="0"/>
      </contour>
    </TTGlyph>
    <TTGlyph name="atilde" xMin="-204" yMin="-3" xMax="732" yMax="1027">
      <component glyphName="a" x="0" y="0" flags="0x204"/>
      <component glyphName="tilde" x="205" y="0" flags="0x4"/>
    </TTGlyph>
</ttFont>
